<svg xmlns="http://www.w3.org/2000/svg" width="43" height="40.46" viewBox="0 0 43 40.46">
  <path id="bank-finance-loan-icon" d="M.939,13.989,20.666,0,40.495,13.989Zm34.85,13.139-.453-2.075c1.942.362,5.056,4.315,6.063,6.112a16.971,16.971,0,0,1,1.332,3.058c.735,2.734.028,5.291-2.939,5.886a36.96,36.96,0,0,1-7.278.3c-2.1-.108-5.353-.1-6.2-2.263-1.37-3.482,1.141-7.63,3.431-10.17a12.727,12.727,0,0,1,.936-.933,8.933,8.933,0,0,1,2.8-1.964l-1.036,1.928,1.505-1.995h.791l1.047,2.115Zm-.968,1.645v.584a3.461,3.461,0,0,1,.99.238,1.953,1.953,0,0,1,.721.54,2.315,2.315,0,0,1,.375.566,1.311,1.311,0,0,1,.133.534.639.639,0,0,1-.2.468.653.653,0,0,1-.478.2.673.673,0,0,1-.687-.573,1.229,1.229,0,0,0-.857-.9v2.244c.445.122.8.234,1.066.335a2.178,2.178,0,0,1,.711.437,2.046,2.046,0,0,1,.517.709,2.252,2.252,0,0,1,.18.9,2.377,2.377,0,0,1-.288,1.151,2.3,2.3,0,0,1-.851.878,3.021,3.021,0,0,1-1.335.4v1.344a1.259,1.259,0,0,1-.063.464.262.262,0,0,1-.273.145.3.3,0,0,1-.272-.118.689.689,0,0,1-.077-.369V37.5a3.374,3.374,0,0,1-1.1-.3,2.59,2.59,0,0,1-.789-.564,2.375,2.375,0,0,1-.465-.7,1.846,1.846,0,0,1-.151-.716.648.648,0,0,1,.2-.465.676.676,0,0,1,.5-.208.713.713,0,0,1,.41.113.6.6,0,0,1,.233.318,6.71,6.71,0,0,0,.252.678,1.342,1.342,0,0,0,.328.429,1.476,1.476,0,0,0,.58.3V33.877a6.644,6.644,0,0,1-1.208-.445,2.032,2.032,0,0,1-.788-.7,2.311,2.311,0,0,1,.289-2.687,2.645,2.645,0,0,1,1.707-.69v-.572c0-.3.114-.454.34-.454s.345.148.345.442Zm-.685,3.7V30.408a1.906,1.906,0,0,0-.707.355,1,1,0,0,0-.017,1.314A2.177,2.177,0,0,0,34.136,32.474Zm.685,1.6v2.363A1.48,1.48,0,0,0,35.662,36a1.115,1.115,0,0,0,.3-.768.917.917,0,0,0-.289-.726,2.317,2.317,0,0,0-.848-.434Zm-1.97-11.989c-.343-1.009-.652-2.032-.911-3.07.97-1.065,4.723-.923,5.8-.016l-1,2.375c.538-.705.718-1,1.039-1.389a3.141,3.141,0,0,1,.38.3,1.567,1.567,0,0,1,.59.937.983.983,0,0,1-.269.785l-2.294,2.67a4.973,4.973,0,0,1-.863-.218c.13-.306.287-.642.417-.948l-.835.9a3.119,3.119,0,0,0-2.22.27l-2.325-2.791a.771.771,0,0,1-.2-.5c0-.675,1.007-1.256,1.534-1.477l1.152,2.174ZM0,34.4H2.294V32.274H3.5V31.258h1.3V19.072H2.146v-2.92H33a5.12,5.12,0,0,0-2.634,1.219,2.288,2.288,0,0,0-.616,1.02,5.3,5.3,0,0,0-.758.6l-.084.083H27.582v7.921A18.263,18.263,0,0,0,24.23,32.7a10.091,10.091,0,0,0-.564,3.931H0V34.4ZM36.427,16.152h2.756v1.1A6.172,6.172,0,0,0,36.427,16.152ZM10.963,32.274h1.493V31.258h1.3V19.072H9.667V31.258h1.3Zm8.957,0h1.5V31.258h1.292V19.072H18.624V31.258h1.3Zm-5.9-21.813L20.7,5.341l6.71,5.12Z" fill="#85dae9" fill-rule="evenodd"/>
</svg>
