<svg id="Iconly_Broken_Home" data-name="Iconly/Broken/Home" xmlns="http://www.w3.org/2000/svg" width="18" height="19.369" viewBox="0 0 18 19.369">
  <g id="Home">
    <path id="Home-2" data-name="Home" d="M3.756,19.369A3.8,3.8,0,0,1,0,15.54V7.764A2.973,2.973,0,0,1,1.124,5.471l.691-.526a.741.741,0,0,1,.926.243.774.774,0,0,1-.059.972l-.674.51A1.445,1.445,0,0,0,1.5,7.764v7.768a2.287,2.287,0,0,0,2.257,2.291H7.588v.018a.764.764,0,0,1,0,1.528Zm8.813-.009a1.841,1.841,0,0,1-1.824-1.85V14a.487.487,0,0,0-.484-.492h-2.5a.479.479,0,0,0-.345.147A.5.5,0,0,0,7.28,14v1.341a.75.75,0,1,1-1.5,0V14a2.049,2.049,0,0,1,.584-1.435,1.972,1.972,0,0,1,1.407-.595h2.5A2.011,2.011,0,0,1,12.253,14V17.51a.319.319,0,0,0,.316.322h1.707a2.271,2.271,0,0,0,2.249-2.292V7.764a1.446,1.446,0,0,0-.533-1.1L10.237,1.982a1.937,1.937,0,0,0-2.5,0L5.889,3.392a.754.754,0,0,1-1.066-.178A.788.788,0,0,1,5,2.127L6.822.777a3.407,3.407,0,0,1,4.331,0l5.756,4.678A3,3,0,0,1,18,7.747l-.008,7.785a3.793,3.793,0,0,1-3.757,3.828Z" fill="#e2e2e2"/>
  </g>
</svg>
