<svg id="Iconly_Broken_Chat" data-name="Iconly/Broken/Chat" xmlns="http://www.w3.org/2000/svg" width="18" height="18" viewBox="0 0 18 18">
  <g id="Chat" transform="translate(0)">
    <path id="Chat-2" data-name="Chat" d="M7.062,17.789a.674.674,0,0,1,.292-1.316A7.652,7.652,0,1,0,9.005,1.348H9a7.653,7.653,0,0,0-6.783,11.19l.173.338a1.765,1.765,0,0,1,.121,1.334,15.3,15.3,0,0,0-.477,1.469c.505-.152,1.123-.377,1.569-.539l.183-.066a.674.674,0,0,1,.458,1.268l-.181.066a21.591,21.591,0,0,1-2.2.712.717.717,0,0,1-.16.016,1.086,1.086,0,0,1-.8-.308,1.178,1.178,0,0,1-.3-.9.746.746,0,0,1,.017-.133,15.715,15.715,0,0,1,.621-2.021.427.427,0,0,0-.045-.278l-.174-.337A9,9,0,0,1,9,0h.011A9,9,0,1,1,7.062,17.789ZM11.889,9a1.07,1.07,0,1,1,1.07,1.07A1.071,1.071,0,0,1,11.889,9ZM7.926,9A1.07,1.07,0,1,1,9,10.069,1.071,1.071,0,0,1,7.926,9ZM3.963,9a1.07,1.07,0,1,1,1.07,1.07A1.071,1.071,0,0,1,3.963,9Z" fill="#e2e2e2"/>
  </g>
</svg>
