<svg id="Iconly_Broken_Profile" data-name="Iconly/Broken/Profile" xmlns="http://www.w3.org/2000/svg" width="18" height="22" viewBox="0 0 18 22">
  <g id="Profile">
    <path id="Profile-2" data-name="Profile" d="M7.85,21.984a.8.8,0,0,1-.788-.812.821.821,0,0,1,.834-.767q.544.015,1.1.015c4.892,0,7.374-.827,7.374-2.456,0-1.646-2.482-2.481-7.374-2.481s-7.374.828-7.374,2.458c0,.534.194,1.307,1.884,1.863a.783.783,0,0,1,.509,1,.816.816,0,0,1-1.031.5C.518,20.486,0,19.025,0,17.941,0,14.322,5.136,13.9,9,13.9c2.225,0,9,0,9,4.06C18,21.581,12.864,22,9,22Q8.415,22,7.85,21.984ZM2.939,5.89A5.984,5.984,0,0,1,9,0a5.984,5.984,0,0,1,6.06,5.89A5.983,5.983,0,0,1,9,11.777,5.983,5.983,0,0,1,2.939,5.89Zm1.627,0A4.377,4.377,0,0,0,9,10.2,4.378,4.378,0,0,0,13.435,5.89,4.378,4.378,0,0,0,9,1.581,4.377,4.377,0,0,0,4.566,5.89Z" fill="#e2e2e2"/>
  </g>
</svg>
