<svg id="Iconly_Broken_Notification" data-name="Iconly/Broken/Notification" xmlns="http://www.w3.org/2000/svg" width="18" height="22" viewBox="0 0 18 22">
  <g id="Notification" transform="translate(0)">
    <path id="Notification-2" data-name="Notification" d="M6.013,20.48A.853.853,0,0,1,6.122,19.3a.794.794,0,0,1,1.141.112,2.229,2.229,0,0,0,.442.454,2.05,2.05,0,0,0,1.562.4,2.09,2.09,0,0,0,1.378-.858h.01A.8.8,0,0,1,11.8,19.3.852.852,0,0,1,11.9,20.48,3.718,3.718,0,0,1,8.954,22,3.72,3.72,0,0,1,6.013,20.48ZM4.276,17.422a5.052,5.052,0,0,1-3.25-1.694A4.6,4.6,0,0,1,0,12.718v-.135a4.747,4.747,0,0,1,.771-2.314l.075-.1a4.28,4.28,0,0,0,.939-1.935V6.243a.807.807,0,0,1,.84-.524.819.819,0,0,1,.711.7V8.411a.492.492,0,0,1,0,.106,5.874,5.874,0,0,1-1.3,2.691,2.861,2.861,0,0,0-.413,1.375V12.8a2.9,2.9,0,0,0,.619,1.887,3.462,3.462,0,0,0,2.2,1.084,40.825,40.825,0,0,0,9.093,0,3.472,3.472,0,0,0,2.245-1.133,2.868,2.868,0,0,0,.592-1.83v-.222a2.973,2.973,0,0,0-.4-1.384A5.872,5.872,0,0,1,14.6,8.508a.668.668,0,0,1,0-.107v-2c-.273-2.923-3.1-4.732-5.56-4.732a5.92,5.92,0,0,0-2.987.8.788.788,0,0,1-.822.006.843.843,0,0,1,.033-1.457A7.445,7.445,0,0,1,8.963,0c3.249,0,6.894,2.381,7.308,6.2V8.2a4.187,4.187,0,0,0,.94,1.935.821.821,0,0,1,.075.107A4.579,4.579,0,0,1,18,12.5l-.029.2a4.668,4.668,0,0,1-1,3.029,5.1,5.1,0,0,1-3.307,1.694,41.5,41.5,0,0,1-4.7.267A41.519,41.519,0,0,1,4.276,17.422Z" fill="#e2e2e2"/>
  </g>
</svg>
