<svg id="Call" xmlns="http://www.w3.org/2000/svg" width="13.008" height="13.008" viewBox="0 0 13.008 13.008">
  <path id="Call-2" data-name="Call" d="M8.517,12.624c-2.124-.882-5.335-3.74-7.142-6.363a.487.487,0,1,1,.8-.553c1.688,2.45,4.771,5.208,6.733,6.023a1.75,1.75,0,0,0,1.823.076c.343-.207,1.316-1.174,1.3-1.678a.638.638,0,0,0-.188-.288A11.755,11.755,0,0,0,9.95,8.409c-.207-.044-.423.082-.752.289l-.167.1a.488.488,0,1,1-.5-.835l.15-.093a1.991,1.991,0,0,1,1.5-.412,10.133,10.133,0,0,1,2.365,1.7,1.493,1.493,0,0,1,.465.913c.042,1.2-1.562,2.45-1.747,2.556a2.041,2.041,0,0,1-1.222.379A3.636,3.636,0,0,1,8.517,12.624ZM6.492,8.035A6.766,6.766,0,0,1,4.157,5.025,1.579,1.579,0,0,1,4.394,3.6c.147-.255.228-.407.194-.57A12.334,12.334,0,0,0,3.163,1.166.591.591,0,0,0,2.85.975c-.465-.011-1.418.909-1.634,1.267a1.748,1.748,0,0,0,.048,1.84.487.487,0,1,1-.887.4A2.641,2.641,0,0,1,.406,1.7C.6,1.372,1.846-.067,2.913,0a1.5,1.5,0,0,1,.931.465,10.147,10.147,0,0,1,1.7,2.364,1.72,1.72,0,0,1-.3,1.254c-.173.3-.232.428-.173.59A5.778,5.778,0,0,0,7.06,7.241a.488.488,0,0,1-.568.794Z" transform="translate(0 0)" fill="#fff"/>
</svg>
