<svg xmlns="http://www.w3.org/2000/svg" width="12.515" height="12.679" viewBox="0 0 12.515 12.679">
  <path id="package-cancelled-icon" d="M8.33.985,5.47,2.693l3.355.456,2.759-1.721L8.33.985ZM9,6.062A3.307,3.307,0,1,1,5.689,9.369,3.307,3.307,0,0,1,9,6.062ZM7.721,8.8c-.106-.1-.191-.17-.058-.3L8.09,8.08c.136-.137.215-.13.341,0l.576.576.573-.573c.1-.106.17-.191.3-.058l.417.428c.137.136.13.215,0,.341l-.576.576.576.576c.13.126.137.206,0,.341l-.417.428c-.129.132-.194.047-.3-.059l-.573-.573-.576.576c-.126.129-.205.136-.341,0l-.427-.418c-.133-.128-.048-.194.058-.3l.573-.573ZM5.076,3.123l0,3.512L3.8,5.767l-1.275.72L2.675,2.8.481,2.5v7.756l4.435.573a4.3,4.3,0,0,0,.219.511l-4.9-.634a.241.241,0,0,1-.23-.24V2.224a.239.239,0,0,1,.142-.218L4.522.018A.244.244,0,0,1,4.652,0L12.29,1.041a.24.24,0,0,1,.213.248h0l.013,5.67c-.142-.21-.386-.5-.494-.688V1.721L9.151,3.578V5.06a4.333,4.333,0,0,0-.481.009V3.612L5.076,3.123Zm-2.02-.758L5.836.644,4.657.484,1.1,2.1Z" transform="translate(0 0.003)" fill="#fff" fill-rule="evenodd"/>
</svg>
