<svg xmlns="http://www.w3.org/2000/svg" width="13" height="13" viewBox="0 0 13 13">
  <g id="Chat" transform="translate(0 1)">
    <path id="Chat-2" data-name="Chat" d="M5.1,12.847a.487.487,0,0,1,.211-.951A5.527,5.527,0,1,0,6.5.973H6.5A5.527,5.527,0,0,0,1.6,9.055l.125.244a1.274,1.274,0,0,1,.088.964,11.052,11.052,0,0,0-.345,1.061c.365-.11.811-.272,1.133-.389l.132-.048a.487.487,0,0,1,.331.916l-.13.047a15.593,15.593,0,0,1-1.587.514.517.517,0,0,1-.115.012.784.784,0,0,1-.581-.222A.851.851,0,0,1,.431,11.5a.539.539,0,0,1,.012-.1,11.35,11.35,0,0,1,.449-1.46.308.308,0,0,0-.032-.2L.734,9.5A6.5,6.5,0,0,1,6.5,0H6.5A6.5,6.5,0,1,1,5.1,12.847ZM8.587,6.5a.773.773,0,1,1,.773.773A.774.774,0,0,1,8.587,6.5Zm-2.862,0a.773.773,0,1,1,.773.773A.774.774,0,0,1,5.724,6.5Zm-2.862,0a.773.773,0,1,1,.773.773A.773.773,0,0,1,2.862,6.5Z" transform="translate(0 -1)" fill="#fff"/>
  </g>
</svg>
