<svg xmlns="http://www.w3.org/2000/svg" width="16.815" height="14.496" viewBox="0 0 16.815 14.496">
  <path id="home-delivery-icon" d="M0,10.492H8.022v.718H0ZM13.479.958h-.946c-.041,0-.062.036-.073.075l-.137.506c-.011.04.033.075.073.075h.712a1.886,1.886,0,0,0-.094.575,1.771,1.771,0,1,0,3.543,0A1.8,1.8,0,0,0,14.778.365,1.736,1.736,0,0,0,13.479.958ZM16.4,9.881l.41,3.656c-.011,1.159-1.571,1.271-1.74.316l-.3-3.538-.41,3.336a.875.875,0,1,1-1.74-.175l.26-1.505.222-2.529c-.367-.984-.045-1.642-.067-2.794a2.957,2.957,0,0,1-2.169,1.184c-.316-.012-.821-.036-1.137-.071-.386-.044-.657-.027-.9-.376A.678.678,0,0,1,9.448,6.3c.547.049,1.554.174,1.931-.29.391-.374.694-.9,1.2-1.062,2.873-.933,3.586-.568,3.831.46a29.882,29.882,0,0,1,.137,3.12,6.277,6.277,0,0,1-.137,1.351ZM8.649,3.663V5.926a1.263,1.263,0,0,0-.26.274,1.208,1.208,0,0,0-.16.349L7.478,6.1,7.5,2.932l1.149.725Zm.482-1.029,1.141.65-1.485.187-1.04-.655,1.383-.182ZM8.886,5.781V3.694l1.548-.2.051,1.478.547-.369.547.307-.112-1.546.928-.105V4.379a2.833,2.833,0,0,0-.87.777,4.559,4.559,0,0,1-.327.361l-.038.041c-.239.282-1.06.207-1.58.159-.211-.019.274.022-.108-.011a1.017,1.017,0,0,0-.586.078Zm2.427-2.634-1.107-.655.467-.047,1.408.618ZM7.058,10.169V0H.965V10.169ZM2.035,4.926l.646-.289V6.651l-.646-.181V4.926Z" fill="#fff" fill-rule="evenodd"/>
</svg>
