<svg xmlns="http://www.w3.org/2000/svg" width="399.184" height="297.44" viewBox="0 0 399.184 297.44">
  <g id="Forgot_password-rafiki" data-name="Forgot password-rafiki" transform="translate(0 -55)">
    <g id="freepik--background-complete--inject-31" transform="translate(0 55)">
      <rect id="Rectangle_932" data-name="Rectangle 932" width="399.184" height="0.2" transform="translate(0 261.386)" fill="#ebebeb"/>
      <rect id="Rectangle_933" data-name="Rectangle 933" width="20.326" height="0.2" transform="translate(231.694 266.823)" fill="#ebebeb"/>
      <rect id="Rectangle_934" data-name="Rectangle 934" width="48.166" height="0.2" transform="translate(315.443 271.142)" fill="#ebebeb"/>
      <rect id="Rectangle_935" data-name="Rectangle 935" width="49.762" height="0.2" transform="translate(177.605 266.918)" fill="#ebebeb"/>
      <rect id="Rectangle_936" data-name="Rectangle 936" width="10.411" height="0.2" transform="translate(134.924 272.89)" fill="#ebebeb"/>
      <rect id="Rectangle_937" data-name="Rectangle 937" width="47.407" height="0.2" transform="translate(155.45 272.89)" fill="#ebebeb"/>
      <rect id="Rectangle_938" data-name="Rectangle 938" width="30.697" height="0.2" transform="translate(41.882 269.521)" fill="#ebebeb"/>
      <path id="Path_5662" data-name="Path 5662" d="M196.918,280.778H42.761a4.559,4.559,0,0,1-4.551-4.559V59.519A4.559,4.559,0,0,1,42.761,55H196.918a4.559,4.559,0,0,1,4.559,4.559V276.22A4.559,4.559,0,0,1,196.918,280.778ZM42.761,55.16a4.359,4.359,0,0,0-4.351,4.359v216.7a4.359,4.359,0,0,0,4.351,4.359H196.918a4.367,4.367,0,0,0,4.359-4.359V59.519a4.367,4.367,0,0,0-4.359-4.359Z" transform="translate(-7.704 -55)" fill="#ebebeb"/>
      <path id="Path_5663" data-name="Path 5663" d="M413.224,280.778H259.059a4.567,4.567,0,0,1-4.559-4.559V59.519A4.567,4.567,0,0,1,259.059,55H413.224a4.559,4.559,0,0,1,4.543,4.519v216.7A4.559,4.559,0,0,1,413.224,280.778ZM259.059,55.16a4.367,4.367,0,0,0-4.359,4.359v216.7a4.367,4.367,0,0,0,4.359,4.359H413.224a4.367,4.367,0,0,0,4.359-4.359V59.519a4.367,4.367,0,0,0-4.359-4.359Z" transform="translate(-51.315 -55)" fill="#ebebeb"/>
      <path id="Path_5664" data-name="Path 5664" d="M181.759,286.294H128.747L125.53,249.17h53.012Z" transform="translate(-25.311 -94.151)" fill="#e6e6e6"/>
      <path id="Path_5665" data-name="Path 5665" d="M185.2,286.294H132.187L128.97,249.17h53.012Z" transform="translate(-26.004 -94.151)" fill="#f0f0f0"/>
      <path id="Path_5666" data-name="Path 5666" d="M141.632,280.331,139.86,259.15h37.068l1.772,21.181Z" transform="translate(-28.2 -96.163)" fill="#fff"/>
      <rect id="Rectangle_939" data-name="Rectangle 939" width="6.219" height="69.242" transform="translate(162.149 192.143)" fill="#e6e6e6"/>
      <rect id="Rectangle_940" data-name="Rectangle 940" width="4.319" height="69.242" transform="translate(166.013 192.143)" fill="#f0f0f0"/>
      <rect id="Rectangle_941" data-name="Rectangle 941" width="60.205" height="7.64" transform="translate(170.332 199.784) rotate(180)" fill="#f0f0f0"/>
      <rect id="Rectangle_942" data-name="Rectangle 942" width="6.219" height="61.602" transform="translate(106.031 199.784)" fill="#e6e6e6"/>
      <rect id="Rectangle_943" data-name="Rectangle 943" width="4.319" height="61.602" transform="translate(109.895 199.784)" fill="#f0f0f0"/>
      <rect id="Rectangle_944" data-name="Rectangle 944" width="6.219" height="61.602" transform="translate(61.762 199.784)" fill="#e6e6e6"/>
      <rect id="Rectangle_945" data-name="Rectangle 945" width="4.319" height="61.602" transform="translate(65.626 199.784)" fill="#f0f0f0"/>
      <rect id="Rectangle_946" data-name="Rectangle 946" width="6.219" height="61.602" transform="translate(122.789 199.784)" fill="#e6e6e6"/>
      <rect id="Rectangle_947" data-name="Rectangle 947" width="4.319" height="61.602" transform="translate(126.645 199.784)" fill="#f0f0f0"/>
      <rect id="Rectangle_948" data-name="Rectangle 948" width="48.365" height="7.64" transform="translate(61.762 192.143)" fill="#e6e6e6"/>
      <rect id="Rectangle_949" data-name="Rectangle 949" width="187.082" height="104.155" transform="translate(103.397 19.488)" fill="#e0e0e0"/>
      <rect id="Rectangle_950" data-name="Rectangle 950" width="196.415" height="104.155" transform="translate(104.339 19.488)" fill="#f5f5f5"/>
      <rect id="Rectangle_951" data-name="Rectangle 951" width="97.736" height="189.996" transform="translate(297.544 22.698) rotate(90)" fill="#fff"/>
      <path id="Path_5667" data-name="Path 5667" d="M216.119,181.166,251.99,83.43h-59.2L156.92,181.166Z" transform="translate(-31.64 -60.732)" fill="#f5f5f5"/>
      <path id="Path_5668" data-name="Path 5668" d="M291.161,181.166,327.031,83.43H282.371L246.5,181.166Z" transform="translate(-49.702 -60.732)" fill="#f5f5f5"/>
      <rect id="Rectangle_952" data-name="Rectangle 952" width="15.903" height="99.477" transform="translate(333.87 161.909)" fill="#e6e6e6"/>
      <path id="Path_5669" data-name="Path 5669" d="M431.763,380.466h4.183V372.81H427.38Z" transform="translate(-86.173 -119.081)" fill="#fafafa"/>
      <rect id="Rectangle_953" data-name="Rectangle 953" width="15.903" height="99.477" transform="translate(187.241 161.909)" fill="#e6e6e6"/>
      <rect id="Rectangle_954" data-name="Rectangle 954" width="150.277" height="97.409" transform="translate(199.496 161.909)" fill="#fafafa"/>
      <path id="Path_5670" data-name="Path 5670" d="M398.034,290.222H253.45V262.71H398.034Zm-143.786-.8H397.236V263.508H254.248Z" transform="translate(-51.104 -96.881)" fill="#e6e6e6"/>
      <path id="Path_5671" data-name="Path 5671" d="M376.827,276.938H285.949c-4.215,0-8.279-3.4-11.177-9.341l-.271-.567H388.267L388,267.6C385.074,273.537,381.082,276.938,376.827,276.938ZM275.809,267.8c2.7,5.293,6.387,8.311,10.139,8.311h90.878c3.768,0,7.441-3.018,10.139-8.311Z" transform="translate(-55.348 -97.752)" fill="#e6e6e6"/>
      <path id="Path_5672" data-name="Path 5672" d="M254.063,380.466H249.88V372.81h8.566Z" transform="translate(-50.384 -119.081)" fill="#fafafa"/>
      <path id="Path_5673" data-name="Path 5673" d="M398.034,329.06H253.45V301.58H398.034Zm-143.786-.8H397.236V302.378H254.248Z" transform="translate(-51.104 -104.718)" fill="#e6e6e6"/>
      <path id="Path_5674" data-name="Path 5674" d="M376.827,315.806H285.949c-4.215,0-8.279-3.409-11.177-9.341l-.271-.575H388.267l-.271.575C385.074,312.365,381.082,315.806,376.827,315.806Zm-101.018-9.117c2.7,5.293,6.387,8.319,10.139,8.319h90.878c3.768,0,7.441-3.026,10.139-8.319Z" transform="translate(-55.348 -105.587)" fill="#e6e6e6"/>
      <path id="Path_5675" data-name="Path 5675" d="M398.034,367.952H253.45V340.44H398.034Zm-143.786-.8H397.236V341.238H254.248Z" transform="translate(-51.104 -112.554)" fill="#e6e6e6"/>
      <path id="Path_5676" data-name="Path 5676" d="M376.827,354.668H285.949c-4.215,0-8.279-3.4-11.177-9.333l-.271-.575H388.267l-.271.575C385.074,351.267,381.082,354.668,376.827,354.668Zm-101.018-9.109c2.7,5.293,6.387,8.311,10.139,8.311h90.878c3.768,0,7.441-3.018,10.139-8.311Z" transform="translate(-55.348 -113.425)" fill="#e6e6e6"/>
      <path id="Path_5677" data-name="Path 5677" d="M116.044,274.28v1.932h-1.229l-1.022,15.145H98.751l-1.014-15.145H96.5V274.28Z" transform="translate(-19.457 -99.214)" fill="#e6e6e6"/>
      <path id="Path_5678" data-name="Path 5678" d="M102.591,222.806c-1.229-9.022-13.4-11.592-28.853-11.928-14.7-.311-19.408-5.509-19.408-5.509s.048,21.053,21.229,28.685C95.67,241.289,103.829,231.844,102.591,222.806Z" transform="translate(-10.955 -85.319)" fill="#e6e6e6"/>
      <path id="Path_5679" data-name="Path 5679" d="M105.371,250.162c.255-3.7,6.179-10.522,20.43-7.425,10.3,2.243,14.131-3.1,14.131-3.1s-.958,15.073-16.446,19.6C108.772,263.543,104.916,256.693,105.371,250.162Z" transform="translate(-21.239 -92.229)" fill="#e6e6e6"/>
      <path id="Path_5680" data-name="Path 5680" d="M108.427,269.932a.551.551,0,0,0,.423-.192c1.03-1.221.184-4.144-.982-8.191-1.5-5.189-3.369-11.656-1.788-16.343a65.737,65.737,0,0,1,3.066-7.249c2.235-4.726,4.167-8.782,2.555-13.077a.551.551,0,1,0-1.03.391c1.445,3.824-.3,7.529-2.523,12.223a68.33,68.33,0,0,0-3.114,7.361c-1.685,5.014.232,11.664,1.772,17,.91,3.193,1.852,6.387,1.206,7.185a.543.543,0,0,0,.064.8A.527.527,0,0,0,108.427,269.932Z" transform="translate(-21.046 -89.182)" fill="#e6e6e6"/>
    </g>
    <g id="freepik--Shadow--inject-31" transform="translate(44.796 334.365)">
      <ellipse id="freepik--path--inject-31" cx="154.796" cy="9.038" rx="154.796" ry="9.038" fill="#f5f5f5"/>
    </g>
    <g id="freepik--Login--inject-31" transform="translate(79.988 111.357)">
      <path id="Path_5681" data-name="Path 5681" d="M219.762,315H106.393l-6.2-182.323H213.558Z" transform="translate(-100.19 -127.02)" fill="#56a8b7"/>
      <path id="Path_5682" data-name="Path 5682" d="M226.85,307.913H113.481L107.27,125.59H220.638Z" transform="translate(-101.618 -125.59)" fill="#8cadfd"/>
      <path id="Path_5683" data-name="Path 5683" d="M226.85,307.913H113.481L107.27,125.59H220.638Z" transform="translate(-101.618 -125.59)" fill="#85dae9"/>
      <ellipse id="Ellipse_336" data-name="Ellipse 336" cx="31.352" cy="32.438" rx="31.352" ry="32.438" transform="matrix(0.701, -0.713, 0.713, 0.701, 19.004, 51.903)" fill="#fd9f00"/>
      <path id="Path_5684" data-name="Path 5684" d="M200.171,184.436a25.548,25.548,0,0,1-2.754,12.534,25.22,25.22,0,0,1-22.674,13.78,27.352,27.352,0,0,1-23.6-13.78,26.738,26.738,0,0,1-3.609-12.534,25.26,25.26,0,0,1,25.42-26.346A27.432,27.432,0,0,1,200.171,184.436Z" transform="translate(-109.731 -132.143)" fill="#fff"/>
      <path id="Path_5685" data-name="Path 5685" d="M198.313,205.018A25.221,25.221,0,0,1,175.64,218.8a27.352,27.352,0,0,1-23.6-13.78A40.389,40.389,0,0,1,174.953,198a42.7,42.7,0,0,1,23.36,7.018Z" transform="translate(-110.645 -140.19)" fill="#fd9f00"/>
      <ellipse id="Ellipse_337" data-name="Ellipse 337" cx="11.528" cy="11.928" rx="11.528" ry="11.928" transform="matrix(0.701, -0.713, 0.713, 0.701, 47.224, 43.134)" fill="#fd9f00"/>
      <path id="Path_5686" data-name="Path 5686" d="M210.133,267.631H137.817l-.487-14.371h72.316Z" transform="translate(-107.679 -151.332)" fill="#fff"/>
      <path id="Path_5687" data-name="Path 5687" d="M211.231,299.8H138.907l-.487-14.371h72.324Z" transform="translate(-107.898 -157.819)" fill="#fff"/>
      <path id="Path_5688" data-name="Path 5688" d="M189.987,287.907l-17.428,2.4a1.214,1.214,0,0,0-1.054,1.437l2.291,11.68a1.405,1.405,0,0,0,1.549,1.094l17.428-2.4a1.222,1.222,0,0,0,1.046-1.445l-2.283-11.68a1.4,1.4,0,0,0-1.549-1.086Zm-5.006,11.832-3.193.423-.311-3.768a2.235,2.235,0,0,1-1.3-1.6,1.988,1.988,0,0,1,1.724-2.4,2.283,2.283,0,0,1,2.523,1.78,1.956,1.956,0,0,1-.623,1.86Z" transform="translate(-114.565 -158.316)" fill="#fd9f00"/>
      <path id="Path_5689" data-name="Path 5689" d="M188.441,284.687h0a1.245,1.245,0,0,1-1.373-.966l-.224-1.142a6.571,6.571,0,0,0-6.882-5.237,5.589,5.589,0,0,0-5.157,6.7l.255,1.317a1.07,1.07,0,0,1-.934,1.277h0a1.229,1.229,0,0,1-1.373-.966l-.216-1.11a7.864,7.864,0,0,1,6.387-9.381,8.942,8.942,0,0,1,10.219,6.922l.255,1.309a1.07,1.07,0,0,1-.958,1.277Z" transform="translate(-114.743 -155.727)" fill="#fd9f00"/>
      <path id="Path_5690" data-name="Path 5690" d="M202.7,326.277h-47.08l-.311-9.357h47.072Z" transform="translate(-111.304 -164.168)" fill="#fd9f00"/>
      <path id="Path_5691" data-name="Path 5691" d="M184.891,261.6a2.523,2.523,0,0,1-2.539,2.627,2.746,2.746,0,0,1-2.722-2.627,2.523,2.523,0,0,1,2.539-2.627A2.738,2.738,0,0,1,184.891,261.6Z" transform="translate(-116.207 -152.484)" fill="#263238"/>
      <path id="Path_5692" data-name="Path 5692" d="M170.673,261.6a2.515,2.515,0,0,1-2.539,2.627,2.738,2.738,0,0,1-2.714-2.627,2.523,2.523,0,0,1,2.539-2.627,2.73,2.73,0,0,1,2.714,2.627Z" transform="translate(-113.342 -152.484)" fill="#263238"/>
      <path id="Path_5693" data-name="Path 5693" d="M156.543,261.6A2.523,2.523,0,0,1,154,264.223a2.73,2.73,0,0,1-2.714-2.627,2.523,2.523,0,0,1,2.539-2.627A2.73,2.73,0,0,1,156.543,261.6Z" transform="translate(-110.493 -152.484)" fill="#263238"/>
      <path id="Path_5694" data-name="Path 5694" d="M199.063,261.6a2.523,2.523,0,0,1-2.539,2.627,2.73,2.73,0,0,1-2.714-2.627,2.515,2.515,0,0,1,2.547-2.6A2.73,2.73,0,0,1,199.063,261.6Z" transform="translate(-119.066 -152.49)" fill="#263238"/>
      <path id="Path_5695" data-name="Path 5695" d="M213.233,261.6a2.515,2.515,0,0,1-2.539,2.627,2.738,2.738,0,0,1-2.714-2.627,2.523,2.523,0,0,1,2.539-2.627,2.73,2.73,0,0,1,2.714,2.627Z" transform="translate(-121.923 -152.484)" fill="#263238"/>
    </g>
    <g id="freepik--Character--inject-31" transform="translate(220.606 112.922)">
      <path id="Path_5696" data-name="Path 5696" d="M332.069,174.28c1.062,1.708,1.948,3.337,2.858,5.038s1.732,3.409,2.539,5.157a73.733,73.733,0,0,1,4.072,10.962c.144.471.247.974.367,1.461l.176.742.088.367.1.607a10.922,10.922,0,0,1-.247,4.12,23.345,23.345,0,0,1-2.491,5.948,47.279,47.279,0,0,1-7.09,9.285l-3.361-2.539a88.939,88.939,0,0,0,4.495-9.58,19.848,19.848,0,0,0,1.221-4.495,3.56,3.56,0,0,0-.064-1.413l-.319-.974c-.128-.4-.247-.8-.4-1.206a90.541,90.541,0,0,0-4.207-9.644c-1.6-3.193-3.313-6.387-5.03-9.437Z" transform="translate(-286.092 -136.972)" fill="#ff8b7b"/>
      <path id="Path_5697" data-name="Path 5697" d="M330.312,224.43l-3.672,1.94,4.215,4.934s2.635-1.78,2.754-4.495Z" transform="translate(-286.467 -147.084)" fill="#ff8b7b"/>
      <path id="Path_5698" data-name="Path 5698" d="M320.47,229.9l4.511,3.585,4.631-1.693L325.4,226.86Z" transform="translate(-285.223 -147.574)" fill="#ff8b7b"/>
      <path id="Path_5699" data-name="Path 5699" d="M300.878,141.326c-.088.447-.4.758-.687.7s-.455-.471-.367-.91.4-.8.695-.7S300.966,140.879,300.878,141.326Z" transform="translate(-281.055 -130.141)" fill="#263238"/>
      <path id="Path_5700" data-name="Path 5700" d="M299.97,142.52a16.174,16.174,0,0,1-2.89,3.369,2.627,2.627,0,0,0,2.044.8Z" transform="translate(-280.506 -130.568)" fill="#ff5652"/>
      <path id="Path_5701" data-name="Path 5701" d="M298.9,160.817V155.58l6.93.8s-.112,4.5-3.992,5.828Z" transform="translate(-280.873 -133.202)" fill="#ff8b7b"/>
      <path id="Path_5702" data-name="Path 5702" d="M300.9,150.86l4.878,1.405.088,3.2-6.93-.838Z" transform="translate(-280.882 -132.25)" fill="#ff8b7b"/>
      <path id="Path_5703" data-name="Path 5703" d="M306.038,152.265l-4.878-1.405-.95,1.82a7.768,7.768,0,0,0,4.5,6.77,7.632,7.632,0,0,0,1.413-3.992Z" transform="translate(-281.138 -132.25)" opacity="0.2"/>
      <path id="Path_5704" data-name="Path 5704" d="M303.232,138.551a.271.271,0,0,0,.2-.447,2.651,2.651,0,0,0-2.267-.878.263.263,0,0,0-.216.3.271.271,0,0,0,.3.224h0a2.1,2.1,0,0,1,1.788.711.271.271,0,0,0,.192.088Z" transform="translate(-281.286 -129.498)" fill="#263238"/>
      <path id="Path_5705" data-name="Path 5705" d="M313.471,151.68c-.8,4.112-1.293,9.8,1.6,12.542,0,0-1.118,4.167-8.782,4.167-8.391,0-4.032-3.657-4.032-3.657,3.489-1.086,3.457-5.054,2.659-8.247Z" transform="translate(-281.322 -132.415)" fill="#ff8b7b"/>
      <path id="Path_5706" data-name="Path 5706" d="M316.7,169.385c.75-1.054.719-4.4-.08-4.99-1.285-.95-6.8-1.174-14.219.535a5.219,5.219,0,0,1-.918,4.934Z" transform="translate(-281.394 -134.831)" fill="#d19655"/>
      <path id="Path_5707" data-name="Path 5707" d="M351.4,407.939a1.828,1.828,0,0,1-1.405-.08.543.543,0,0,1-.128-.615.615.615,0,0,1,.343-.391c.758-.367,2.5.343,2.579.375a.128.128,0,0,1,.08.12.152.152,0,0,1-.072.128A7.849,7.849,0,0,1,351.4,407.939Zm-.918-.9a.671.671,0,0,0-.152.056.335.335,0,0,0-.208.224c-.072.24,0,.319.048.343.3.255,1.421,0,2.211-.3A4.383,4.383,0,0,0,350.483,407.037Z" transform="translate(-291.141 -183.845)" fill="#8cadfd"/>
      <path id="Path_5708" data-name="Path 5708" d="M352.986,407.1h-.064c-.639-.184-2-1.15-2.012-1.78a.439.439,0,0,1,.343-.431.687.687,0,0,1,.583.048c.75.383,1.229,1.932,1.245,2a.128.128,0,0,1,0,.128A.112.112,0,0,1,352.986,407.1Zm-1.6-1.988h-.064c-.16.056-.16.136-.16.176,0,.375.91,1.134,1.6,1.437a3.324,3.324,0,0,0-1.022-1.6.463.463,0,0,0-.343-.016Z" transform="translate(-291.36 -183.462)" fill="#8cadfd"/>
      <path id="Path_5709" data-name="Path 5709" d="M299.421,409.078c-.719,0-1.413-.1-1.645-.423a.5.5,0,0,1,0-.583.663.663,0,0,1,.423-.311c.934-.255,2.9.862,2.978.91a.12.12,0,0,1,.064.136.128.128,0,0,1-.1.112,9.74,9.74,0,0,1-1.716.16Zm-.886-1.094a.8.8,0,0,0-.255,0,.407.407,0,0,0-.263.184c-.1.168-.056.247,0,.3.263.367,1.677.375,2.722.224a6.076,6.076,0,0,0-2.2-.7Z" transform="translate(-280.628 -184.042)" fill="#8cadfd"/>
      <path id="Path_5710" data-name="Path 5710" d="M301.5,408.581h-.056c-.679-.3-2.02-1.517-1.916-2.156,0-.152.128-.335.495-.367a.958.958,0,0,1,.735.224,3.816,3.816,0,0,1,.878,2.164.16.16,0,0,1-.056.12.152.152,0,0,1-.08.016Zm-1.373-2.275h-.08c-.24,0-.255.112-.255.144-.064.383.846,1.341,1.541,1.756a3.09,3.09,0,0,0-.742-1.732.7.7,0,0,0-.471-.168Z" transform="translate(-280.999 -183.705)" fill="#8cadfd"/>
      <path id="Path_5711" data-name="Path 5711" d="M308.161,405.775h-5.613l-.559-13.005H307.6Z" transform="translate(-281.496 -181.027)" fill="#ff8b7b"/>
      <path id="Path_5712" data-name="Path 5712" d="M358.572,402.741l-5.485,1.19L347.57,391.82l5.493-1.19Z" transform="translate(-290.687 -180.595)" fill="#ff8b7b"/>
      <path id="Path_5713" data-name="Path 5713" d="M351.794,406.261l6.171-1.333a.487.487,0,0,1,.543.271l2.14,4.647a.8.8,0,0,1-.591,1.15c-2.156.423-3.233.527-5.94,1.11-1.669.367-5.437,1.285-7.744,1.78s-3.1-1.716-2.2-2.124c4.032-1.844,5.708-3.465,6.8-4.974A1.365,1.365,0,0,1,351.794,406.261Z" transform="translate(-289.93 -183.476)" fill="#263238"/>
      <path id="Path_5714" data-name="Path 5714" d="M299.317,408.24h6.131a.5.5,0,0,1,.479.383l1.11,4.99a.8.8,0,0,1-.8,1.006c-2.211-.04-5.4-.168-8.183-.168-3.257,0-6.06.176-9.876.176-2.307,0-2.946-2.331-1.98-2.547,4.391-.958,7.984-1.062,11.776-3.4a2.611,2.611,0,0,1,1.341-.439Z" transform="translate(-278.225 -184.146)" fill="#263238"/>
      <path id="Path_5715" data-name="Path 5715" d="M329.383,168.961c5.261,1.206,9.58,14.642,9.58,14.642l-10.515,8.04a23.1,23.1,0,0,1-5.589-10.379C321,174.222,324,167.716,329.383,168.961Z" transform="translate(-285.593 -135.869)" fill="#8cadfd"/>
      <path id="Path_5716" data-name="Path 5716" d="M329.383,168.961c5.261,1.206,9.58,14.642,9.58,14.642l-10.515,8.04a23.1,23.1,0,0,1-5.589-10.379C321,174.222,324,167.716,329.383,168.961Z" transform="translate(-285.593 -135.869)" fill="#d19655"/>
      <path id="Path_5717" data-name="Path 5717" d="M292.431,183.037c-1.309,1.413-2.619,2.675-3.992,3.992-.679.639-1.365,1.277-2.068,1.892l-1.062.934-.263.232-.455.367a6.388,6.388,0,0,1-1.541.91,5.022,5.022,0,0,1-1.948.4,4.79,4.79,0,0,1-1.677-.3,4.719,4.719,0,0,1-1.6-1.014,4.79,4.79,0,0,1-1.245-2.068,5.439,5.439,0,0,1-.232-1.19,8.066,8.066,0,0,1,0-1.421c.04-.383.088-.719.152-1.03a19.767,19.767,0,0,1,.926-3.193,28.589,28.589,0,0,1,1.237-2.89c.511-1.014,1-1.756,1.485-2.6a65.189,65.189,0,0,1,6.746-9.149,61.81,61.81,0,0,1,8.183-7.76l2.938,3.026c-2.06,2.762-4.088,5.724-5.964,8.638a93.619,93.619,0,0,0-5.109,8.982c-.343.75-.8,1.6-1.014,2.2a21.419,21.419,0,0,0-.742,2.156,13.932,13.932,0,0,0-.455,2.012,3.14,3.14,0,0,0,0,.319v-.072a2.221,2.221,0,0,0-.1-.527,3.425,3.425,0,0,0-.918-1.485,3.912,3.912,0,0,0-1.317-.8,3.816,3.816,0,0,0-1.341-.247,3.257,3.257,0,0,0-1.285.247,2.939,2.939,0,0,0-.4.2l.3-.279.966-.878,1.908-1.788c1.261-1.19,2.531-2.459,3.728-3.641Z" transform="translate(-276.321 -133.922)" fill="#ff8b7b"/>
      <path id="Path_5718" data-name="Path 5718" d="M324.931,181.36c2.858,2.826,3.792,7.984,3.992,12.455l-.463.359a23.1,23.1,0,0,1-5.589-10.379c-.1-.415-.2-.8-.271-1.253Z" transform="translate(-285.652 -138.4)" opacity="0.2"/>
      <path id="Path_5719" data-name="Path 5719" d="M289.267,174.212c-1.15,6.068-1.868,18.53,1.461,43.2h30.067c.208-4.607-2.69-27.1,1.756-48.828a79.036,79.036,0,0,0-10.059-1.269,111.554,111.554,0,0,0-12.774,0c-1.405.128-2.794.335-3.992.551A7.984,7.984,0,0,0,289.267,174.212Z" transform="translate(-278.737 -135.531)" fill="#8cadfd"/>
      <path id="Path_5720" data-name="Path 5720" d="M289.267,174.212c-1.15,6.068-1.868,18.53,1.461,43.2h30.067c.208-4.607-2.69-27.1,1.756-48.828a79.036,79.036,0,0,0-10.059-1.269,111.554,111.554,0,0,0-12.774,0c-1.405.128-2.794.335-3.992.551A7.984,7.984,0,0,0,289.267,174.212Z" transform="translate(-278.737 -135.531)" fill="#fd9f00"/>
      <path id="Path_5721" data-name="Path 5721" d="M293.867,186.941l-5.429-1.3c-.168,3.289-.184,7.361.056,12.4C290.993,195.2,294.187,190.758,293.867,186.941Z" transform="translate(-278.739 -139.263)" opacity="0.2"/>
      <path id="Path_5722" data-name="Path 5722" d="M301.99,392.77l.287,6.706H307.9l-.287-6.706Z" transform="translate(-281.496 -181.027)" opacity="0.2"/>
      <path id="Path_5723" data-name="Path 5723" d="M353.063,390.63l-5.493,1.19,2.842,6.243,5.493-1.19Z" transform="translate(-290.687 -180.595)" opacity="0.2"/>
      <path id="Path_5724" data-name="Path 5724" d="M315.708,141.728c-1.437,5.381-2.012,8.606-5.333,10.842-4.99,3.4-11.217-.495-11.377-6.179-.176-5.133,2.211-13.077,7.984-14.163a7.6,7.6,0,0,1,8.726,9.5Z" transform="translate(-280.891 -128.467)" fill="#ff8b7b"/>
      <path id="Path_5725" data-name="Path 5725" d="M303.939,142.288c-.271-.719-1.509-6.283-.343-7.728s14.458-.4,16.422,1.533c3.265,3.193,1,6.068-2.571,9.764-2.683,2.778-2.786,5.908-4.144,6.387-2.4.8-6.052.048-6.786-2.483S303.939,142.288,303.939,142.288Z" transform="translate(-281.721 -128.827)" fill="#263238"/>
      <path id="Path_5726" data-name="Path 5726" d="M317.658,128.484c-4.694-2-13.5.216-18.259-.934a7.329,7.329,0,0,0,6.076,7.473,62.794,62.794,0,0,0,11.976,1.11C322.671,135.893,321.649,130.185,317.658,128.484Z" transform="translate(-280.973 -127.55)" fill="#263238"/>
      <path id="Path_5727" data-name="Path 5727" d="M323.19,136.62a8.95,8.95,0,0,0,4.974-.95C329.042,137.794,324.212,138.376,323.19,136.62Z" transform="translate(-285.771 -129.187)" fill="#263238"/>
      <path id="Path_5728" data-name="Path 5728" d="M306.248,144.1a6.315,6.315,0,0,1-1.6,3.728c-1.229,1.349-2.507.5-2.722-1.134-.192-1.485.208-3.992,1.709-4.71S306.352,142.432,306.248,144.1Z" transform="translate(-281.475 -130.417)" fill="#ff8b7b"/>
      <path id="Path_5729" data-name="Path 5729" d="M304.69,230.136s6.387,42.912,9.876,58.991c3.824,17.6,24.374,75.845,24.374,75.845l10.051-2.18s-14.371-47.471-17.564-72.085c-2.475-18.905-7.337-60.588-7.337-60.588Z" transform="translate(-282.041 -148.231)" fill="#585d5e"/>
      <path id="Path_5730" data-name="Path 5730" d="M344.57,394.281c-.04,0,1.876,3.641,1.876,3.641l11.3-2.451-.95-3.4Z" transform="translate(-290.082 -180.886)" fill="#263238"/>
      <path id="Path_5731" data-name="Path 5731" d="M309.321,249.275c7.369,1.445,6.587,28.925,5.7,43.064-2.124-10-5.237-29.22-7.361-42.864A2.515,2.515,0,0,1,309.321,249.275Z" transform="translate(-282.64 -152.081)" opacity="0.3"/>
      <path id="Path_5732" data-name="Path 5732" d="M291.237,230.132s-.8,41.986-.16,59.079c.639,17.812,6.858,76.132,6.858,76.132h9.517s.343-57.283.8-74.775c.463-19.065,2.762-60.468,2.762-60.468Z" transform="translate(-279.246 -148.227)" fill="#585d5e"/>
      <path id="Path_5733" data-name="Path 5733" d="M297.439,394.8c-.048,0,.535,3.944.535,3.944h11.568l.319-3.521Z" transform="translate(-280.578 -181.436)" fill="#263238"/>
      <path id="Path_5734" data-name="Path 5734" d="M299.205,176.281c2.69,7.257-13.125,15.808-13.125,15.808l-6.85-8.782s4.607-9.117,10.2-13.221C296.331,165.024,297.153,170.757,299.205,176.281Z" transform="translate(-276.907 -135.732)" fill="#8cadfd"/>
      <path id="Path_5735" data-name="Path 5735" d="M299.205,176.281c2.69,7.257-13.125,15.808-13.125,15.808l-6.85-8.782s4.607-9.117,10.2-13.221C296.331,165.024,297.153,170.757,299.205,176.281Z" transform="translate(-276.907 -135.732)" fill="#d19655"/>
    </g>
    <g id="freepik--Thinking--inject-31" transform="translate(262.471 61.65)">
      <ellipse id="Ellipse_338" data-name="Ellipse 338" cx="28.813" cy="18.362" rx="28.813" ry="18.362" transform="translate(13.588)" fill="#85dae9"/>
      <path id="Path_5736" data-name="Path 5736" d="M366.823,93.826a8.071,8.071,0,0,1-7.928-6.7,8.159,8.159,0,0,1,6.155-9.2h0a8.032,8.032,0,0,1,8.638,3.609l18.5-3.816a2.89,2.89,0,0,1,3.385,1.988,2.786,2.786,0,0,1-2.132,3.441l-.479.1a.471.471,0,0,0-.335.247.5.5,0,0,0,0,.415l.327.846a1.269,1.269,0,0,1-.495,1.541,1.517,1.517,0,0,0-.711,1.126,1.253,1.253,0,0,1-.966,1.11l-.375.08a1.245,1.245,0,0,1-1.325-.639,1.557,1.557,0,0,0-2.882.6,1.237,1.237,0,0,1-.958,1.1l-.375.08a1.254,1.254,0,0,1-1.325-.639,1.6,1.6,0,0,0-1.11-.75,1.269,1.269,0,0,1-1.118-1.253V86.2a.5.5,0,0,0-.591-.463l-5.9,1.214a8.04,8.04,0,0,1-6.347,6.706A8.27,8.27,0,0,1,366.823,93.826Zm-1.6-15.169a7.353,7.353,0,0,0-5.589,8.319,7.273,7.273,0,0,0,14.371-.415v-.287l6.507-1.317a1.293,1.293,0,0,1,1.6,1.214v.91a.471.471,0,0,0,.383.455,2.323,2.323,0,0,1,1.685,1.142.463.463,0,0,0,.471.255l.367-.08a.447.447,0,0,0,.335-.415,2.355,2.355,0,0,1,4.391-.926.455.455,0,0,0,.463.255l.383-.08a.447.447,0,0,0,.327-.415,2.315,2.315,0,0,1,1.094-1.716.487.487,0,0,0,.168-.575l-.327-.846a1.285,1.285,0,0,1,.942-1.724l.487-.1a2,2,0,0,0,1.525-2.451,2.084,2.084,0,0,0-2.459-1.413l-19.017,3.952-.144-.247a7.185,7.185,0,0,0-7.92-3.473Zm1.6,12.2a4.909,4.909,0,1,1,1.038-.064h0a5.086,5.086,0,0,1-1.03.08Zm0-9.429a4.791,4.791,0,0,0-.886.088,4.33,4.33,0,0,0,1.8,8.471h0a4.319,4.319,0,0,0,1.5-7.832,4.247,4.247,0,0,0-2.387-.711Z" transform="translate(-334.816 -66.218)" fill="#fff"/>
      <ellipse id="Ellipse_339" data-name="Ellipse 339" cx="9.469" cy="6.036" rx="9.469" ry="6.036" transform="translate(9.485 35.424)" fill="#85dae9" opacity="0.6"/>
      <ellipse id="Ellipse_340" data-name="Ellipse 340" cx="3.888" cy="2.475" rx="3.888" ry="2.475" transform="translate(0 45.02)" fill="#85dae9" opacity="0.3"/>
    </g>
  </g>
</svg>
