<svg id="forklift-icon" xmlns="http://www.w3.org/2000/svg" width="51.407" height="32.711" viewBox="0 0 51.407 32.711">
  <path id="Path_7855" data-name="Path 7855" d="M28.352,24.206a4.188,4.188,0,1,1-4.188,4.188,4.187,4.187,0,0,1,4.188-4.188Zm7.664-15.45h5.69a.532.532,0,0,1,.531.531v5.949a.532.532,0,0,1-.531.531h-5.69a.532.532,0,0,1-.531-.531V9.287a.532.532,0,0,1,.531-.531ZM43.885,0h5.953a.532.532,0,0,1,.531.531V6.484a.535.535,0,0,1-.531.531H43.885a.535.535,0,0,1-.531-.531V.531A.532.532,0,0,1,43.885,0ZM36.016,0h5.69a.532.532,0,0,1,.531.531V6.484a.532.532,0,0,1-.531.531h-5.69a.532.532,0,0,1-.531-.531V.531A.532.532,0,0,1,36.016,0Zm7.869,8.756h5.953a.532.532,0,0,1,.531.531v5.949a.535.535,0,0,1-.531.531H43.885a.535.535,0,0,1-.531-.531V9.287a.532.532,0,0,1,.531-.531Zm-14.2-5.5H33.15V7.334H33.8c-.167,3.669-.255,7.237.582,9.635H51.407V19.88H33.154v1.866h-.067l1.531.075v7.593H33.405a5.044,5.044,0,0,0,.1-.979,5.125,5.125,0,1,0-10.25,0,5.012,5.012,0,0,0,.1.979H11.467a4.557,4.557,0,0,0,.038-.59,4.836,4.836,0,1,0-9.672,0,4.557,4.557,0,0,0,.038.59H.837A5.113,5.113,0,0,1,0,26.917v-11.7H7.141a.317.317,0,0,1,0-.063L7.911,5.28H7.417a.858.858,0,0,1,0-1.715h5.832c3.815,0,5.924.368,7.472,1.648,1.527,1.268,2.322,3.28,3.556,6.622l3.1,8.388.008.025,1.058,1.263,1.247.063V3.255Zm-5.568,13.1-1.452-3.928c-1.134-3.066-1.849-4.907-3.041-5.895C18.449,5.56,16.634,5.28,13.249,5.28H9.63l-.778,10a1.128,1.128,0,0,1-.017.117l-.4,5.192,9.22,4.865,4.33.059a7.83,7.83,0,0,1,.594-1.217l-4.535-.013-6.986-3.677-.389-.251-.293-6.865a.381.381,0,0,1,.385-.385h1.251c1.23,0,1.636,2.594,1.636,4h2.1c2.832,0,2.443,2.753,2.443,4.686v.565l5.024.146L19.3,15.839l.879-.59-.577-.866.9-.644.623.874.975-.653,2.016,2.393Zm-.682,6.853c.042-.042.084-.084.13-.126l-.088-.151-.042.276Zm-5.782-9.438,3.133-2.125.59.849-3.146,2.1-.577-.824Zm10.7,12.3a2.326,2.326,0,1,1-2.326,2.326,2.326,2.326,0,0,1,2.326-2.326ZM6.66,24.938a3.886,3.886,0,1,1-3.886,3.886A3.887,3.887,0,0,1,6.66,24.938Zm0,1.728A2.159,2.159,0,1,1,4.5,28.824,2.159,2.159,0,0,1,6.66,26.666Z" fill="#85dae9" fill-rule="evenodd"/>
</svg>
