<?xml version="1.0" encoding="utf-8"?>
<!-- Created by UniConvertor 2.0rc5 (https://sk1project.net/) -->
<svg xmlns="http://www.w3.org/2000/svg" height="345.705px" width="384.691px" version="1.1" xmlns:xlink="http://www.w3.org/1999/xlink" id="1164cc5c-c34a-11ed-9a40-0242ac150005">

<g>
	<g>
		<path style="fill:#f4f7fa;" d="M 322.768,287.58 C 306.29,283.509 286.2,280.382 264.0,278.257 241.506,276.103 217.128,275.004 192.528,274.983 167.9,274.962 143.362,276.018 120.585,278.144 98.066,280.244 77.546,283.355 60.577,287.427 44.0,291.405 32.521,295.891 25.866,300.55 19.397,305.079 17.508,309.757 19.866,314.3 22.157,318.712 28.457,323.0 38.479,326.92 48.237,330.738 61.558,334.22 78.261,337.169 94.613,340.053 112.811,342.169 131.774,343.563 150.532,344.938 170.226,345.613 189.831,345.6 209.42,345.587 229.115,344.886 247.899,343.49 266.857,342.08 285.081,339.947 301.505,337.058 318.258,334.112 331.687,330.636 341.605,326.836 351.787,322.936 358.32,318.679 360.91,314.3 363.576,309.792 362.068,305.148 356.035,300.649 349.831,296.018 338.843,291.552 322.768,287.58 Z" />
		<path style="fill-opacity:0.49;fill:#85dae9;" d="M 313.741,273.219 C 307.3932,279.6798 300.3602,285.4285 292.7451,290.3538 236.671,327.774 173.106,317.073 153.455,313.416 121.749,307.516 94.986,303.352 71.992,282.577 19.74,235.37 22.282,136.894 62.208,75.892 66.942,68.658 106.808,9.565 170.508,1.239 172.066,1.039 173.229,0.919 174.246,0.812 184.1,-0.231 245.164,-5.737 294.954,35.978 306.2231,45.5026 315.8957,56.426 323.8354,68.5833 363.078,129.21 363.201,222.237 313.741,273.219 Z" />
		<path style="fill:#e0e0e0;" d="M 318.621,133.862 C 318.3401,133.3875 318.0892,132.839 317.8976,132.2633 317.1929,130.6404 316.3268,129.295 315.2835,128.1092 314.5664,127.2999 313.7613,126.5675 312.8841,125.9281 311.8795,125.1999 310.7791,124.5962 309.6054,124.1394 308.9653,123.8869 308.3103,123.6829 307.6362,123.5294 306.9392,123.3653 306.219,123.2534 305.4827,123.1996 305.1073,123.1696 304.7225,123.154 304.334,123.154 303.9455,123.154 303.5607,123.1696 303.18,123.2003 301.6102,123.3257 300.1116,123.7019 298.7237,124.2888 298.0511,124.5736 297.404,124.9086 296.7878,125.2888 295.6211,126.0105 294.5646,126.8921 293.6484,127.9032 292.8179,128.8216 292.1009,129.8452 291.52,130.9515 291.0151,131.9187 290.6129,132.9497 290.3284,134.0284 290.0029,135.2823 289.8294,136.6023 289.8294,137.9627 289.8294,138.3069 289.8405,138.6484 289.8624,138.987 289.9278,139.335 289.9666,139.7885 289.9666,140.2511 289.9666,140.4276 289.9609,140.6029 289.9498,140.7766 289.6647,140.2434 289.4744,139.6436 289.4211,139.0049 289.3016,138.3158 289.2339,137.541 289.2339,136.7504 289.2339,135.761 289.34,134.7963 289.5413,133.867 289.7909,132.6933 290.1752,131.5783 290.678,130.5309 291.2624,129.3271 292.001,128.2125 292.8684,127.2128 294.3423,125.5175 296.1913,124.1562 298.286,123.2584 299.7777,122.6182 301.3941,122.2107 303.0882,122.0821 303.4693,122.0534 303.8541,122.0388 304.2423,122.0388 305.5029,122.0388 306.7277,122.1928 307.8987,122.4829 308.6133,122.6591 309.3116,122.8902 309.9842,123.1706 312.3089,124.1277 314.3349,125.6563 315.8895,127.5814 316.9323,128.8669 317.7441,130.3426 318.2649,131.9493 318.502,132.533 318.6242,133.1007 318.6242,133.697 318.6242,133.755 318.623,133.8128 318.6207,133.8702 Z" />
		<path style="fill:#e0e0e0;" d="M 307.696,145.582 L 308.255,148.092 306.018,148.592 305.473,146.154 C 304.8634,146.2753 304.1628,146.3447 303.4461,146.3447 302.0275,146.3447 300.6724,146.0728 299.43,145.5781 L 300.124,142.597 C 301.1642,143.0372 302.3733,143.2932 303.642,143.2932 304.0565,143.2932 304.4647,143.2658 304.8648,143.2129 L 303.986,139.48 C 301.367,139.427 298.408,139.217 297.695,136.019 297.169,133.648 298.436,131.225 301.882,130.034 L 301.328,127.548 303.565,127.048 304.11,129.491 C 304.6185,129.4025 305.2037,129.352 305.8007,129.352 306.9282,129.352 308.0137,129.5324 309.0298,129.8659 L 308.45,132.845 C 307.6034,132.5666 306.6295,132.406 305.6181,132.406 305.3178,132.406 305.0208,132.4202 304.7277,132.4479 L 305.611,136.245 C 308.226,136.274 311.142,136.494 311.844,139.645 312.376,141.983 311.119,144.37 307.696,145.582 Z M 303.255,136.182 L 302.548,133.003 C 301.42,133.534 301.095,134.289 301.262,135.03 301.439,135.817 302.209,136.094 303.26,136.185 L 303.255,136.182 Z M 308.308,140.723 C 308.131,139.939 307.39,139.657 306.353,139.538 L 307.041,142.626 C 308.107,142.131 308.47,141.443 308.313,140.726 L 308.308,140.723 Z" />
		<path style="fill:#e0e0e0;" d="M 106.585,136.209 C 106.585,136.2105 106.585,136.2122 106.585,136.214 106.585,136.9953 105.9514,137.629 105.17,137.629 104.3887,137.629 103.755,136.9953 103.755,136.214 103.755,135.4344 104.3858,134.8018 105.1647,134.799 105.1665,134.799 105.1682,134.799 105.17,134.799 105.9496,134.799 106.5822,135.4298 106.585,136.2087 Z" />
		<path style="fill:#e0e0e0;" d="M 43.383,145.057 C 43.383,145.2552 43.2222,145.416 43.024,145.416 42.8258,145.416 42.665,145.2552 42.665,145.057 42.665,144.8588 42.8258,144.698 43.024,144.698 43.0244,144.698 43.0247,144.698 43.0251,144.698 43.025,144.698 43.025,144.698 43.025,144.698 43.2227,144.698 43.383,144.8583 43.383,145.056 43.383,145.0564 43.383,145.0567 43.383,145.0571 Z" />
		<path style="fill:#e0e0e0;" d="M 104.472,147.567 C 104.472,147.7652 104.3112,147.926 104.113,147.926 103.9148,147.926 103.754,147.7652 103.754,147.567 103.754,147.3688 103.9148,147.208 104.113,147.208 104.1134,147.208 104.1137,147.208 104.1141,147.208 104.114,147.208 104.114,147.208 104.114,147.208 104.3117,147.208 104.472,147.3683 104.472,147.566 104.472,147.5664 104.472,147.5667 104.472,147.5671 Z" />
		<g>
			<g>
				<path style="stroke-linejoin:round;stroke:#1f2f6d;stroke-linecap:round;stroke-miterlimit:10.0;stroke-width:1.0;fill:none;" d="M 291.653,322.333 L 305.827,322.333" />
				<path style="stroke-linejoin:round;stroke:#1f2f6d;stroke-linecap:round;stroke-miterlimit:10.0;stroke-width:1.0;fill:none;" d="M 312.673,322.333 L 323.641,322.333" />
				<path style="stroke-miterlimit:4.0;stroke:#1f2f6d;stroke-width:1.0;stroke-linecap:round;fill:none;" d="M 283.556,322.333 L 82.62,322.333" />
				<path style="stroke-linejoin:round;stroke:#1f2f6d;stroke-linecap:round;stroke-miterlimit:10.0;stroke-width:1.0;fill:none;" d="M 75.481,322.333 L 68.051,322.333" />
			</g>
			<g>
				<g>
					<g>
						<path style="stroke-linejoin:round;stroke:#1f2f6d;stroke-linecap:round;stroke-miterlimit:4.0;stroke-width:3.0;fill:none;" d="M 255.613,129.823 C 255.439,129.6897 255.2647,129.5543 255.09,129.417" />
						<path style="stroke-linejoin:round;stroke:#1f2f6d;stroke-linecap:round;stroke-miterlimit:4.0;stroke-width:3.0;fill:none;" d="M 252.18,127.258 C 250.6273,126.1473 249.042,125.0807 247.424,124.058" />
						<path style="stroke-linejoin:round;stroke:#1f2f6d;stroke-linecap:round;stroke-miterlimit:4.0;stroke-width:3.0;fill:none;" d="M 245.112,122.639 C 231.4184,114.3587 214.994,109.2333 197.4212,108.6542" />
						<path style="stroke-linejoin:round;stroke:#1f2f6d;stroke-linecap:round;stroke-miterlimit:4.0;stroke-width:3.0;fill:none;" d="M 194.549,108.596 L 193.886,108.596" />
					</g>
					<g>
						<path style="stroke-linejoin:round;stroke:#1f2f6d;stroke-linecap:round;stroke-miterlimit:4.0;stroke-width:3.0;fill:none;" d="M 293.989,202.135 C 292.0566,174.0689 278.8231,149.422 258.855,132.4672" />
						<path style="fill:#1f2f6d;" d="M 297.983,198.772 L 293.856,200.739 289.577,199.139 294.209,208.92 297.983,198.772 Z" />
					</g>
				</g>
				<path style="fill:#fd9f00;" d="M 192.337,118.335 C 242.4693,118.335 283.125,158.9907 283.125,209.123 283.125,259.2553 242.4693,299.911 192.337,299.911 142.2047,299.911 101.549,259.2553 101.549,209.123 101.549,158.9907 142.2047,118.335 192.337,118.335 Z" />
				<g>
					<path style="fill:#9f7341;" d="M 143.2464,158.5626 C 172.3636,129.4454 219.5899,129.4454 248.7071,158.5626 277.8244,187.6799 277.8244,234.9061 248.7071,264.0234 219.5899,293.1406 172.3636,293.1406 143.2464,264.0234 114.1291,234.9061 114.1291,187.6799 143.2464,158.5626 Z" />
					<path style="fill:#000000;" d="M 325.768,259.898 L 325.768,258.279 C 325.768,257.6086 325.2244,257.065 324.554,257.065 L 321.167,257.065 321.167,254.335 C 321.167,253.9247 320.8343,253.592 320.424,253.592 L 314.859,253.592 C 314.4487,253.592 314.116,253.9247 314.116,254.335 L 314.116,257.065 310.728,257.065 C 310.0576,257.065 309.514,257.6086 309.514,258.279 L 309.514,259.895 298.073,259.895 298.073,311.189 337.207,311.189 337.207,259.898 325.768,259.898 Z M 316.921,254.412 L 318.361,254.412 C 318.771,254.412 319.1035,254.7445 319.1035,255.1545 319.1035,255.5645 318.771,255.897 318.361,255.897 L 316.921,255.897 C 316.511,255.897 316.1785,255.5645 316.1785,255.1545 316.1785,254.7445 316.511,254.412 316.921,254.412 Z" />
					<path style="fill:#ffd7cc;" d="M 279.2733,294.7299 C 280.5672,302.7025 275.1509,310.2172 267.1783,311.5111 259.2057,312.8049 251.691,307.3887 250.3971,299.4161 249.1033,291.4435 254.5195,283.9287 262.4921,282.6349 270.4647,281.341 277.9795,286.7573 279.2733,294.7299 Z" />
					<path style="fill:#ffd7cc;" d="M 318.0786,212.3823 C 325.5407,215.4732 329.0856,224.0314 325.9947,231.4934 322.9038,238.9555 314.3457,242.5004 306.8836,239.4095 299.4215,236.3186 295.8766,227.7605 298.9675,220.2984 302.0584,212.8363 310.6165,209.2914 318.0786,212.3823 Z" />
					<path style="fill:#ffd7cc;" d="M 99.834,178.635 C 99.834,186.7119 93.2839,193.262 85.207,193.262 77.1301,193.262 70.58,186.7119 70.58,178.635 70.58,170.5581 77.1301,164.008 85.207,164.008 93.2839,164.008 99.834,170.5581 99.834,178.635 Z" />
					<path style="fill:#ffd7cc;" d="M 154.8773,108.7299 C 162.8499,110.0238 168.2662,117.5385 166.9723,125.5111 165.6785,133.4837 158.1637,138.9 150.1911,137.6061 142.2185,136.3123 136.8023,128.7975 138.0961,120.8249 139.39,112.8523 146.9047,107.4361 154.8773,108.7299 Z" />
					<path style="fill:#ffd7cc;" d="M 128.709,159.059 C 128.709,163.3048 125.2658,166.748 121.02,166.748 116.7742,166.748 113.331,163.3048 113.331,159.059 113.331,154.8132 116.7742,151.37 121.02,151.37 125.2658,151.37 128.709,154.8132 128.709,159.059 Z" />
					<path style="fill:#ffd7cc;" d="M 285.7072,252.424 C 286.3493,257.6495 282.6322,262.4079 277.4066,263.0499 272.1811,263.6919 267.4227,259.9748 266.7807,254.7493 266.1386,249.5237 269.8557,244.7654 275.0813,244.1233 280.3068,243.4813 285.0652,247.1984 285.7072,252.424 Z" />
					<path style="fill:#000000;" d="M 117.606,139.759 L 117.606,103.713 C 117.606,101.787 116.044,100.225 114.118,100.225 L 112.975,100.225 112.975,98.464 C 112.975,97.84 112.469,97.334 111.845,97.334 L 111.535,97.334 C 111.5347,97.334 111.5344,97.334 111.534,97.334 110.9106,97.334 110.405,97.8396 110.405,98.463 110.405,98.4634 110.405,98.4637 110.405,98.4641 L 110.405,100.225 108.205,100.225 108.205,98.464 C 108.205,97.84 107.699,97.334 107.075,97.334 L 106.765,97.334 C 106.7647,97.334 106.7644,97.334 106.764,97.334 106.1406,97.334 105.635,97.8396 105.635,98.463 105.635,98.4634 105.635,98.4637 105.635,98.4641 L 105.635,100.225 103.435,100.225 103.435,98.464 C 103.435,97.84 102.929,97.334 102.305,97.334 L 101.995,97.334 C 101.9947,97.334 101.9944,97.334 101.994,97.334 101.3706,97.334 100.865,97.8396 100.865,98.463 100.865,98.4634 100.865,98.4637 100.865,98.4641 L 100.865,100.225 98.665,100.225 98.665,98.464 C 98.665,97.84 98.159,97.334 97.535,97.334 L 97.225,97.334 C 97.2247,97.334 97.2244,97.334 97.224,97.334 96.6006,97.334 96.095,97.8396 96.095,98.463 96.095,98.4634 96.095,98.4637 96.095,98.4641 L 96.095,100.225 93.895,100.225 93.895,98.464 C 93.895,97.84 93.389,97.334 92.765,97.334 L 92.455,97.334 C 92.4547,97.334 92.4544,97.334 92.454,97.334 91.8306,97.334 91.325,97.8396 91.325,98.463 91.325,98.4634 91.325,98.4637 91.325,98.4641 L 91.325,100.225 89.125,100.225 89.125,98.464 C 89.125,97.84 88.619,97.334 87.995,97.334 L 87.685,97.334 C 87.6847,97.334 87.6844,97.334 87.684,97.334 87.0606,97.334 86.555,97.8396 86.555,98.463 86.555,98.4634 86.555,98.4637 86.555,98.4641 L 86.555,100.225 84.355,100.225 84.355,98.464 C 84.355,97.84 83.849,97.334 83.225,97.334 L 82.915,97.334 C 82.9147,97.334 82.9144,97.334 82.914,97.334 82.2906,97.334 81.785,97.8396 81.785,98.463 81.785,98.4634 81.785,98.4637 81.785,98.4641 L 81.785,100.225 79.585,100.225 79.585,98.464 C 79.585,97.84 79.079,97.334 78.455,97.334 L 78.145,97.334 C 78.1447,97.334 78.1444,97.334 78.144,97.334 77.5206,97.334 77.015,97.8396 77.015,98.463 77.015,98.4634 77.015,98.4637 77.015,98.4641 L 77.015,100.225 74.815,100.225 74.815,98.464 C 74.815,97.84 74.309,97.334 73.685,97.334 L 73.375,97.334 C 73.3747,97.334 73.3744,97.334 73.374,97.334 72.7506,97.334 72.245,97.8396 72.245,98.463 72.245,98.4634 72.245,98.4637 72.245,98.4641 L 72.245,100.225 70.045,100.225 70.045,98.464 C 70.045,98.4637 70.045,98.4634 70.045,98.463 70.045,97.8396 69.5394,97.334 68.916,97.334 68.9156,97.334 68.9153,97.334 68.9149,97.334 L 68.605,97.334 C 67.981,97.334 67.475,97.84 67.475,98.464 L 67.475,100.225 65.275,100.225 65.275,98.464 C 65.275,97.84 64.769,97.334 64.145,97.334 L 63.835,97.334 C 63.8347,97.334 63.8344,97.334 63.834,97.334 63.2106,97.334 62.705,97.8396 62.705,98.463 62.705,98.4634 62.705,98.4637 62.705,98.4641 L 62.705,100.225 61.562,100.225 C 61.562,100.225 61.562,100.225 61.562,100.225 59.636,100.225 58.074,101.787 58.074,103.713 L 58.074,139.759 C 58.074,141.685 59.636,143.247 61.562,143.247 61.562,143.247 61.562,143.247 61.562,143.247 L 114.103,143.247 C 114.1081,143.247 114.114,143.247 114.12,143.247 116.0449,143.247 117.606,141.686 117.606,139.761 117.606,139.7603 117.606,139.7596 117.606,139.7589 Z" />
				</g>
				<g>
					<g>
						<path style="stroke-linejoin:round;stroke:#1f2f6d;stroke-linecap:round;stroke-miterlimit:4.0;stroke-width:3.0;fill:none;" d="M 129.565,288.06 C 129.7383,288.1933 129.9127,288.3287 130.088,288.466" />
						<path style="stroke-linejoin:round;stroke:#1f2f6d;stroke-linecap:round;stroke-miterlimit:4.0;stroke-width:3.0;fill:none;" d="M 132.992,290.624 C 134.5453,291.7347 136.1307,292.8013 137.748,293.824" />
						<path style="stroke-linejoin:round;stroke:#1f2f6d;stroke-linecap:round;stroke-miterlimit:4.0;stroke-width:3.0;fill:none;" d="M 140.059,295.244 C 153.7526,303.5242 170.177,308.6496 187.7498,309.2288" />
						<path style="stroke-linejoin:round;stroke:#1f2f6d;stroke-linecap:round;stroke-miterlimit:4.0;stroke-width:3.0;fill:none;" d="M 190.62,309.286 L 191.283,309.286" />
					</g>
					<g>
						<path style="stroke-linejoin:round;stroke:#1f2f6d;stroke-linecap:round;stroke-miterlimit:4.0;stroke-width:3.0;fill:none;" d="M 91.19,215.748 C 93.1228,243.814 106.3561,268.4608 126.324,285.4158" />
						<path style="fill:#1f2f6d;" d="M 87.189,219.11 L 91.316,217.144 95.595,218.744 90.963,208.963 87.189,219.11 Z" />
					</g>
				</g>
				<g>
					<path style="fill:#d19655;" d="M 192.374,134.553 C 233.552,134.553 266.946,167.947 266.946,209.125 266.946,250.303 233.552,283.697 192.374,283.697 151.196,283.697 117.802,250.303 117.802,209.125 117.802,167.947 151.196,134.553 192.374,134.553 Z" />
					<path style="stroke:#1f2f6d;stroke-width:1.0;stroke-miterlimit:10.0;fill:#ffffff;" d="M 260.806,209.125 C 260.806,246.9126 230.1616,277.557 192.374,277.557 154.5864,277.557 123.942,246.9126 123.942,209.125 123.942,171.3374 154.5864,140.693 192.374,140.693 230.1616,140.693 260.806,171.3374 260.806,209.125 Z" />
					<path style="stroke:#1f2f6d;stroke-width:1.0;stroke-miterlimit:10.0;fill:#a1b3ff;" d="M 192.374,209.125 L 157.887,268.231 C 137.4527,256.1308 123.957,234.2025 123.942,209.1272 123.942,208.987 123.942,208.848 123.942,208.71 L 192.374,209.125 Z" />
					<path style="stroke:#1f2f6d;stroke-width:1.0;stroke-miterlimit:10.0;fill:#ff6666;" d="M 192.374,209.125 L 192.05,140.693 192.374,140.693 C 229.915,140.693 260.806,171.585 260.806,209.125 L 192.374,209.125 Z" />
					<path style="stroke:#1f2f6d;stroke-width:1.0;stroke-miterlimit:10.0;fill:#4dc7b8;" d="M 192.375,209.125 L 260.807,209.125 C 260.807,246.666 229.916,277.557 192.375,277.557 179.7072,277.557 167.8422,274.1129 157.6654,268.1103 L 192.375,209.125 Z" />
					<path style="stroke:#1f2f6d;stroke-width:1.0;stroke-miterlimit:10.0;fill:#ffc773;" d="M 192.374,209.125 L 260.806,209.125 C 260.806,221.4764 257.5317,233.0647 251.8041,243.0689 L 192.374,209.125 Z" />
					<path style="fill:#1f2f6d;" d="M 193.454,207.257 L 165.877,191.336 C 165.5784,191.1701 165.2222,191.0725 164.8433,191.0725 163.6511,191.0725 162.6843,192.0393 162.6843,193.2315 162.6843,194.0075 163.094,194.6881 163.7088,195.0686 L 191.294,210.995 193.454,207.257 Z" />
					<path style="fill:#1f2f6d;" d="M 237.651,184.235 C 237.9644,184.0422 238.1702,183.7011 238.1702,183.312 238.1702,182.7156 237.6866,182.232 237.0902,182.232 236.8998,182.232 236.7209,182.2813 236.5655,182.3678 L 191.838,208.192 192.917,210.061 237.651,184.235 Z" />
					<path style="fill:#1f2f6d;" d="M 190.216,212.865 C 188.9169,212.1042 188.0579,210.7152 188.0579,209.126 188.0579,206.7417 189.9915,204.808 192.3759,204.808 194.7603,204.808 196.6939,206.7417 196.6939,209.126 196.6939,209.9204 196.4793,210.6647 196.1049,211.3042 195.3555,212.5842 193.9659,213.444 192.3759,213.444 191.5808,213.444 190.8357,213.229 190.1958,212.8539 Z" />
					<path style="fill:#b53e44;" d="M 206.409,200.361 C 206.4863,200.3158 206.5792,200.2891 206.6782,200.2891 206.8778,200.2891 207.0521,200.3974 207.1456,200.5584 L 207.147,200.561 C 207.1922,200.6383 207.2189,200.7312 207.2189,200.8302 207.2189,201.0298 207.1106,201.2041 206.9496,201.2976 L 147.559,235.865 C 147.4811,235.9111 147.3873,235.9384 147.2872,235.9384 147.0894,235.9384 146.9165,235.8321 146.8224,235.6735 L 146.821,235.671 C 146.7748,235.5931 146.7475,235.4994 146.7475,235.3992 146.7475,235.2012 146.8543,235.0281 147.0135,234.9344 L 206.409,200.361 Z" />
					<path style="fill:#ff6666;" d="M 191.296,210.995 C 190.6467,210.6148 190.2174,209.9206 190.2174,209.1263 190.2174,207.9347 191.1837,206.9683 192.3754,206.9683 193.567,206.9683 194.5334,207.9347 194.5334,209.1263 194.5334,209.523 194.4263,209.8947 194.2394,210.2141 193.8653,210.8544 193.1707,211.2847 192.3757,211.2847 191.9782,211.2847 191.6058,211.1771 191.2859,210.9894 Z" />
					<g>
						<path style="fill:#1f2f6d;" d="M 185.635,144.982 C 185.4999,144.9964 185.3956,145.1099 185.3956,145.2476 185.3956,145.2572 185.3961,145.2668 185.3971,145.2762 L 185.623,147.423 C 185.6358,147.5597 185.75,147.6658 185.8889,147.6658 186.0363,147.6658 186.1559,147.5463 186.1559,147.3988 186.1559,147.3876 186.1552,147.3766 186.1539,147.3657 L 185.928,145.219 C 185.9126,145.0843 185.7992,144.9807 185.6616,144.9807 185.6523,144.9807 185.643,144.9812 185.6339,144.9821 Z" />
						<path style="fill:#1f2f6d;" d="M 179.28,146.239 C 179.2572,146.1128 179.1481,146.0183 179.0171,146.0183 178.8696,146.0183 178.7501,146.1379 178.7501,146.2853 178.7501,146.3083 178.753,146.3306 178.7584,146.3518 L 179.207,148.462 C 179.2298,148.5882 179.3389,148.6827 179.4699,148.6827 179.6174,148.6827 179.7369,148.5631 179.7369,148.4157 179.7369,148.3927 179.734,148.3704 179.7286,148.3492 L 179.28,146.239 Z" />
						<path style="fill:#1f2f6d;" d="M 172.78,147.95 C 172.7441,147.8417 172.6437,147.765 172.5255,147.765 172.3778,147.765 172.258,147.8848 172.258,148.0325 172.258,148.062 172.2627,148.0904 172.2715,148.1169 L 172.939,150.168 C 172.9749,150.2763 173.0753,150.353 173.1935,150.353 173.3412,150.353 173.461,150.2332 173.461,150.0855 173.461,150.056 173.4563,150.0276 173.4475,150.0011 L 172.78,147.95 Z" />
						<path style="fill:#1f2f6d;" d="M 166.495,150.334 C 166.4524,150.2398 166.3592,150.1755 166.251,150.1755 166.1035,150.1755 165.984,150.295 165.984,150.4425 165.984,150.4818 165.9924,150.5191 166.0077,150.5527 L 166.885,152.523 C 166.8704,152.4911 166.862,152.4538 166.862,152.4145 166.862,152.267 166.9815,152.1475 167.129,152.1475 167.2372,152.1475 167.3304,152.2118 167.3723,152.3043 L 166.495,150.334 Z" />
						<path style="fill:#1f2f6d;" d="M 154.832,157.001 C 154.7828,156.9338 154.7042,156.8906 154.6155,156.8906 154.4678,156.8906 154.3481,157.0103 154.3481,157.158 154.3481,157.217 154.3672,157.2715 154.3995,157.3157 L 155.668,159.062 C 155.7172,159.1292 155.7958,159.1724 155.8845,159.1724 156.0322,159.1724 156.1519,159.0527 156.1519,158.905 156.1519,158.846 156.1328,158.7915 156.1005,158.7473 L 154.832,157.001 Z" />
						<path style="fill:#1f2f6d;" d="M 149.589,161.209 C 149.5396,161.154 149.4683,161.1196 149.389,161.1196 149.2408,161.1196 149.1206,161.2398 149.1206,161.388 149.1206,161.4569 149.1466,161.5197 149.1892,161.5672 L 150.633,163.167 C 150.6824,163.222 150.7537,163.2564 150.833,163.2564 150.9812,163.2564 151.1014,163.1362 151.1014,162.988 151.1014,162.9191 151.0754,162.8563 151.0328,162.8088 L 149.589,161.209 Z" />
						<path style="fill:#1f2f6d;" d="M 144.817,165.944 C 144.7698,165.9018 144.7072,165.8759 144.6385,165.8759 144.4905,165.8759 144.3704,165.996 144.3704,166.144 144.3704,166.2234 144.4049,166.2947 144.4598,166.3438 L 146.06,167.788 C 146.005,167.7386 145.9706,167.6673 145.9706,167.588 145.9706,167.4398 146.0908,167.3196 146.239,167.3196 146.3079,167.3196 146.3707,167.3456 146.4182,167.3882 L 144.817,165.944 Z" />
						<path style="fill:#1f2f6d;" d="M 140.565,171.152 C 140.5189,171.1136 140.4591,171.0903 140.3939,171.0903 140.2459,171.0903 140.1259,171.2103 140.1259,171.3583 140.1259,171.4533 140.1754,171.5368 140.2499,171.5843 L 141.997,172.853 C 142.0431,172.8914 142.1029,172.9147 142.1681,172.9147 142.3161,172.9147 142.4361,172.7947 142.4361,172.6467 142.4361,172.5517 142.3866,172.4682 142.3121,172.4207 L 140.565,171.152 Z" />
						<path style="fill:#1f2f6d;" d="M 135.774,183.631 L 133.802,182.753 C 133.8962,182.7956 133.9605,182.8888 133.9605,182.997 133.9605,183.1445 133.841,183.264 133.6935,183.264 133.6542,183.264 133.6169,183.2556 133.5833,183.2403 L 135.557,184.119 C 135.5889,184.1336 135.6262,184.142 135.6655,184.142 135.813,184.142 135.9325,184.0225 135.9325,183.875 135.9325,183.7668 135.8682,183.6736 135.7757,183.6317 Z" />
						<path style="fill:#1f2f6d;" d="M 131.2,189.529 L 133.253,190.196 C 133.2776,190.2043 133.306,190.209 133.3355,190.209 133.4832,190.209 133.603,190.0892 133.603,189.9415 133.603,189.8233 133.5263,189.7229 133.4199,189.6875 L 131.365,189.02 C 131.3403,189.0116 131.3118,189.0068 131.2822,189.0068 131.164,189.0068 131.0637,189.0837 131.0285,189.1901 131.0203,189.216 131.0158,189.2436 131.0158,189.2723 131.0158,189.3909 131.092,189.4917 131.1981,189.5284 Z" />
						<path style="fill:#1f2f6d;" d="M 129.49,196.03 L 131.602,196.479 C 131.4801,196.4525 131.3902,196.3455 131.3902,196.2175 131.3902,196.0699 131.5099,195.9502 131.6575,195.9502 131.6772,195.9502 131.6963,195.9523 131.7148,195.9563 L 129.601,195.507 C 129.584,195.5031 129.5645,195.5009 129.5445,195.5009 129.4167,195.5009 129.3099,195.5911 129.2843,195.7113 129.2799,195.7305 129.2775,195.7505 129.2775,195.7711 129.2775,195.8986 129.368,196.0051 129.4883,196.0297 Z" />
						<path style="fill:#1f2f6d;" d="M 128.46,202.676 L 130.607,202.902 C 130.6166,202.9032 130.6276,202.9039 130.6388,202.9039 130.7863,202.9039 130.9058,202.7843 130.9058,202.6369 130.9058,202.498 130.7997,202.3838 130.6641,202.3711 L 128.516,202.145 C 128.5088,202.1443 128.5003,202.1439 128.4918,202.1439 128.3444,202.1439 128.2248,202.2635 128.2248,202.4109 128.2248,202.5471 128.3269,202.6596 128.4587,202.6759 Z" />
						<path style="fill:#1f2f6d;" d="M 130.903,215.584 C 130.8881,215.4494 130.7749,215.3456 130.6375,215.3456 130.6278,215.3456 130.6183,215.3461 130.6088,215.3471 L 128.463,215.573 C 128.3263,215.5858 128.2202,215.7 128.2202,215.8389 128.2202,215.9863 128.3397,216.1059 128.4872,216.1059 128.4984,216.1059 128.5094,216.1052 128.5203,216.1039 L 130.666,215.878 C 130.8005,215.8653 130.905,215.7529 130.905,215.6161 130.905,215.6048 130.9043,215.5936 130.9029,215.5827 Z" />
						<path style="fill:#1f2f6d;" d="M 131.912,221.975 C 131.8856,221.8531 131.7787,221.7631 131.6508,221.7631 131.631,221.7631 131.6118,221.7653 131.5932,221.7693 L 129.483,222.218 C 129.3611,222.2445 129.2712,222.3515 129.2712,222.4795 129.2712,222.6271 129.3909,222.7468 129.5385,222.7468 129.5582,222.7468 129.5773,222.7447 129.5958,222.7407 L 131.706,222.292 C 131.828,222.2676 131.9187,222.1613 131.9187,222.0339 131.9187,222.013 131.9162,221.9927 131.9116,221.9732 Z" />
						<path style="fill:#1f2f6d;" d="M 133.592,228.22 C 133.5563,228.1117 133.456,228.0348 133.3378,228.0348 133.3082,228.0348 133.2797,228.0396 133.2531,228.0485 L 131.202,228.716 C 131.0942,228.752 131.0178,228.8521 131.0178,228.97 131.0178,229.1176 131.1374,229.2372 131.285,229.2372 131.3147,229.2372 131.3432,229.2324 131.3699,229.2235 L 133.421,228.556 C 133.5286,228.5196 133.6047,228.4194 133.6047,228.3016 133.6047,228.2724 133.6001,228.2444 133.5915,228.2181 Z" />
						<path style="fill:#1f2f6d;" d="M 135.554,234.128 L 133.582,235.006 C 133.4878,235.0486 133.4235,235.1418 133.4235,235.25 133.4235,235.3975 133.543,235.517 133.6905,235.517 133.7298,235.517 133.7671,235.5086 133.8007,235.4933 L 135.771,234.616 C 135.8652,234.5734 135.9295,234.4802 135.9295,234.372 135.9295,234.2245 135.81,234.105 135.6625,234.105 135.6232,234.105 135.5859,234.1134 135.5523,234.1287 Z" />
						<path style="fill:#1f2f6d;" d="M 141.997,245.396 L 140.251,246.664 C 140.184,246.7131 140.141,246.7915 140.141,246.88 140.141,247.0275 140.2605,247.147 140.408,247.147 140.467,247.147 140.5215,247.1279 140.5657,247.0955 L 142.311,245.828 C 142.378,245.7789 142.421,245.7005 142.421,245.612 142.421,245.4645 142.3015,245.345 142.154,245.345 142.095,245.345 142.0405,245.3641 141.9963,245.3965 Z" />
						<path style="fill:#1f2f6d;" d="M 146.061,250.463 L 144.461,251.907 C 144.5083,251.8646 144.5711,251.8386 144.64,251.8386 144.7882,251.8386 144.9084,251.9588 144.9084,252.107 144.9084,252.1863 144.874,252.2576 144.8192,252.3068 L 146.419,250.863 C 146.474,250.8136 146.5084,250.7423 146.5084,250.663 146.5084,250.5148 146.3882,250.3946 146.24,250.3946 146.1711,250.3946 146.1083,250.4206 146.0608,250.4632 Z" />
						<path style="fill:#1f2f6d;" d="M 150.636,255.077 L 149.191,256.677 C 149.1486,256.7243 149.1226,256.7871 149.1226,256.856 149.1226,257.0042 149.2428,257.1244 149.391,257.1244 149.4703,257.1244 149.5416,257.09 149.5908,257.0352 L 151.036,255.435 C 150.9866,255.49 150.9153,255.5244 150.836,255.5244 150.6878,255.5244 150.5676,255.4042 150.5676,255.256 150.5676,255.1871 150.5936,255.1243 150.6362,255.0768 Z" />
						<path style="fill:#1f2f6d;" d="M 155.667,259.189 L 154.398,260.934 C 154.3661,260.9775 154.347,261.032 154.347,261.091 154.347,261.2385 154.4665,261.358 154.614,261.358 154.7025,261.358 154.7809,261.315 154.8295,261.2487 L 156.099,259.502 C 156.0499,259.569 155.9715,259.612 155.883,259.612 155.7355,259.612 155.616,259.4925 155.616,259.345 155.616,259.286 155.6351,259.2315 155.6675,259.1873 L 155.667,259.189 Z" />
						<path style="fill:#1f2f6d;" d="M 167.233,265.59 C 167.2009,265.5753 167.1634,265.5667 167.1239,265.5667 167.0158,265.5667 166.9227,265.6309 166.8807,265.7233 L 166.002,267.696 C 166.0448,267.602 166.1379,267.5378 166.246,267.5378 166.3936,267.5378 166.5132,267.6574 166.5132,267.805 166.5132,267.8445 166.5047,267.8819 166.4893,267.9157 L 167.368,265.942 C 167.3821,265.9104 167.3903,265.8735 167.3903,265.8347 167.3903,265.7267 167.3266,265.6335 167.2346,265.5907 Z" />
						<path style="fill:#1f2f6d;" d="M 173.272,267.91 C 173.2473,267.9016 173.2188,267.8968 173.1892,267.8968 173.071,267.8968 172.9707,267.9737 172.9355,268.0801 L 172.267,270.135 C 172.3029,270.0267 172.4033,269.95 172.5215,269.95 172.6692,269.95 172.789,270.0698 172.789,270.2175 172.789,270.247 172.7843,270.2754 172.7755,270.3019 L 173.444,268.247 C 173.4519,268.2228 173.4564,268.195 173.4564,268.1661 173.4564,268.0476 173.3801,267.9469 173.2739,267.9106 Z" />
						<path style="fill:#1f2f6d;" d="M 179.52,269.586 C 179.5035,269.5824 179.4845,269.5803 179.465,269.5803 179.337,269.5803 179.2299,269.6702 179.2033,269.7902 L 178.754,271.902 C 178.7494,271.9205 178.7468,271.9417 178.7468,271.9635 178.7468,272.111 178.8664,272.2305 179.0138,272.2305 179.1434,272.2305 179.2515,272.1382 179.2757,272.0157 L 179.725,269.904 C 179.7291,269.8864 179.7315,269.8663 179.7315,269.8455 179.7315,269.7181 179.6416,269.6117 179.5217,269.5863 Z" />
						<path style="fill:#1f2f6d;" d="M 185.917,270.597 C 185.9087,270.5961 185.8991,270.5956 185.8894,270.5956 185.7518,270.5956 185.6384,270.6993 185.6231,270.8328 L 185.397,272.98 C 185.4116,272.8448 185.5252,272.7405 185.663,272.7405 185.8107,272.7405 185.9305,272.8603 185.9305,273.008 185.9305,273.0179 185.9299,273.0276 185.9289,273.0372 L 186.155,270.89 C 186.1558,270.8823 186.1562,270.8734 186.1562,270.8643 186.1562,270.7263 186.0522,270.6125 185.9182,270.5971 Z" />
						<path style="fill:#1f2f6d;" d="M 198.83,270.597 C 198.6949,270.6114 198.5906,270.7249 198.5906,270.8626 198.5906,270.8722 198.5911,270.8818 198.5921,270.8912 L 198.817,273.036 C 198.8344,273.1681 198.9464,273.269 199.0818,273.269 199.2293,273.269 199.3488,273.1495 199.3488,273.002 199.3488,272.9946 199.3485,272.9873 199.3479,272.9801 L 199.123,270.835 C 199.1096,270.7 198.9966,270.5954 198.8592,270.5954 198.8489,270.5954 198.8388,270.596 198.8288,270.5971 Z" />
						<path style="fill:#1f2f6d;" d="M 205.539,269.792 C 205.5426,269.8085 205.5447,269.8275 205.5447,269.847 205.5447,269.9946 205.4251,270.1142 205.2775,270.1142 205.1494,270.1142 205.0423,270.0241 205.0163,269.9038 L 205.464,272.013 C 205.4903,272.1351 205.5974,272.2252 205.7255,272.2252 205.8731,272.2252 205.9927,272.1056 205.9927,271.958 205.9927,271.9385 205.9906,271.9195 205.9867,271.9012 L 205.539,269.792 Z" />
						<path style="fill:#1f2f6d;" d="M 211.804,268.083 C 211.7681,267.975 211.668,267.8984 211.55,267.8984 211.4025,267.8984 211.2829,268.018 211.2829,268.1655 211.2829,268.195 211.2877,268.2234 211.2965,268.2499 L 211.963,270.301 C 211.9989,270.409 212.099,270.4856 212.217,270.4856 212.3645,270.4856 212.4841,270.366 212.4841,270.2185 212.4841,270.189 212.4793,270.1606 212.4705,270.1341 L 211.804,268.083 Z" />
						<path style="fill:#1f2f6d;" d="M 217.863,265.729 C 217.8204,265.6348 217.7272,265.5705 217.619,265.5705 217.4715,265.5705 217.352,265.69 217.352,265.8375 217.352,265.8768 217.3604,265.9141 217.3757,265.9477 L 218.252,267.918 C 218.2946,268.0122 218.3878,268.0765 218.496,268.0765 218.6435,268.0765 218.763,267.957 218.763,267.8095 218.763,267.7702 218.7546,267.7329 218.7393,267.6993 L 217.863,265.729 Z" />
						<path style="fill:#1f2f6d;" d="M 229.077,259.193 C 229.1089,259.2365 229.128,259.291 229.128,259.35 229.128,259.4975 229.0085,259.617 228.861,259.617 228.7725,259.617 228.6941,259.574 228.6455,259.5077 L 229.913,261.253 C 229.9621,261.32 230.0405,261.363 230.129,261.363 230.2765,261.363 230.396,261.2435 230.396,261.096 230.396,261.037 230.3769,260.9825 230.3445,260.9383 L 229.077,259.193 Z" />
						<path style="fill:#1f2f6d;" d="M 234.109,255.081 C 234.0597,255.0259 233.9884,254.9914 233.909,254.9914 233.761,254.9914 233.6409,255.1115 233.6409,255.2595 233.6409,255.3282 233.6668,255.3908 233.7092,255.4382 L 235.152,257.038 C 235.2013,257.0931 235.2726,257.1276 235.352,257.1276 235.5,257.1276 235.6201,257.0075 235.6201,256.8595 235.6201,256.7908 235.5942,256.7282 235.5518,256.6808 L 234.109,255.081 Z" />
						<path style="fill:#1f2f6d;" d="M 238.681,250.467 C 238.736,250.5164 238.7704,250.5877 238.7704,250.667 238.7704,250.8152 238.6502,250.9354 238.502,250.9354 238.4331,250.9354 238.3703,250.9094 238.3228,250.8668 L 239.923,252.312 C 239.868,252.2626 239.8336,252.1913 239.8336,252.112 239.8336,251.9638 239.9538,251.8436 240.102,251.8436 240.1709,251.8436 240.2337,251.8696 240.2812,251.9122 L 238.681,250.467 Z" />
						<path style="fill:#1f2f6d;" d="M 242.752,245.4 C 242.7085,245.3681 242.654,245.349 242.595,245.349 242.4475,245.349 242.328,245.4685 242.328,245.616 242.328,245.7045 242.371,245.7829 242.4373,245.8315 L 244.183,247.101 C 244.2265,247.1329 244.281,247.152 244.34,247.152 244.4875,247.152 244.607,247.0325 244.607,246.885 244.607,246.7965 244.564,246.7181 244.4977,246.6695 L 242.752,245.4 Z" />
						<path style="fill:#1f2f6d;" d="M 251.164,235.012 L 249.194,234.133 C 249.167,234.123 249.1359,234.1172 249.1034,234.1172 248.9554,234.1172 248.8354,234.2372 248.8354,234.3852 248.8354,234.4865 248.8917,234.5747 248.9746,234.6203 L 250.946,235.5 C 250.973,235.51 251.0041,235.5158 251.0366,235.5158 251.1846,235.5158 251.3046,235.3958 251.3046,235.2478 251.3046,235.1465 251.2483,235.0583 251.1654,235.0127 Z" />
						<path style="fill:#1f2f6d;" d="M 253.549,228.725 L 251.498,228.056 C 251.4732,228.0476 251.4447,228.0428 251.415,228.0428 251.2674,228.0428 251.1478,228.1624 251.1478,228.31 251.1478,228.4279 251.2242,228.528 251.3301,228.5635 L 253.383,229.233 C 253.4078,229.2414 253.4364,229.2463 253.4661,229.2463 253.584,229.2463 253.6841,229.1699 253.7195,229.0639 253.7279,229.0377 253.7325,229.0098 253.7325,228.9808 253.7325,228.8626 253.6566,228.7622 253.5509,228.7256 Z" />
						<path style="fill:#1f2f6d;" d="M 255.26,222.223 L 253.15,221.772 C 253.1306,221.767 253.1083,221.7641 253.0853,221.7641 252.9379,221.7641 252.8183,221.8836 252.8183,222.0311 252.8183,222.1621 252.9128,222.2712 253.0374,222.2938 L 255.149,222.745 C 255.1658,222.7488 255.1851,222.7509 255.205,222.7509 255.3325,222.7509 255.4392,222.6614 255.4657,222.5418 255.4701,222.5225 255.4725,222.5025 255.4725,222.4819 255.4725,222.3544 255.382,222.2479 255.2617,222.2233 Z" />
						<path style="fill:#1f2f6d;" d="M 256.288,215.578 L 254.142,215.35 C 254.1324,215.3488 254.1214,215.3481 254.1102,215.3481 253.9627,215.3481 253.8432,215.4677 253.8432,215.6151 253.8432,215.754 253.9493,215.8682 254.0849,215.8809 L 256.232,216.109 C 256.2416,216.1102 256.2526,216.1109 256.2638,216.1109 256.4113,216.1109 256.5308,215.9913 256.5308,215.8439 256.5308,215.705 256.4247,215.5908 256.2891,215.5781 Z" />
						<path style="fill:#1f2f6d;" d="M 253.846,202.666 C 253.8604,202.8011 253.9739,202.9054 254.1116,202.9054 254.1212,202.9054 254.1308,202.9049 254.1402,202.9039 L 256.285,202.681 C 256.4217,202.6682 256.5278,202.554 256.5278,202.4151 256.5278,202.2677 256.4083,202.1481 256.2608,202.1481 256.2496,202.1481 256.2386,202.1488 256.2277,202.1501 L 254.083,202.373 C 253.9482,202.39 253.8449,202.504 253.8449,202.642 253.8449,202.6504 253.8453,202.6588 253.8461,202.6671 Z" />
						<path style="fill:#1f2f6d;" d="M 252.836,196.276 C 252.8629,196.3978 252.97,196.4877 253.098,196.4877 253.1175,196.4877 253.1365,196.4856 253.1548,196.4817 L 255.263,196.035 C 255.3906,196.0134 255.4867,195.9037 255.4867,195.7715 255.4867,195.6241 255.3671,195.5045 255.2197,195.5045 255.196,195.5045 255.173,195.5076 255.1511,195.5134 L 253.043,195.96 C 252.9206,195.9841 252.8296,196.0906 252.8296,196.2183 252.8296,196.2387 252.8319,196.2587 252.8363,196.2778 Z" />
						<path style="fill:#1f2f6d;" d="M 251.158,190.026 C 251.1938,190.1342 251.294,190.2109 251.4121,190.2109 251.4413,190.2109 251.4695,190.2062 251.4959,190.1975 L 253.547,189.533 C 253.6587,189.4994 253.7387,189.3974 253.7387,189.2768 253.7387,189.1294 253.6191,189.0098 253.4717,189.0098 253.4399,189.0098 253.4094,189.0154 253.3811,189.0256 L 251.33,189.69 C 251.2219,189.7262 251.1454,189.8265 251.1454,189.9447 251.1454,189.9737 251.15,190.0017 251.1585,190.0279 Z" />
						<path style="fill:#1f2f6d;" d="M 249.195,184.122 L 251.167,183.247 C 251.2612,183.2044 251.3255,183.1112 251.3255,183.003 251.3255,182.8555 251.206,182.736 251.0585,182.736 251.0192,182.736 250.9819,182.7444 250.9483,182.7597 L 248.978,183.634 C 248.8838,183.6766 248.8195,183.7698 248.8195,183.878 248.8195,184.0255 248.939,184.145 249.0865,184.145 249.1258,184.145 249.1631,184.1366 249.1967,184.1213 Z" />
						<path style="fill:#1f2f6d;" d="M 244.191,171.155 L 242.444,172.422 C 242.3712,172.4705 242.3239,172.5522 242.3239,172.645 242.3239,172.7924 242.4435,172.912 242.5909,172.912 242.6539,172.912 242.7118,172.8901 242.7575,172.8536 L 244.504,171.587 C 244.5768,171.5385 244.6241,171.4568 244.6241,171.364 244.6241,171.2166 244.5045,171.097 244.3571,171.097 244.2941,171.097 244.2362,171.1189 244.1905,171.1554 Z" />
						<path style="fill:#1f2f6d;" d="M 239.937,165.947 L 238.337,167.39 C 238.2819,167.4393 238.2474,167.5106 238.2474,167.59 238.2474,167.738 238.3675,167.8581 238.5155,167.8581 238.5842,167.8581 238.6468,167.8322 238.6942,167.7898 L 240.294,166.347 C 240.3491,166.2977 240.3836,166.2264 240.3836,166.147 240.3836,165.999 240.2635,165.8789 240.1155,165.8789 240.0468,165.8789 239.9842,165.9048 239.9368,165.9472 Z" />
						<path style="fill:#1f2f6d;" d="M 235.16,161.213 L 233.714,162.813 C 233.6716,162.8603 233.6456,162.9231 233.6456,162.992 233.6456,163.1402 233.7658,163.2604 233.914,163.2604 233.9933,163.2604 234.0646,163.226 234.1138,163.1712 L 235.56,161.571 C 235.6024,161.5237 235.6284,161.4609 235.6284,161.392 235.6284,161.2438 235.5082,161.1236 235.36,161.1236 235.2807,161.1236 235.2094,161.158 235.1602,161.2128 Z" />
						<path style="fill:#1f2f6d;" d="M 229.916,157.003 L 228.646,158.748 C 228.6952,158.6811 228.7736,158.6382 228.862,158.6382 229.0096,158.6382 229.1293,158.7579 229.1293,158.9055 229.1293,158.9647 229.1101,159.0194 229.0775,159.0637 L 230.348,157.318 C 230.3825,157.2734 230.4033,157.2168 230.4033,157.1552 230.4033,157.0078 230.2838,156.8882 230.1363,156.8882 230.0459,156.8882 229.9659,156.9333 229.9176,157.0022 L 229.916,157.003 Z" />
						<path style="fill:#1f2f6d;" d="M 218.613,150.2 C 218.5809,150.1853 218.5434,150.1767 218.5039,150.1767 218.3958,150.1767 218.3027,150.2409 218.2607,150.3333 L 217.38,152.306 C 217.4228,152.212 217.5159,152.1478 217.624,152.1478 217.7716,152.1478 217.8912,152.2674 217.8912,152.415 217.8912,152.4545 217.8827,152.4919 217.8673,152.5257 L 218.748,150.553 C 218.7625,150.521 218.771,150.4837 218.771,150.4444 218.771,150.3362 218.7069,150.243 218.6147,150.2007 Z" />
						<path style="fill:#1f2f6d;" d="M 212.31,147.78 C 212.2852,147.7716 212.2566,147.7667 212.2269,147.7667 212.109,147.7667 212.0089,147.8431 211.9735,147.9491 L 211.304,150.003 C 211.2956,150.0278 211.2908,150.0563 211.2908,150.086 211.2908,150.2336 211.4104,150.3532 211.558,150.3532 211.6759,150.3532 211.776,150.2768 211.8115,150.1709 L 212.481,148.117 C 212.4898,148.0918 212.4948,148.0628 212.4948,148.0326 212.4948,147.9149 212.418,147.8151 212.3119,147.7805 Z" />
						<path style="fill:#1f2f6d;" d="M 205.791,146.033 C 205.774,146.0291 205.7545,146.0269 205.7345,146.0269 205.6067,146.0269 205.4999,146.1171 205.4743,146.2373 L 205.024,148.35 C 205.0194,148.3685 205.0168,148.3897 205.0168,148.4115 205.0168,148.559 205.1364,148.6785 205.2838,148.6785 205.4134,148.6785 205.5215,148.5862 205.5457,148.4637 L 205.996,146.351 C 205.9992,146.3353 206.0011,146.3172 206.0011,146.2986 206.0011,146.1702 205.9123,146.0625 205.7929,146.0334 Z" />
						<path style="fill:#1f2f6d;" d="M 199.12,144.975 C 199.1115,144.974 199.1016,144.9735 199.0916,144.9735 198.9538,144.9735 198.8404,145.0779 198.8261,145.2118 L 198.599,147.36 C 198.5978,147.3696 198.5971,147.3806 198.5971,147.3918 198.5971,147.5393 198.7167,147.6588 198.8641,147.6588 199.003,147.6588 199.1172,147.5527 199.1299,147.4171 L 199.357,145.269 C 199.3579,145.2607 199.3584,145.2511 199.3584,145.2414 199.3584,145.1038 199.2547,144.9904 199.1212,144.9751 Z" />
					</g>
					<g>
						<path style="fill:#1f2f6d;" d="M 254.585,210.765 C 254.0155,210.4315 253.6389,209.8225 253.6389,209.1258 253.6389,208.0805 254.4866,207.2328 255.5319,207.2328 256.5772,207.2328 257.4249,208.0805 257.4249,209.1258 257.4249,209.4737 257.331,209.7997 257.1671,210.0799 256.839,210.6417 256.2296,211.0192 255.5322,211.0192 255.1835,211.0192 254.8567,210.9248 254.5762,210.7601 Z" />
						<path style="fill:#1f2f6d;" d="M 247.065,179.445 C 246.0201,179.4444 245.173,178.5969 245.173,177.552 245.173,176.5067 246.0207,175.659 247.066,175.659 248.1109,175.659 248.9584,176.5061 248.959,177.5509 248.959,178.5969 248.1109,179.445 247.065,179.445 Z" />
						<path style="fill:#1f2f6d;" d="M 224.899,156.072 C 224.6278,156.2308 224.302,156.3246 223.9543,156.3246 222.909,156.3246 222.0613,155.4769 222.0613,154.4316 222.0613,153.3863 222.909,152.5386 223.9543,152.5386 224.6507,152.5386 225.2594,152.9149 225.5881,153.4752 225.753,153.7559 225.8476,154.0829 225.8476,154.432 225.8476,155.1295 225.4699,155.739 224.9079,156.0671 Z" />
						<path style="fill:#1f2f6d;" d="M 194.015,146.919 C 193.6812,147.4872 193.0729,147.8628 192.3772,147.8628 191.3319,147.8628 190.4842,147.0151 190.4842,145.9698 190.4842,144.9245 191.3319,144.0768 192.3772,144.0768 192.7253,144.0768 193.0516,144.1708 193.3319,144.3349 193.8931,144.6634 194.2702,145.2726 194.2702,145.9698 194.2702,146.3193 194.1754,146.6468 194.0101,146.9278 Z" />
						<path style="fill:#1f2f6d;" d="M 162.689,154.434 C 162.685,155.4763 161.8389,156.32 160.796,156.32 159.7507,156.32 158.903,155.4723 158.903,154.427 158.903,153.3821 159.7501,152.5346 160.7949,152.534 160.7956,152.534 160.7963,152.534 160.797,152.534 161.8418,152.534 162.689,153.3813 162.689,154.426 162.689,154.4288 162.689,154.4316 162.689,154.4344 Z" />
						<path style="fill:#1f2f6d;" d="M 139.317,176.602 C 139.4756,176.8729 139.5692,177.1985 139.5692,177.5458 139.5692,178.5906 138.722,179.4378 137.6772,179.4378 136.6325,179.4378 135.7852,178.5906 135.7852,177.5458 135.7852,176.8498 136.1612,176.2415 136.7212,175.9129 137.0017,175.7484 137.3283,175.6542 137.6769,175.6542 138.3743,175.6542 138.9837,176.0315 139.3121,176.5931 Z" />
						<path style="fill:#1f2f6d;" d="M 130.166,207.484 C 130.7346,207.8177 131.1105,208.4262 131.1105,209.1222 131.1105,210.1675 130.2628,211.0152 129.2175,211.0152 128.1722,211.0152 127.3245,210.1675 127.3245,209.1222 127.3245,208.7739 127.4187,208.4475 127.5829,208.1671 127.9109,207.6057 128.5199,207.2285 129.2168,207.2285 129.5664,207.2285 129.8938,207.3234 130.1748,207.4889 Z" />
						<path style="fill:#1f2f6d;" d="M 137.681,238.809 C 138.7233,238.813 139.567,239.6591 139.567,240.702 139.567,241.7473 138.7193,242.595 137.674,242.595 136.6291,242.595 135.7816,241.7479 135.781,240.7031 135.781,240.7027 135.781,240.7023 135.781,240.702 135.781,239.6567 136.6287,238.809 137.674,238.809 137.6765,238.809 137.6789,238.809 137.6814,238.809 Z" />
						<path style="fill:#1f2f6d;" d="M 159.85,262.178 C 160.121,262.0195 160.4466,261.9258 160.794,261.9258 161.8393,261.9258 162.687,262.7735 162.687,263.8188 162.687,264.8641 161.8393,265.7118 160.794,265.7118 160.0974,265.7118 159.4886,265.3354 159.1599,264.7748 158.9951,264.4942 158.9006,264.1673 158.9006,263.8185 158.9006,263.1206 159.2787,262.5109 159.8411,262.1829 Z" />
						<path style="fill:#1f2f6d;" d="M 190.734,271.331 C 191.0676,270.7619 191.6763,270.3857 192.3727,270.3857 193.418,270.3857 194.2657,271.2334 194.2657,272.2787 194.2657,273.324 193.418,274.1717 192.3727,274.1717 192.0242,274.1717 191.6976,274.0775 191.4171,273.9131 190.8576,273.5825 190.4822,272.9731 190.4822,272.2762 190.4822,271.9284 190.5757,271.6024 190.7389,271.322 Z" />
						<path style="fill:#1f2f6d;" d="M 222.059,263.818 C 222.0596,262.7731 222.9071,261.926 223.952,261.926 224.9973,261.926 225.845,262.7737 225.845,263.819 225.845,264.8639 224.9979,265.7114 223.9531,265.712 223.9527,265.712 223.9524,265.712 223.952,265.712 222.9067,265.712 222.059,264.8643 222.059,263.819 222.059,263.8186 222.059,263.8183 222.059,263.8179 Z" />
						<path style="fill:#1f2f6d;" d="M 245.428,241.647 C 245.2707,241.3768 245.1777,241.0524 245.1777,240.7063 245.1777,239.661 246.0254,238.8133 247.0707,238.8133 248.116,238.8133 248.9637,239.661 248.9637,240.7063 248.9637,241.4041 248.586,242.0138 248.0239,242.3421 247.744,242.5054 247.4185,242.599 247.0711,242.599 246.3719,242.599 245.761,242.2198 245.4329,241.656 Z" />
					</g>
				</g>
				<g>
					<path style="stroke:#56a8b7;stroke-width:1.0;stroke-miterlimit:4.0;fill:#56a8b7;" d="M 333.6,257.735 L 333.6,309.027 294.466,309.027 294.466,257.735 333.6,257.735 Z" />
					<path style="stroke:#85dae9;stroke-width:1.0;stroke-miterlimit:4.0;fill:#f5f5f5;" d="M 296.025,259.29 L 332.043,259.29 332.043,307.466 296.025,307.466 296.025,259.29 Z" />
					<g>
						<g>
							<path style="stroke-linejoin:round;stroke:#1f2f6d;stroke-linecap:round;stroke-miterlimit:10.0;stroke-width:1.0;fill:none;" d="M 298.272,265.961 L 298.272,272.64 304.951,272.64 304.951,265.961 298.272,265.961 Z" />
							<g>
								<path style="fill:#dee1ef;" d="M 307.265,265.874 L 307.265,267.54 329.791,267.54 329.791,265.874 307.265,265.874 Z" />
								<path style="fill:#dee1ef;" d="M 307.265,268.467 L 307.265,270.133 326.981,270.133 326.981,268.467 307.265,268.467 Z" />
								<path style="fill:#dee1ef;" d="M 307.265,271.059 L 307.265,272.725 324.17,272.725 324.17,271.059 307.265,271.059 Z" />
							</g>
							<path style="fill:#4dc7b8;" d="M 301.569,271.39 C 301.3371,271.3898 301.1303,271.2818 300.9962,271.1135 L 299.373,269.063 C 299.2645,268.9359 299.1985,268.7698 299.1985,268.5882 299.1985,268.1835 299.5267,267.8552 299.9315,267.8552 300.1728,267.8552 300.387,267.972 300.5206,268.1521 L 301.483,269.368 304.636,264.051 C 304.7635,263.8237 305.0029,263.6725 305.2776,263.6725 305.6823,263.6725 306.0106,264.0008 306.0106,264.4055 306.0106,264.5515 305.9678,264.6876 305.8942,264.8019 L 302.196,271.032 C 302.0743,271.2345 301.8624,271.372 301.6173,271.3889 L 301.569,271.39 Z" />
						</g>
						<g>
							<path style="stroke-linejoin:round;stroke:#1f2f6d;stroke-linecap:round;stroke-miterlimit:10.0;stroke-width:1.0;fill:none;" d="M 298.272,276.354 L 298.272,283.033 304.951,283.033 304.951,276.354 298.272,276.354 Z" />
							<g>
								<path style="fill:#dee1ef;" d="M 307.265,276.268 L 307.265,277.934 329.791,277.934 329.791,276.268 307.265,276.268 Z" />
								<path style="fill:#dee1ef;" d="M 307.265,278.86 L 307.265,280.526 326.981,280.526 326.981,278.86 307.265,278.86 Z" />
								<path style="fill:#dee1ef;" d="M 307.265,281.453 L 307.265,283.119 324.17,283.119 324.17,281.453 307.265,281.453 Z" />
							</g>
							<path style="fill:#4dc7b8;" d="M 301.569,281.783 C 301.3371,281.7828 301.1303,281.6748 300.9962,281.5065 L 299.373,279.456 C 299.2645,279.3289 299.1985,279.1628 299.1985,278.9812 299.1985,278.5765 299.5267,278.2482 299.9315,278.2482 300.1728,278.2482 300.387,278.365 300.5206,278.5451 L 301.483,279.761 304.636,274.444 C 304.7635,274.2167 305.0029,274.0655 305.2776,274.0655 305.6823,274.0655 306.0106,274.3938 306.0106,274.7985 306.0106,274.9445 305.9678,275.0806 305.8942,275.1949 L 302.196,281.425 C 302.0743,281.6275 301.8624,281.765 301.6173,281.7819 L 301.569,281.783 Z" />
						</g>
						<g>
							<path style="stroke-linejoin:round;stroke:#1f2f6d;stroke-linecap:round;stroke-miterlimit:10.0;stroke-width:1.0;fill:none;" d="M 298.272,286.747 L 298.272,293.426 304.951,293.426 304.951,286.747 298.272,286.747 Z" />
							<g>
								<path style="fill:#dee1ef;" d="M 307.265,286.661 L 307.265,288.327 329.791,288.327 329.791,286.661 307.265,286.661 Z" />
								<path style="fill:#dee1ef;" d="M 307.265,289.253 L 307.265,290.919 326.981,290.919 326.981,289.253 307.265,289.253 Z" />
								<path style="fill:#dee1ef;" d="M 307.265,291.846 L 307.265,293.512 324.17,293.512 324.17,291.846 307.265,291.846 Z" />
							</g>
							<path style="fill:#4dc7b8;" d="M 301.569,292.176 C 301.3371,292.1758 301.1303,292.0678 300.9962,291.8995 L 299.373,289.849 C 299.2645,289.7219 299.1985,289.5558 299.1985,289.3742 299.1985,288.9695 299.5267,288.6412 299.9315,288.6412 300.1728,288.6412 300.387,288.758 300.5206,288.9381 L 301.483,290.154 304.636,284.837 C 304.7635,284.6097 305.0029,284.4585 305.2776,284.4585 305.6823,284.4585 306.0106,284.7868 306.0106,285.1915 306.0106,285.3375 305.9678,285.4736 305.8942,285.5879 L 302.196,291.818 C 302.0743,292.0205 301.8624,292.158 301.6173,292.1749 L 301.569,292.176 Z" />
						</g>
						<g>
							<path style="stroke-linejoin:round;stroke:#1f2f6d;stroke-linecap:round;stroke-miterlimit:10.0;stroke-width:1.0;fill:none;" d="M 298.272,297.14 L 298.272,303.819 304.951,303.819 304.951,297.14 298.272,297.14 Z" />
							<g>
								<path style="fill:#dee1ef;" d="M 307.265,297.054 L 307.265,298.72 329.791,298.72 329.791,297.054 307.265,297.054 Z" />
								<path style="fill:#dee1ef;" d="M 307.265,299.646 L 307.265,301.312 326.981,301.312 326.981,299.646 307.265,299.646 Z" />
								<path style="fill:#dee1ef;" d="M 307.265,302.239 L 307.265,303.905 324.17,303.905 324.17,302.239 307.265,302.239 Z" />
							</g>
							<path style="fill:#4dc7b8;" d="M 301.569,302.569 C 301.3371,302.5688 301.1303,302.4608 300.9962,302.2925 L 299.377,300.247 C 299.2685,300.1199 299.2025,299.9538 299.2025,299.7722 299.2025,299.3675 299.5307,299.0392 299.9355,299.0392 300.1768,299.0392 300.391,299.156 300.5246,299.3361 L 301.487,300.552 304.64,295.235 C 304.7675,295.0077 305.0069,294.8565 305.2816,294.8565 305.6863,294.8565 306.0146,295.1848 306.0146,295.5895 306.0146,295.7355 305.9718,295.8716 305.8982,295.9859 L 302.2,302.216 C 302.0783,302.4185 301.8664,302.556 301.6213,302.5729 L 301.569,302.569 Z" />
						</g>
					</g>
					<g>
						<path style="fill:#1f2f6d;" d="M 310.509,252.173 L 310.509,257.093 C 310.509,257.5033 310.8417,257.836 311.252,257.836 L 316.817,257.836 C 317.2273,257.836 317.56,257.5033 317.56,257.093 L 317.56,252.173 C 317.56,251.7627 317.2273,251.43 316.817,251.43 L 311.252,251.43 C 310.842,251.4306 310.5096,251.763 310.509,252.1729 Z M 314.756,253.731 L 313.316,253.731 C 312.9057,253.731 312.573,253.3983 312.573,252.988 L 312.573,252.988 C 312.573,252.988 312.573,252.988 312.573,252.988 312.573,252.5783 312.9053,252.246 313.315,252.246 313.3154,252.246 313.3157,252.246 313.3161,252.246 L 314.756,252.246 C 314.756,252.246 314.756,252.246 314.756,252.246 315.1659,252.246 315.4984,252.5782 315.499,252.9879 L 315.499,252.988 C 315.4979,253.3978 315.1658,253.7299 314.7561,253.731 Z" />
						<path style="fill:#1f2f6d;" d="M 320.947,254.903 L 307.122,254.903 C 306.4516,254.903 305.908,255.4466 305.908,256.117 L 305.908,259.552 C 305.908,260.2224 306.4516,260.766 307.122,260.766 L 320.947,260.766 C 320.947,260.766 320.947,260.766 320.947,260.766 321.6174,260.766 322.161,260.2224 322.161,259.552 L 322.161,256.115 C 322.1582,255.4462 321.616,254.9047 320.9472,254.903 Z" />
					</g>
				</g>
				<g>
					<path style="stroke:#31897c;stroke-width:1.0;stroke-miterlimit:4.0;fill:#fd9f00;" d="M 261.216,280.29 C 269.2929,280.29 275.843,286.8401 275.843,294.917 275.843,302.9939 269.2929,309.544 261.216,309.544 253.1391,309.544 246.589,302.9939 246.589,294.917 246.589,286.8401 253.1391,280.29 261.216,280.29 Z" />
					<g>
						<g>
							<g>
								<path style="fill:#fce001;" d="M 256.603,294.436 C 256.603,294.436 256.603,294.4359 256.603,294.4359 256.603,291.8886 258.6687,289.8229 261.216,289.8229 263.7633,289.8229 265.829,291.8886 265.829,294.4359 265.829,295.5329 265.4458,296.5407 264.806,297.3326 264.0498,298.2526 263.5837,299.4506 263.574,300.7569 L 263.574,300.845 258.859,300.845 258.859,300.759 C 258.859,300.7518 258.8591,300.7433 258.8591,300.7348 258.8591,299.4535 258.406,298.2777 257.6514,297.3589 257.0021,296.5824 256.603,295.5615 256.603,294.4477 256.603,294.4436 256.603,294.4395 256.603,294.4354 Z" />
								<path style="fill:#fca701;" d="M 261.412,300.84 L 261.678,300.84 261.678,297.14 C 261.678,296.7905 261.9615,296.507 262.311,296.507 262.6605,296.507 262.944,296.7905 262.944,297.14 262.944,297.4895 262.6605,297.773 262.311,297.773 L 262.011,297.773 262.011,298.04 262.311,298.04 C 262.808,298.04 263.211,297.637 263.211,297.14 263.211,296.643 262.808,296.24 262.311,296.24 261.814,296.24 261.411,296.643 261.411,297.14 L 261.412,300.84 Z" />
								<path style="fill:#fca701;" d="M 260.73,300.84 L 260.996,300.84 260.996,297.14 C 260.996,296.643 260.593,296.24 260.096,296.24 259.599,296.24 259.196,296.643 259.196,297.14 259.196,297.637 259.599,298.04 260.096,298.04 L 260.396,298.04 260.396,297.773 260.096,297.773 C 259.7465,297.773 259.463,297.4895 259.463,297.14 259.463,296.7905 259.7465,296.507 260.096,296.507 260.4455,296.507 260.729,296.7905 260.729,297.14 L 260.73,300.84 Z" />
							</g>
							<path style="fill:#1f2f6d;" d="M 259.992,303.989 L 262.442,303.989 C 262.4423,303.989 262.4426,303.989 262.443,303.989 263.057,303.989 263.555,303.491 263.555,302.877 263.555,302.8766 263.555,302.8763 263.555,302.8759 L 263.555,300.824 258.881,300.824 258.881,302.876 C 258.881,302.8778 258.881,302.8799 258.881,302.882 258.881,303.4933 259.3767,303.989 259.988,303.989 259.9894,303.989 259.9908,303.989 259.9922,303.989 Z" />
							<path style="fill:#1f2f6d;" d="M 260.346,304.923 L 262.081,304.923 C 262.081,304.923 262.081,304.923 262.081,304.923 262.3516,304.923 262.571,304.7036 262.571,304.433 L 262.571,303.923 259.856,303.923 259.856,304.433 C 259.856,304.4336 259.856,304.4343 259.856,304.435 259.856,304.7045 260.0745,304.923 260.344,304.923 260.3447,304.923 260.3454,304.923 260.3461,304.923 Z" />
						</g>
						<g>
							<path style="stroke-linejoin:round;stroke:#1f2f6d;stroke-linecap:round;stroke-miterlimit:10.0;stroke-width:1.0;fill:none;" d="M 266.933,296.67 L 270.101,298.33" />
							<path style="stroke-linejoin:round;stroke:#1f2f6d;stroke-linecap:round;stroke-miterlimit:10.0;stroke-width:1.0;fill:none;" d="M 267.924,292.987 L 271.515,291.93" />
							<path style="stroke-linejoin:round;stroke:#1f2f6d;stroke-linecap:round;stroke-miterlimit:10.0;stroke-width:1.0;fill:none;" d="M 266.132,289.721 L 267.792,286.613" />
							<path style="stroke-linejoin:round;stroke:#1f2f6d;stroke-linecap:round;stroke-miterlimit:10.0;stroke-width:1.0;fill:none;" d="M 261.462,288.577 L 261.462,284.911" />
							<path style="stroke-linejoin:round;stroke:#1f2f6d;stroke-linecap:round;stroke-miterlimit:10.0;stroke-width:1.0;fill:none;" d="M 254.981,296.67 L 251.813,298.33" />
							<path style="stroke-linejoin:round;stroke:#1f2f6d;stroke-linecap:round;stroke-miterlimit:10.0;stroke-width:1.0;fill:none;" d="M 254.501,292.987 L 250.917,291.93" />
							<path style="stroke-linejoin:round;stroke:#1f2f6d;stroke-linecap:round;stroke-miterlimit:10.0;stroke-width:1.0;fill:none;" d="M 256.811,289.721 L 255.145,286.613" />
						</g>
					</g>
				</g>
				<g>
					<path style="stroke:#ad6800;stroke-width:1.0;stroke-miterlimit:4.0;fill:#fd9f00;" d="M 303.2786,210.2235 C 310.7407,207.1326 319.2988,210.6775 322.3897,218.1396 325.4806,225.6016 321.9357,234.1598 314.4736,237.2507 307.0115,240.3416 298.4534,236.7967 295.3625,229.3346 292.2716,221.8725 295.8165,213.3144 303.2786,210.2235 Z" />
					<path style="fill-rule:evenodd;fill:#1f2f6d;" d="M 308.855,215.726 C 308.8544,215.726 308.8537,215.726 308.853,215.726 305.9943,215.726 303.676,218.0443 303.676,220.903 303.676,220.903 303.676,220.903 303.676,220.903 303.676,223.762 308.512,231.541 308.512,231.541 308.5676,231.6761 308.6981,231.7695 308.8505,231.7695 309.0029,231.7695 309.1334,231.6761 309.1881,231.5434 309.189,231.541 314.036,223.754 314.036,220.903 314.0292,218.0456 311.7127,215.7305 308.8554,215.726 Z M 308.855,217.253 C 310.4784,217.2553 311.794,218.5723 311.794,220.196 311.794,221.8211 310.4761,223.139 308.851,223.139 307.2259,223.139 305.908,221.8211 305.908,220.196 305.908,220.1949 305.908,220.1939 305.908,220.1928 305.908,220.1924 305.908,220.1917 305.908,220.191 305.908,218.5686 307.2237,217.253 308.846,217.253 308.8492,217.253 308.8523,217.253 308.8555,217.253 Z" />
				</g>
				<g>
					<path style="stroke:#6579cf;stroke-width:1.0;stroke-miterlimit:4.0;fill:#fd9f00;" d="M 71.2499,166.1311 C 76.9611,160.4199 86.2243,160.4199 91.9356,166.1311 97.6468,171.8424 97.6468,181.1056 91.9356,186.8169 86.2243,192.5281 76.9611,192.5281 71.2499,186.8169 65.5386,181.1056 65.5386,171.8424 71.2499,166.1311 Z" />
					<g>
						<path style="fill:#ffffff;" d="M 83.542,177.976 C 84.0485,177.2058 84.7992,176.6318 85.6823,176.3604 84.9962,175.9502 84.5219,175.1966 84.5219,174.3326 84.5219,173.0559 85.5573,172.0206 86.8339,172.0206 88.1106,172.0206 89.1459,173.0559 89.1459,174.3326 89.1459,175.201 88.6669,175.9578 87.9586,176.3529 89.5828,176.8885 90.7456,178.3981 90.747,180.1788 L 90.747,181.404 C 90.747,181.8513 90.3843,182.214 89.937,182.214 L 83.726,182.214 C 83.2787,182.214 82.916,181.8513 82.916,181.404 L 82.916,180.21 C 82.9155,180.1865 82.9152,180.1588 82.9152,180.131 82.9152,179.3314 83.1489,178.5863 83.5517,177.9602 Z" />
						<path style="fill:#ffffff;" d="M 72.416,177.977 C 72.9225,177.2068 73.6732,176.6328 74.5563,176.3614 73.8705,175.9511 73.3964,175.1977 73.3964,174.3338 73.3964,173.0572 74.4318,172.0218 75.7084,172.0218 76.9851,172.0218 78.0204,173.0572 78.0204,174.3338 78.0204,175.2021 77.5416,175.9587 76.8336,176.3539 78.4578,176.8895 79.6206,178.3991 79.622,180.1798 L 79.622,181.405 C 79.622,181.8523 79.2593,182.215 78.812,182.215 L 72.604,182.215 C 72.604,182.215 72.604,182.215 72.604,182.215 72.1567,182.215 71.794,181.8523 71.794,181.405 L 71.794,180.211 C 71.7935,180.1869 71.7932,180.1585 71.7932,180.1301 71.7932,179.3316 72.0253,178.5873 72.4258,177.961 Z" />
						<path style="fill:#1f2f6d;" d="M 78.001,176.085 C 78.5464,175.5529 79.2182,175.1477 79.9669,174.919 79.1103,174.4081 78.5184,173.4683 78.5184,172.3906 78.5184,170.7992 79.809,169.5086 81.4004,169.5086 82.9918,169.5086 84.2824,170.7992 84.2824,172.3906 84.2824,173.4727 83.6857,174.4157 82.8035,174.9084 84.8267,175.5767 86.2751,177.4572 86.278,179.6757 L 86.278,181.203 C 86.2774,181.7605 85.8255,182.2124 85.2681,182.213 L 77.532,182.213 C 76.9745,182.2124 76.5226,181.7605 76.522,181.2031 L 76.522,179.581 C 76.522,179.5771 76.522,179.5724 76.522,179.5677 76.522,178.2012 77.0887,176.9667 77.9998,176.0865 Z" />
					</g>
				</g>
				<g>
					<path style="stroke:#4cc171;stroke-width:1.0;stroke-miterlimit:4.0;fill:#56a8b7;" d="M 134.7025,117.6905 C 136.5586,109.8298 144.4387,104.9603 152.2994,106.8164 160.1602,108.6726 165.0296,116.5527 163.1735,124.4134 161.3173,132.2741 153.4372,137.1436 145.5765,135.2875 137.7158,133.4313 132.8463,125.5512 134.7025,117.6905 Z" />
					<path style="fill-rule:evenodd;fill:#fce001;" d="M 142.899,124.712 L 143.935,124.712 143.935,119.76 C 143.9286,119.667 143.925,119.5584 143.925,119.449 143.925,116.9274 145.8488,114.8543 148.3084,114.6175 L 148.328,112.828 C 148.3325,112.5112 148.5905,112.256 148.9079,112.256 148.9094,112.256 148.9108,112.256 148.9122,112.256 148.912,112.256 148.912,112.256 148.912,112.256 149.2273,112.256 149.483,112.5117 149.483,112.827 149.483,112.8274 149.483,112.8277 149.483,112.8281 L 149.483,114.612 C 151.9632,114.8499 153.8879,116.9237 153.8879,119.4461 153.8879,119.5551 153.8843,119.6633 153.8772,119.7705 L 153.878,124.712 154.916,124.712 C 155.0989,124.7143 155.2464,124.8628 155.247,125.0459 L 155.247,126.802 C 155.2459,126.9847 155.0986,127.1328 154.9162,127.135 L 151.54,127.135 C 151.5112,128.5656 150.3443,129.7147 148.9095,129.7147 147.4747,129.7147 146.3078,128.5656 146.279,127.1377 L 142.906,127.135 C 142.9054,127.135 142.9047,127.135 142.904,127.135 142.7212,127.135 142.573,126.9868 142.573,126.804 142.573,126.8033 142.573,126.8026 142.573,126.8019 L 142.573,125.046 C 142.573,125.0445 142.573,125.0427 142.573,125.041 142.573,124.8604 142.7186,124.7137 142.8988,124.712 Z" />
				</g>
				<g>
					<path style="stroke:#31897c;stroke-width:1.0;stroke-miterlimit:4.0;fill:#fd9f00;" d="M 117.411,149.205 C 121.6568,149.205 125.1,152.6482 125.1,156.894 125.1,161.1398 121.6568,164.583 117.411,164.583 113.1652,164.583 109.722,161.1398 109.722,156.894 109.722,152.6482 113.1652,149.205 117.411,149.205 Z" />
					<path style="fill-rule:evenodd;fill:#ffffff;" d="M 116.263,160.352 L 113.463,158.552 C 113.2853,158.4428 113.1685,158.2494 113.1685,158.0288 113.1685,157.8988 113.2091,157.7782 113.2783,157.679 L 113.526,157.308 C 113.6366,157.145 113.821,157.0392 114.03,157.0392 114.1428,157.0392 114.2483,157.07 114.3388,157.1236 L 116.451,158.49 120.178,153.578 C 120.2899,153.4231 120.4699,153.3235 120.6732,153.3235 120.816,153.3235 120.9474,153.3726 121.0512,153.455 L 121.423,153.703 C 121.5574,153.8139 121.6424,153.9805 121.6424,154.1668 121.6424,154.3237 121.5822,154.4665 121.4836,154.5734 L 117.194,160.231 C 117.0856,160.3702 116.918,160.4589 116.7297,160.4589 116.6513,160.4589 116.5765,160.4435 116.5081,160.4156 116.5076,160.4171 116.5025,160.4172 116.4974,160.4172 116.4102,160.4172 116.3283,160.3941 116.2576,160.3537 L 116.263,160.352 Z" />
				</g>
				<g>
					<path style="stroke:#b53e44;stroke-width:1.0;stroke-miterlimit:10.0;fill:#ee5a30;" d="M 281.4591,247.7756 C 283.4729,252.6374 281.1633,258.2133 276.3015,260.2272 271.4397,262.241 265.8638,259.9314 263.85,255.0696 261.8361,250.2078 264.1458,244.6319 269.0076,242.618 273.8694,240.6042 279.4453,242.9138 281.4591,247.7756 Z" />
					<path style="fill:#ffffff;" d="M 275.858,256.132 L 272.595,252.869 269.332,256.058 268.0,254.724 271.263,251.461 268.0,248.27 269.407,246.861 272.594,250.124 275.857,246.861 277.195,248.198 274.002,251.461 277.271,254.724 275.858,256.132 Z" />
				</g>
				<g>
					<path style="stroke:#56a8b7;stroke-width:1.0;stroke-miterlimit:10.0;fill:#85dae9;" d="M 110.516,141.082 L 57.974,141.082 C 56.048,141.082 54.486,139.52 54.486,137.594 L 54.486,101.548 C 54.486,99.622 56.048,98.06 57.974,98.06 57.974,98.06 57.974,98.06 57.974,98.06 L 110.515,98.06 C 110.515,98.06 110.515,98.06 110.515,98.06 112.441,98.06 114.003,99.622 114.003,101.548 L 114.003,137.594 C 114.0019,139.5192 112.4412,141.0803 110.5162,141.082 Z" />
					<g>
						<path style="stroke:#6579cf;stroke-width:1.0;stroke-miterlimit:10.0;fill:#ffffff;" d="M 57.624,108.714 L 57.624,115.222 64.132,115.222 64.132,108.714 57.624,108.714 Z" />
						<path style="stroke:#6579cf;stroke-width:1.0;stroke-miterlimit:10.0;fill:#ffffff;" d="M 65.411,108.714 L 65.411,115.222 71.919,115.222 71.919,108.714 65.411,108.714 Z" />
						<path style="stroke:#6579cf;stroke-width:1.0;stroke-miterlimit:10.0;fill:#ffffff;" d="M 73.199,108.714 L 73.199,115.222 79.707,115.222 79.707,108.714 73.199,108.714 Z" />
						<path style="stroke:#6579cf;stroke-width:1.0;stroke-miterlimit:10.0;fill:#ffffff;" d="M 80.985,108.714 L 80.985,115.222 87.493,115.222 87.493,108.714 80.985,108.714 Z" />
						<path style="stroke:#6579cf;stroke-width:1.0;stroke-miterlimit:10.0;fill:#ffffff;" d="M 88.773,108.714 L 88.773,115.222 95.281,115.222 95.281,108.714 88.773,108.714 Z" />
						<path style="stroke:#6579cf;stroke-width:1.0;stroke-miterlimit:10.0;fill:#ffffff;" d="M 96.56,108.714 L 96.56,115.222 103.068,115.222 103.068,108.714 96.56,108.714 Z" />
						<path style="stroke:#b53e44;stroke-width:1.0;stroke-miterlimit:10.0;fill:#ff6666;" d="M 104.347,108.714 L 104.347,115.222 110.855,115.222 110.855,108.714 104.347,108.714 Z" />
						<path style="stroke:#f2a446;stroke-width:1.0;stroke-miterlimit:10.0;fill:#fce001;" d="M 57.624,104.907 L 57.624,107.469 64.132,107.469 64.132,104.907 57.624,104.907 Z" />
						<path style="stroke:#f2a446;stroke-width:1.0;stroke-miterlimit:10.0;fill:#fce001;" d="M 65.411,104.907 L 65.411,107.469 71.919,107.469 71.919,104.907 65.411,104.907 Z" />
						<path style="stroke:#f2a446;stroke-width:1.0;stroke-miterlimit:10.0;fill:#fce001;" d="M 73.199,104.907 L 73.199,107.469 79.707,107.469 79.707,104.907 73.199,104.907 Z" />
						<path style="stroke:#f2a446;stroke-width:1.0;stroke-miterlimit:10.0;fill:#fce001;" d="M 80.985,104.907 L 80.985,107.469 87.493,107.469 87.493,104.907 80.985,104.907 Z" />
						<path style="stroke:#f2a446;stroke-width:1.0;stroke-miterlimit:10.0;fill:#fce001;" d="M 88.773,104.907 L 88.773,107.469 95.281,107.469 95.281,104.907 88.773,104.907 Z" />
						<path style="stroke:#f2a446;stroke-width:1.0;stroke-miterlimit:10.0;fill:#fce001;" d="M 96.56,104.907 L 96.56,107.469 103.068,107.469 103.068,104.907 96.56,104.907 Z" />
						<path style="stroke:#f2a446;stroke-width:1.0;stroke-miterlimit:10.0;fill:#fce001;" d="M 104.347,104.907 L 104.347,107.469 110.855,107.469 110.855,104.907 104.347,104.907 Z" />
						<path style="stroke:#6579cf;stroke-width:1.0;stroke-miterlimit:10.0;fill:#ffffff;" d="M 57.624,116.368 L 57.624,122.876 64.132,122.876 64.132,116.368 57.624,116.368 Z" />
						<path style="stroke:#6579cf;stroke-width:1.0;stroke-miterlimit:10.0;fill:#ffffff;" d="M 65.411,116.368 L 65.411,122.876 71.919,122.876 71.919,116.368 65.411,116.368 Z" />
						<path style="stroke:#6579cf;stroke-width:1.0;stroke-miterlimit:10.0;fill:#ffffff;" d="M 73.199,116.368 L 73.199,122.876 79.707,122.876 79.707,116.368 73.199,116.368 Z" />
						<path style="stroke:#6579cf;stroke-width:1.0;stroke-miterlimit:10.0;fill:#ffffff;" d="M 80.985,116.368 L 80.985,122.876 87.493,122.876 87.493,116.368 80.985,116.368 Z" />
						<path style="stroke:#6579cf;stroke-width:1.0;stroke-miterlimit:10.0;fill:#ffffff;" d="M 88.773,116.368 L 88.773,122.876 95.281,122.876 95.281,116.368 88.773,116.368 Z" />
						<path style="stroke:#6579cf;stroke-width:1.0;stroke-miterlimit:10.0;fill:#ffffff;" d="M 96.56,116.368 L 96.56,122.876 103.068,122.876 103.068,116.368 96.56,116.368 Z" />
						<path style="stroke:#b53e44;stroke-width:1.0;stroke-miterlimit:10.0;fill:#ff6666;" d="M 104.347,116.368 L 104.347,122.876 110.855,122.876 110.855,116.368 104.347,116.368 Z" />
						<path style="stroke:#6579cf;stroke-width:1.0;stroke-miterlimit:10.0;fill:#ffffff;" d="M 57.624,124.022 L 57.624,130.53 64.132,130.53 64.132,124.022 57.624,124.022 Z" />
						<path style="stroke:#6579cf;stroke-width:1.0;stroke-miterlimit:10.0;fill:#ffffff;" d="M 65.411,124.022 L 65.411,130.53 71.919,130.53 71.919,124.022 65.411,124.022 Z" />
						<path style="stroke:#6579cf;stroke-width:1.0;stroke-miterlimit:10.0;fill:#ffffff;" d="M 73.199,124.022 L 73.199,130.53 79.707,130.53 79.707,124.022 73.199,124.022 Z" />
						<path style="stroke:#6579cf;stroke-width:1.0;stroke-miterlimit:10.0;fill:#ffffff;" d="M 80.985,124.022 L 80.985,130.53 87.493,130.53 87.493,124.022 80.985,124.022 Z" />
						<path style="stroke:#6579cf;stroke-width:1.0;stroke-miterlimit:10.0;fill:#ffffff;" d="M 88.773,124.022 L 88.773,130.53 95.281,130.53 95.281,124.022 88.773,124.022 Z" />
						<path style="stroke:#6579cf;stroke-width:1.0;stroke-miterlimit:10.0;fill:#ffffff;" d="M 96.56,124.022 L 96.56,130.53 103.068,130.53 103.068,124.022 96.56,124.022 Z" />
						<path style="stroke:#b53e44;stroke-width:1.0;stroke-miterlimit:10.0;fill:#ff6666;" d="M 104.347,124.022 L 104.347,130.53 110.855,130.53 110.855,124.022 104.347,124.022 Z" />
						<path style="stroke:#6579cf;stroke-width:1.0;stroke-miterlimit:10.0;fill:#ffffff;" d="M 57.624,131.677 L 57.624,138.185 64.132,138.185 64.132,131.677 57.624,131.677 Z" />
						<path style="stroke:#6579cf;stroke-width:1.0;stroke-miterlimit:10.0;fill:#ffffff;" d="M 65.411,131.677 L 65.411,138.185 71.919,138.185 71.919,131.677 65.411,131.677 Z" />
						<path style="stroke:#6579cf;stroke-width:1.0;stroke-miterlimit:10.0;fill:#ffffff;" d="M 73.199,131.677 L 73.199,138.185 79.707,138.185 79.707,131.677 73.199,131.677 Z" />
						<path style="stroke:#6579cf;stroke-width:1.0;stroke-miterlimit:10.0;fill:#ffffff;" d="M 80.985,131.677 L 80.985,138.185 87.493,138.185 87.493,131.677 80.985,131.677 Z" />
						<path style="stroke:#6579cf;stroke-width:1.0;stroke-miterlimit:10.0;fill:#ffffff;" d="M 88.773,131.677 L 88.773,138.185 95.281,138.185 95.281,131.677 88.773,131.677 Z" />
						<path style="stroke:#6579cf;stroke-width:1.0;stroke-miterlimit:10.0;fill:#ffffff;" d="M 96.56,131.677 L 96.56,138.185 103.068,138.185 103.068,131.677 96.56,131.677 Z" />
						<path style="stroke:#b53e44;stroke-width:1.0;stroke-miterlimit:10.0;fill:#ff6666;" d="M 104.347,131.677 L 104.347,138.185 110.855,138.185 110.855,131.677 104.347,131.677 Z" />
					</g>
					<path style="fill:#ff6666;" d="M 61.927,113.475 L 60.867,112.414 59.807,113.451 59.373,113.017 60.433,111.956 59.373,110.919 59.832,110.461 60.868,111.522 61.928,110.461 62.363,110.896 61.326,111.957 62.387,113.018 61.927,113.475 Z" />
					<path style="fill:#ff6666;" d="M 85.29,121.14 L 84.23,120.079 83.17,121.116 82.735,120.682 83.795,119.621 82.734,118.579 83.195,118.121 84.23,119.182 85.29,118.121 85.725,118.556 84.684,119.617 85.751,120.678 85.29,121.14 Z" />
					<path style="fill:#ff6666;" d="M 69.714,128.784 L 68.654,127.723 67.593,128.76 67.159,128.326 68.219,127.265 67.159,126.227 67.618,125.769 68.654,126.83 69.714,125.769 70.149,126.203 69.112,127.264 70.173,128.325 69.714,128.784 Z" />
					<g>
						<path style="stroke:#1f2f6d;stroke-width:1.0;stroke-miterlimit:10.0;fill:#266193;" d="M 60.554,101.409 L 60.242,101.409 C 60.2417,101.409 60.2414,101.409 60.241,101.409 59.6176,101.409 59.112,100.9034 59.112,100.28 59.112,100.2796 59.112,100.2793 59.112,100.2789 L 59.112,96.3 C 59.112,95.676 59.618,95.17 60.242,95.17 60.242,95.17 60.242,95.17 60.242,95.17 L 60.552,95.17 C 60.5523,95.17 60.5526,95.17 60.553,95.17 61.1764,95.17 61.682,95.6756 61.682,96.299 61.682,96.2994 61.682,96.2997 61.682,96.3001 L 61.682,100.28 C 61.6814,100.9028 61.1768,101.4079 60.5541,101.409 Z" />
						<path style="stroke:#1f2f6d;stroke-width:1.0;stroke-miterlimit:10.0;fill:#266193;" d="M 65.321,101.409 L 65.011,101.409 C 65.0107,101.409 65.0104,101.409 65.01,101.409 64.3866,101.409 63.881,100.9034 63.881,100.28 63.881,100.2796 63.881,100.2793 63.881,100.2789 L 63.881,96.3 C 63.881,95.676 64.387,95.17 65.011,95.17 65.011,95.17 65.011,95.17 65.011,95.17 L 65.321,95.17 C 65.3222,95.17 65.3236,95.17 65.325,95.17 65.9484,95.17 66.454,95.6756 66.454,96.299 66.454,96.2993 66.454,96.2997 66.454,96.3001 L 66.454,100.28 C 66.454,100.28 66.454,100.28 66.454,100.28 66.454,100.9034 65.9484,101.409 65.325,101.409 65.3236,101.409 65.3222,101.409 65.3208,101.409 Z" />
						<path style="stroke:#1f2f6d;stroke-width:1.0;stroke-miterlimit:10.0;fill:#266193;" d="M 70.09,101.409 L 69.78,101.409 C 69.7797,101.409 69.7794,101.409 69.779,101.409 69.1556,101.409 68.65,100.9034 68.65,100.28 68.65,100.2796 68.65,100.2793 68.65,100.2789 L 68.65,96.3 C 68.65,95.676 69.156,95.17 69.78,95.17 69.78,95.17 69.78,95.17 69.78,95.17 L 70.09,95.17 C 70.0903,95.17 70.0906,95.17 70.091,95.17 70.7144,95.17 71.22,95.6756 71.22,96.299 71.22,96.2994 71.22,96.2997 71.22,96.3001 L 71.22,100.28 C 71.22,100.28 71.22,100.28 71.22,100.28 71.22,100.9034 70.7144,101.409 70.091,101.409 70.0906,101.409 70.0903,101.409 70.0899,101.409 Z" />
						<path style="stroke:#1f2f6d;stroke-width:1.0;stroke-miterlimit:10.0;fill:#266193;" d="M 74.859,101.409 L 74.549,101.409 C 74.5487,101.409 74.5484,101.409 74.548,101.409 73.9246,101.409 73.419,100.9034 73.419,100.28 73.419,100.2796 73.419,100.2793 73.419,100.2789 L 73.419,96.3 C 73.419,95.676 73.925,95.17 74.549,95.17 74.549,95.17 74.549,95.17 74.549,95.17 L 74.859,95.17 C 74.8593,95.17 74.8596,95.17 74.86,95.17 75.4834,95.17 75.989,95.6756 75.989,96.299 75.989,96.2994 75.989,96.2997 75.989,96.3001 L 75.989,100.28 C 75.9879,100.9033 75.4824,101.4084 74.8591,101.409 Z" />
						<path style="stroke:#1f2f6d;stroke-width:1.0;stroke-miterlimit:10.0;fill:#266193;" d="M 79.629,101.409 L 79.319,101.409 C 79.3187,101.409 79.3184,101.409 79.318,101.409 78.6946,101.409 78.189,100.9034 78.189,100.28 78.189,100.2796 78.189,100.2793 78.189,100.2789 L 78.189,96.3 C 78.189,95.676 78.695,95.17 79.319,95.17 79.319,95.17 79.319,95.17 79.319,95.17 L 79.629,95.17 C 79.6293,95.17 79.6296,95.17 79.63,95.17 80.2534,95.17 80.759,95.6756 80.759,96.299 80.759,96.2994 80.759,96.2997 80.759,96.3001 L 80.759,100.28 C 80.759,100.28 80.759,100.28 80.759,100.28 80.759,100.9034 80.2534,101.409 79.63,101.409 79.6296,101.409 79.6293,101.409 79.6289,101.409 Z" />
						<path style="stroke:#1f2f6d;stroke-width:1.0;stroke-miterlimit:10.0;fill:#266193;" d="M 84.393,101.409 L 84.083,101.409 C 84.0827,101.409 84.0824,101.409 84.082,101.409 83.4586,101.409 82.953,100.9034 82.953,100.28 82.953,100.2796 82.953,100.2793 82.953,100.2789 L 82.953,96.3 C 82.953,96.2997 82.953,96.2994 82.953,96.299 82.953,95.6756 83.4586,95.17 84.082,95.17 84.0824,95.17 84.0827,95.17 84.0831,95.17 L 84.393,95.17 C 84.3933,95.17 84.3936,95.17 84.394,95.17 85.0174,95.17 85.523,95.6756 85.523,96.299 85.523,96.2994 85.523,96.2997 85.523,96.3001 L 85.523,100.28 C 85.523,100.28 85.523,100.28 85.523,100.28 85.523,100.9034 85.0174,101.409 84.394,101.409 84.3936,101.409 84.3933,101.409 84.3929,101.409 Z" />
						<path style="stroke:#1f2f6d;stroke-width:1.0;stroke-miterlimit:10.0;fill:#266193;" d="M 89.163,101.409 L 88.853,101.409 C 88.8527,101.409 88.8524,101.409 88.852,101.409 88.2286,101.409 87.723,100.9034 87.723,100.28 87.723,100.2796 87.723,100.2793 87.723,100.2789 L 87.723,96.3 C 87.723,95.676 88.229,95.17 88.853,95.17 L 89.163,95.17 C 89.1633,95.17 89.1636,95.17 89.164,95.17 89.7874,95.17 90.293,95.6756 90.293,96.299 90.293,96.2994 90.293,96.2997 90.293,96.3001 L 90.293,100.28 C 90.293,100.28 90.293,100.28 90.293,100.28 90.293,100.9034 89.7874,101.409 89.164,101.409 89.1636,101.409 89.1633,101.409 89.1629,101.409 Z" />
						<path style="stroke:#1f2f6d;stroke-width:1.0;stroke-miterlimit:10.0;fill:#266193;" d="M 93.934,101.409 L 93.624,101.409 C 93.6237,101.409 93.6234,101.409 93.623,101.409 92.9996,101.409 92.494,100.9034 92.494,100.28 92.494,100.2796 92.494,100.2793 92.494,100.2789 L 92.494,96.3 C 92.494,95.676 93.0,95.17 93.624,95.17 L 93.934,95.17 C 93.9343,95.17 93.9346,95.17 93.935,95.17 94.5584,95.17 95.064,95.6756 95.064,96.299 95.064,96.2994 95.064,96.2997 95.064,96.3001 L 95.064,100.28 C 95.064,100.28 95.064,100.28 95.064,100.28 95.064,100.9034 94.5584,101.409 93.935,101.409 93.9346,101.409 93.9343,101.409 93.9339,101.409 Z" />
						<path style="stroke:#1f2f6d;stroke-width:1.0;stroke-miterlimit:10.0;fill:#266193;" d="M 98.699,101.409 L 98.389,101.409 C 98.3887,101.409 98.3884,101.409 98.388,101.409 97.7646,101.409 97.259,100.9034 97.259,100.28 97.259,100.2796 97.259,100.2793 97.259,100.2789 L 97.259,96.3 C 97.259,95.676 97.765,95.17 98.389,95.17 98.389,95.17 98.389,95.17 98.389,95.17 L 98.699,95.17 C 98.6993,95.17 98.6996,95.17 98.7,95.17 99.3234,95.17 99.829,95.6756 99.829,96.299 99.829,96.2994 99.829,96.2997 99.829,96.3001 L 99.829,100.28 C 99.829,100.28 99.829,100.28 99.829,100.28 99.829,100.9034 99.3234,101.409 98.7,101.409 98.6996,101.409 98.6993,101.409 98.6989,101.409 Z" />
						<path style="stroke:#1f2f6d;stroke-width:1.0;stroke-miterlimit:10.0;fill:#266193;" d="M 103.47,101.409 L 103.16,101.409 C 103.1597,101.409 103.1594,101.409 103.159,101.409 102.5356,101.409 102.03,100.9034 102.03,100.28 102.03,100.2796 102.03,100.2793 102.03,100.2789 L 102.03,96.3 C 102.03,95.676 102.536,95.17 103.16,95.17 L 103.47,95.17 C 103.4703,95.17 103.4706,95.17 103.471,95.17 104.0944,95.17 104.6,95.6756 104.6,96.299 104.6,96.2994 104.6,96.2997 104.6,96.3001 L 104.6,100.28 C 104.6,100.28 104.6,100.28 104.6,100.28 104.6,100.9034 104.0944,101.409 103.471,101.409 103.4706,101.409 103.4703,101.409 103.4699,101.409 Z" />
						<path style="stroke:#1f2f6d;stroke-width:1.0;stroke-miterlimit:10.0;fill:#266193;" d="M 108.234,101.409 L 107.924,101.409 C 107.9237,101.409 107.9234,101.409 107.923,101.409 107.2996,101.409 106.794,100.9034 106.794,100.28 106.794,100.2796 106.794,100.2793 106.794,100.2789 L 106.794,96.3 C 106.794,95.676 107.3,95.17 107.924,95.17 L 108.234,95.17 C 108.2343,95.17 108.2346,95.17 108.235,95.17 108.8584,95.17 109.364,95.6756 109.364,96.299 109.364,96.2994 109.364,96.2997 109.364,96.3001 L 109.364,100.28 C 109.364,100.2812 109.364,100.2826 109.364,100.284 109.364,100.9052 108.8602,101.409 108.239,101.409 108.2372,101.409 108.2355,101.409 108.2337,101.409 Z" />
					</g>
				</g>
			</g>
		</g>
	</g>
</g>
</svg>