<svg xmlns="http://www.w3.org/2000/svg" width="51.407" height="44.315" viewBox="0 0 51.407 44.315">
  <path id="home-delivery-icon" d="M0,32.076H24.526v2.2H0ZM41.208,2.928H38.318c-.125,0-.188.109-.222.23l-.418,1.548c-.033.121.1.23.222.23h2.175a5.764,5.764,0,0,0-.289,1.757,5.415,5.415,0,1,0,10.83,0,5.5,5.5,0,0,0-5.438-5.576A5.308,5.308,0,0,0,41.208,2.928Zm8.944,27.278,1.255,11.177c-.033,3.543-4.8,3.886-5.321.966l-.908-10.818-1.255,10.2C42.8,45.692,38.159,44.212,38.6,41.2l.795-4.6.678-7.73c-1.121-3.008-.138-5.02-.2-8.542-2.012,2.037-3.572,3.522-6.63,3.618-.966-.038-2.51-.109-3.476-.218-1.18-.134-2.008-.084-2.748-1.15a2.073,2.073,0,0,1,1.87-3.3c1.673.151,4.752.531,5.9-.887,1.2-1.142,2.121-2.74,3.681-3.246,8.785-2.853,10.964-1.736,11.713,1.406a91.358,91.358,0,0,1,.418,9.538,19.191,19.191,0,0,1-.418,4.129ZM26.442,11.2v6.919a3.861,3.861,0,0,0-.795.837,3.694,3.694,0,0,0-.489,1.067l-2.3-1.372.067-9.684,3.514,2.217Zm1.472-3.146L31.4,10.04l-4.539.573-3.179-2,4.229-.556Zm-.749,9.621V11.294l4.731-.6.155,4.518,1.673-1.129,1.673.937-.343-4.727,2.836-.322v3.418a8.661,8.661,0,0,0-2.66,2.376,13.937,13.937,0,0,1-1,1.1l-.117.125c-.732.862-3.242.632-4.832.485-.644-.059.837.067-.33-.033a3.108,3.108,0,0,0-1.79.238Zm7.421-8.053-3.384-2,1.426-.142,4.3,1.891ZM21.577,31.089V0H2.949V31.089ZM6.22,15.059l1.974-.883v6.158L6.22,19.782V15.059Z" fill="#85dae9" fill-rule="evenodd"/>
</svg>
