<svg xmlns="http://www.w3.org/2000/svg" width="16" height="17" viewBox="0 0 16 17">
  <g id="Iconly_Broken_Login" data-name="Iconly/Broken/Login" transform="translate(16 17) rotate(180)">
    <g id="Login">
      <path id="Login-2" data-name="Login" d="M7.84,17a3.833,3.833,0,0,1-3.883-3.771v-.8a.674.674,0,0,1,1.348,0v.8A2.5,2.5,0,0,0,7.84,15.691h4.267a2.511,2.511,0,0,0,2.545-2.471.674.674,0,0,1,1.348,0A3.842,3.842,0,0,1,12.107,17Zm-.033-5.565a.662.662,0,0,1,0-.926L9.15,9.155H.645a.655.655,0,0,1,0-1.31H10.713a.645.645,0,0,1,.6.405.663.663,0,0,1-.141.714L8.72,11.436a.64.64,0,0,1-.913,0Zm6.844-1.191V3.771a2.5,2.5,0,0,0-2.535-2.463H7.849A2.511,2.511,0,0,0,5.3,3.78v.791a.674.674,0,0,1-1.348,0V3.78A3.842,3.842,0,0,1,7.849,0h4.267A3.834,3.834,0,0,1,16,3.771v6.472a.675.675,0,0,1-1.349,0ZM8.427,7.111l-.616-.617a.661.661,0,0,1-.005-.926.638.638,0,0,1,.913-.005l.618.619a.66.66,0,0,1,0,.925.631.631,0,0,1-.458.194A.64.64,0,0,1,8.427,7.111Z" fill="#fd9f00"/>
    </g>
  </g>
</svg>
