<svg id="Iconly_Light-outline_Arrow_-_Left" data-name="Iconly/Light-outline/Arrow - Left" xmlns="http://www.w3.org/2000/svg" width="18" height="15" viewBox="0 0 18 15">
  <g id="Arrow_-_Left" data-name="Arrow - Left" transform="translate(-0.5 -0.5)">
    <path id="Arrow_-_Left-2" data-name="Arrow - Left" d="M6.676,17.285l-.006-.1V.818A.818.818,0,0,1,7.183.062.841.841,0,0,1,8,.168l.083.073,6.671,6.6a.81.81,0,0,1,0,1.157.839.839,0,0,1-1.09.071L13.581,8,8.33,2.8V17.182a.831.831,0,0,1-1.654.1ZM.244,8A.81.81,0,0,1,.167,6.925L.242,6.84,3.92,3.2A.841.841,0,0,1,5.1,3.2a.808.808,0,0,1,.077,1.073L5.1,4.355,1.418,8A.839.839,0,0,1,.244,8Z" transform="translate(0.5 15.5) rotate(-90)"/>
  </g>
</svg>
