<svg xmlns="http://www.w3.org/2000/svg" xmlns:xlink="http://www.w3.org/1999/xlink" width="444.504" height="965.019" viewBox="0 0 444.504 965.019">
  <defs>
    <clipPath id="clip-path">
      <path id="Path_8937" data-name="Path 8937" d="M851.636,1099.659h409.232a17.624,17.624,0,0,0,17.636-17.636V152.276a17.624,17.624,0,0,0-17.636-17.636H851.636A17.624,17.624,0,0,0,834,152.276v929.747A17.64,17.64,0,0,0,851.636,1099.659Z" transform="translate(-834 -134.64)"/>
    </clipPath>
  </defs>
  <g id="_4409044" data-name="4409044" transform="translate(-834 -134.64)">
    <g id="OBJECTS" transform="translate(834 134.64)">
      <g id="Group_2858" data-name="Group 2858" transform="translate(0 0)">
        <path id="Path_8926" data-name="Path 8926" d="M851.636,1099.659h409.232a17.624,17.624,0,0,0,17.636-17.636V152.276a17.624,17.624,0,0,0-17.636-17.636H851.636A17.624,17.624,0,0,0,834,152.276v929.747A17.64,17.64,0,0,0,851.636,1099.659Z" transform="translate(-834 -134.64)" fill="#85dae9" opacity="0.25"/>
        <g id="Group_2857" data-name="Group 2857">
          <g id="Group_2801" data-name="Group 2801" transform="translate(0 0)" clip-path="url(#clip-path)">
            <g id="Group_2800" data-name="Group 2800" transform="translate(-67.399 24.071)">
              <g id="Group_2799" data-name="Group 2799">
                <path id="Path_8927" data-name="Path 8927" d="M1035.94,594.65l-41.562-13.741,26.006-78.6,60.238,19.934-11.394,34.449L898.892,500.326l-28.885,87.381,136.927,45.287-30,90.647-65.826-21.773L950.518,582.8,989.975,463.53,900.948,286.517,806.14,255.14" transform="translate(-806.14 12.302)" fill="none" stroke="#fff" stroke-miterlimit="10" stroke-width="1"/>
                <path id="Path_8928" data-name="Path 8928" d="M872.42,489.956,1445.238,201.95,1364.17,446.918,1313.609,430.2l-280.216,140.87" transform="translate(-712.076 -63.185)" fill="none" stroke="#e5d0cc" stroke-miterlimit="10" stroke-width="1"/>
                <path id="Path_8929" data-name="Path 8929" d="M900.97,412.143l89.293-44.876L933.218,253.783l136.491-68.633L1201.023,228.6l-39.53,119.46,155.869,51.577" transform="translate(-671.558 -87.027)" fill="none" stroke="#fff" stroke-miterlimit="10" stroke-width="1"/>
                <path id="Path_8930" data-name="Path 8930" d="M1096.48,339.308,1037.065,221.13,887.51,296.319" transform="translate(-690.66 -35.964)" fill="none" stroke="#e5d0cc" stroke-miterlimit="10" stroke-width="1"/>
                <path id="Path_8931" data-name="Path 8931" d="M991.18,261.68l120.065,238.751,49.545-149.8" transform="translate(-543.531 21.584)" fill="none" stroke="#fff" stroke-miterlimit="10" stroke-width="1"/>
                <line id="Line_238" data-name="Line 238" x1="64.036" y1="127.347" transform="translate(318.826 348.316)" fill="none" stroke="#fff" stroke-miterlimit="10" stroke-width="1"/>
                <path id="Path_8932" data-name="Path 8932" d="M1027.714,348.05l79.2,26.2L1077.163,464.2,958.694,822.261l-10.258,30.966L897.9,836.51" transform="translate(-675.914 144.16)" fill="none" stroke="#e5d0cc" stroke-miterlimit="10" stroke-width="1"/>
                <line id="Line_239" data-name="Line 239" y1="57.843" x2="19.136" transform="translate(442.205 454.834)" fill="none" stroke="#fff" stroke-miterlimit="10" stroke-width="1"/>
                <line id="Line_240" data-name="Line 240" y1="28.716" x2="57.093" transform="translate(482.243 465.502)" fill="none" stroke="#fff" stroke-miterlimit="10" stroke-width="1"/>
                <path id="Path_8933" data-name="Path 8933" d="M1055.478,388.781l-45.215-89.97-69.552,34.982-43.231-86" transform="translate(-676.51 1.871)" fill="none" stroke="#fff" stroke-miterlimit="10" stroke-width="1"/>
                <path id="Path_8934" data-name="Path 8934" d="M1198.1,651,898.7,551.931l61.98-187.294,132.983-66.867,146.023,290.425-22.813,69.02Z" transform="translate(-674.779 72.803)" fill="none" stroke="#fff" stroke-miterlimit="10" stroke-width="1"/>
                <path id="Path_8935" data-name="Path 8935" d="M971.712,436.684l-45.8,23.007L873.2,354.843,839.43,287.637,886.749,144.59,930.8,159.154" transform="translate(-758.895 -144.59)" fill="none" stroke="#fff" stroke-miterlimit="10" stroke-width="1"/>
                <path id="Path_8936" data-name="Path 8936" d="M843.99,333.07l52.569,17.394-45.7,138.088" transform="translate(-752.423 122.901)" fill="none" stroke="#fff" stroke-miterlimit="10" stroke-width="1"/>
              </g>
            </g>
          </g>
          <g id="Group_2802" data-name="Group 2802" transform="translate(0 0)" clip-path="url(#clip-path)">
            <path id="Path_8938" data-name="Path 8938" d="M956.35,330.8l127.323-64.012,63.286,125.871" transform="translate(-660.361 52.907)" fill="none" stroke="#fff" stroke-miterlimit="10" stroke-width="1"/>
          </g>
          <g id="Group_2803" data-name="Group 2803" transform="translate(0 0)" clip-path="url(#clip-path)">
            <path id="Path_8940" data-name="Path 8940" d="M1131.206,417.59l-95.7,289.264-17.418,52.666L808.17,690.064l18.773-54.625,21.531-65.052-33.433-11.056" transform="translate(-870.658 266.922)" fill="none" stroke="#fff" stroke-miterlimit="10" stroke-width="1"/>
          </g>
          <g id="Group_2804" data-name="Group 2804" transform="translate(0 0)" clip-path="url(#clip-path)">
            <path id="Path_8942" data-name="Path 8942" d="M840.234,376.21,809.8,468.164l105.09,34.764" transform="translate(-868.345 208.196)" fill="none" stroke="#fff" stroke-miterlimit="10" stroke-width="1"/>
          </g>
          <g id="Group_2805" data-name="Group 2805" transform="translate(0 0)" clip-path="url(#clip-path)">
            <line id="Line_241" data-name="Line 241" x2="138.644" y2="45.892" transform="translate(-105.477 406.595)" fill="none" stroke="#fff" stroke-miterlimit="10" stroke-width="1"/>
          </g>
          <g id="Group_2806" data-name="Group 2806" transform="translate(0 0)" clip-path="url(#clip-path)">
            <path id="Path_8945" data-name="Path 8945" d="M912.549,363.407,831.361,336.53,787.38,469.465l19.45,6.435,335.882,111.138" transform="translate(-900.163 151.882)" fill="none" stroke="#fff" stroke-miterlimit="10" stroke-width="1"/>
          </g>
          <g id="Group_2807" data-name="Group 2807" transform="translate(0 0)" clip-path="url(#clip-path)">
            <path id="Path_8947" data-name="Path 8947" d="M936.519,507.644,885.6,661.53,788.489,629.4,826.857,513.45,753.87,489.307,796.835,359.42" transform="translate(-947.72 184.368)" fill="none" stroke="#fff" stroke-miterlimit="10" stroke-width="1"/>
          </g>
          <g id="Group_2808" data-name="Group 2808" transform="translate(0 0)" clip-path="url(#clip-path)">
            <path id="Path_8949" data-name="Path 8949" d="M974.78,586.7l-155.7-51.5L761.6,516.176,808.145,375.5l25.789,8.54" transform="translate(-936.75 207.188)" fill="none" stroke="#fff" stroke-miterlimit="10" stroke-width="1"/>
          </g>
          <g id="Group_2809" data-name="Group 2809" transform="translate(0 0)" clip-path="url(#clip-path)">
            <path id="Path_8951" data-name="Path 8951" d="M856.846,417.44l-7.935,23.926-24.773-8.2L793.27,526.449l48.553,16.064" transform="translate(-891.804 266.71)" fill="none" stroke="#fff" stroke-miterlimit="10" stroke-width="1"/>
          </g>
          <g id="Group_2810" data-name="Group 2810" transform="translate(0 0)" clip-path="url(#clip-path)">
            <path id="Path_8953" data-name="Path 8953" d="M838.09,589.119l66.068,21.87,14.878-44.973,25.474,8.443,27.6-83.39L953.171,484.8l14.3-43.231-23.781-7.862" transform="translate(-828.195 289.8)" fill="none" stroke="#fff" stroke-miterlimit="10" stroke-width="1"/>
          </g>
          <g id="Group_2811" data-name="Group 2811" transform="translate(0 0)" clip-path="url(#clip-path)">
            <line id="Line_242" data-name="Line 242" x2="91.542" y2="30.288" transform="translate(38.03 793.884)" fill="none" stroke="#fff" stroke-miterlimit="10" stroke-width="1"/>
          </g>
          <g id="Group_2812" data-name="Group 2812" transform="translate(0 0)" clip-path="url(#clip-path)">
            <path id="Path_8956" data-name="Path 8956" d="M867.68,500.09l266.741,88.252,4.6-13.862" transform="translate(-786.201 384.006)" fill="none" stroke="#fff" stroke-miterlimit="10" stroke-width="1"/>
          </g>
          <g id="Group_2813" data-name="Group 2813" transform="translate(0 0)" clip-path="url(#clip-path)">
            <path id="Path_8958" data-name="Path 8958" d="M1055.17,239.051,923.638,195.53l-34.3,103.687L815.04,274.638" transform="translate(-860.908 -48.225)" fill="none" stroke="#fff" stroke-miterlimit="10" stroke-width="1"/>
          </g>
          <g id="Group_2814" data-name="Group 2814" transform="translate(0 0)" clip-path="url(#clip-path)">
            <path id="Path_8960" data-name="Path 8960" d="M923.65,128.74l77.535,25.644-44.2,133.637" transform="translate(-706.769 -143.013)" fill="none" stroke="#fff" stroke-miterlimit="10" stroke-width="1"/>
          </g>
          <g id="Group_2815" data-name="Group 2815" transform="translate(0 0)" clip-path="url(#clip-path)">
            <path id="Path_8962" data-name="Path 8962" d="M1000.1,154.03l195.181,64.593-29.466,89.051-105.477-34.909" transform="translate(-598.271 -107.122)" fill="none" stroke="#fff" stroke-miterlimit="10" stroke-width="1"/>
          </g>
          <g id="Group_2816" data-name="Group 2816" transform="translate(0 0)" clip-path="url(#clip-path)">
            <path id="Path_8964" data-name="Path 8964" d="M1099.474,433.9l59.174-178.779L1196.8,139.772,1008.73,77.55,979.24,166.7" transform="translate(-627.875 -215.662)" fill="none" stroke="#fff" stroke-miterlimit="10" stroke-width="1"/>
          </g>
          <g id="Group_2817" data-name="Group 2817" transform="translate(0 0)" clip-path="url(#clip-path)">
            <line id="Line_243" data-name="Line 243" x2="63.818" y2="21.12" transform="translate(584.043 150.716)" fill="none" stroke="#fff" stroke-miterlimit="10" stroke-width="1"/>
          </g>
          <g id="Group_2818" data-name="Group 2818" transform="translate(0 0)" clip-path="url(#clip-path)">
            <path id="Path_8967" data-name="Path 8967" d="M1116.59,475.42l71.8,23.757-38.441,116.242-6.556-2.177L1057.1,584.7l-5.419,16.378L1034.7,652.36l-24.724,74.778L872.59,681.681,915.119,553.1" transform="translate(-779.233 348.995)" fill="none" stroke="#fff" stroke-miterlimit="10" stroke-width="1"/>
          </g>
          <g id="Group_2819" data-name="Group 2819" transform="translate(0 0)" clip-path="url(#clip-path)">
            <path id="Path_8969" data-name="Path 8969" d="M776.378,413.11,738.01,529.062,811,553.206" transform="translate(-970.229 260.564)" fill="none" stroke="#fff" stroke-miterlimit="10" stroke-width="1"/>
          </g>
          <g id="Group_2820" data-name="Group 2820" transform="translate(0 0)" clip-path="url(#clip-path)">
            <path id="Path_8971" data-name="Path 8971" d="M898.06,87.54l270.466,89.486-8.661,26.2-44.417,134.217" transform="translate(-743.086 -201.484)" fill="none" stroke="#fff" stroke-miterlimit="10" stroke-width="1"/>
          </g>
          <g id="Group_2821" data-name="Group 2821" transform="translate(0 0)" clip-path="url(#clip-path)">
            <path id="Path_8973" data-name="Path 8973" d="M952.18,191.724l78.672,26.031L1063,120.6" transform="translate(-666.279 -154.566)" fill="none" stroke="#fff" stroke-miterlimit="10" stroke-width="1"/>
          </g>
          <g id="Group_2822" data-name="Group 2822" transform="translate(0 0)" clip-path="url(#clip-path)">
            <line id="Line_244" data-name="Line 244" x1="53.101" y2="160.514" transform="translate(466.131 -92.317)" fill="none" stroke="#fff" stroke-miterlimit="10" stroke-width="1"/>
          </g>
          <g id="Group_2823" data-name="Group 2823" transform="translate(0 0)" clip-path="url(#clip-path)">
            <path id="Path_8976" data-name="Path 8976" d="M1097.72,485.24l127.492,42.191-26.635,80.511-262.1-86.7" transform="translate(-688.561 362.931)" fill="none" stroke="#fff" stroke-miterlimit="10" stroke-width="1"/>
          </g>
          <g id="Group_2824" data-name="Group 2824" transform="translate(0 0)" clip-path="url(#clip-path)">
            <path id="Path_8978" data-name="Path 8978" d="M1400.936,794.408,1297.322,588.365,1202.756,635.9,995.164,223.065l-90.43-29.925L771.63,595.4,842,618.677,910.4,641.321l56.875-171.86,78.31-39.385,43.546,86.656,42.8-21.7" transform="translate(-922.516 -51.617)" fill="none" stroke="#e5d0cc" stroke-miterlimit="10" stroke-width="3"/>
          </g>
          <g id="Group_2825" data-name="Group 2825" transform="translate(0 0)" clip-path="url(#clip-path)">
            <path id="Path_8980" data-name="Path 8980" d="M984.278,346.4l-83.9,253.653,176.771,58.472,47.392-143.289-60.407-19.983" transform="translate(-739.794 165.89)" fill="none" stroke="#e5d0cc" stroke-miterlimit="10" stroke-width="3"/>
          </g>
          <g id="Group_2826" data-name="Group 2826" transform="translate(0 0)" clip-path="url(#clip-path)">
            <path id="Path_8982" data-name="Path 8982" d="M958.62,272.142l110.315-55.472,202.511,67.012" transform="translate(-657.139 -18.223)" fill="none" stroke="#e5d0cc" stroke-miterlimit="10" stroke-width="3"/>
          </g>
          <g id="Group_2827" data-name="Group 2827" transform="translate(0 0)" clip-path="url(#clip-path)">
            <path id="Path_8984" data-name="Path 8984" d="M879,479.37l-17.9,54.118L819.75,519.819" transform="translate(-854.224 354.6)" fill="none" stroke="#e5d0cc" stroke-miterlimit="10" stroke-width="3"/>
          </g>
          <g id="Group_2828" data-name="Group 2828" clip-path="url(#clip-path)">
            <line id="Line_245" data-name="Line 245" y1="88.978" x2="29.442" transform="translate(24.773 744.992)" fill="none" stroke="#e5d0cc" stroke-miterlimit="10" stroke-width="3"/>
          </g>
          <g id="Group_2829" data-name="Group 2829" transform="translate(0 0)" clip-path="url(#clip-path)">
            <path id="Path_8987" data-name="Path 8987" d="M1184.487,411.852,945.373,332.745l74.535-225.324L934.39,79.14,877.2,252.04l85.494,28.28" transform="translate(-772.691 -213.406)" fill="none" stroke="#e5d0cc" stroke-miterlimit="10" stroke-width="3"/>
          </g>
          <g id="Group_2830" data-name="Group 2830" transform="translate(0 0)" clip-path="url(#clip-path)">
            <circle id="Ellipse_2314" data-name="Ellipse 2314" cx="20.563" cy="20.563" r="20.563" transform="translate(120.498 286.967)" fill="#fff"/>
            <circle id="Ellipse_2315" data-name="Ellipse 2315" cx="16.91" cy="16.91" r="16.91" transform="translate(124.15 290.62)" fill="#4cc171"/>
            <path id="Path_9013" data-name="Path 9013" d="M12.41,0A12.41,12.41,0,1,1,0,12.41,12.41,12.41,0,0,1,12.41,0Z" transform="translate(377.15 557.62)" fill="#4cc171"/>
          </g>
          <g id="Group_2831" data-name="Group 2831" transform="translate(0 0)" clip-path="url(#clip-path)">
            <text id="Franklin_Park" data-name="Franklin Park" transform="matrix(0.448, 0.894, -0.894, 0.448, 103.228, 203.414)" fill="#25282b" font-size="13" font-family="SegoeUI, Segoe UI"><tspan x="0" y="0">Franklin Park</tspan></text>
          </g>
          <g id="Group_2833" data-name="Group 2833" transform="translate(0 0)" clip-path="url(#clip-path)">
            <g id="Group_2832" data-name="Group 2832" transform="translate(68.3 356.888)">
              <text id="National_Street" data-name="National Street" transform="translate(4.065 34.39) rotate(-26.855)" fill="#ceaca7" font-size="8" font-family="SegoeUI, Segoe UI"><tspan x="0" y="0">National Street</tspan></text>
            </g>
          </g>
          <g id="Group_2835" data-name="Group 2835" transform="translate(0 0)" clip-path="url(#clip-path)">
            <g id="Group_2834" data-name="Group 2834" transform="translate(215.706 595.467)">
              <text id="Summer_Park" data-name="Summer Park" transform="translate(8.549 53.3) rotate(-71.784)" fill="#ceaca7" font-size="8" font-family="SegoeUI, Segoe UI"><tspan x="0" y="0">Summer Park</tspan></text>
            </g>
          </g>
          <g id="Group_2837" data-name="Group 2837" transform="translate(0 0)" clip-path="url(#clip-path)">
            <g id="Group_2836" data-name="Group 2836" transform="translate(78.972 631.081)">
              <text id="Nation_Ave" data-name="Nation Ave" transform="translate(0.77 8.549) rotate(18.216)" fill="#ceaca7" font-size="8" font-family="SegoeUI, Segoe UI"><tspan x="0" y="0">Nation Ave</tspan></text>
            </g>
          </g>
          <g id="Group_2839" data-name="Group 2839" transform="translate(0 0)" clip-path="url(#clip-path)">
            <text id="Sean_Street" data-name="Sean Street" transform="translate(122.217 514.64)" fill="#25282b" font-size="9" font-family="SegoeUI, Segoe UI"><tspan x="0" y="0">Sean Street</tspan></text>
          </g>
          <g id="Group_2840" data-name="Group 2840" transform="translate(0 0)" clip-path="url(#clip-path)">
            <text id="Coffee_Shop" data-name="Coffee Shop" transform="translate(164.429 300.704)" fill="#4cc171" font-size="9" font-family="SegoeUI, Segoe UI"><tspan x="0" y="0">Coffee Shop</tspan></text>
          </g>
          <g id="Group_2848" data-name="Group 2848" transform="translate(0 0)" clip-path="url(#clip-path)">
            <text id="Bronx" transform="translate(114.115 61.665) rotate(19.323)" fill="#ceaca7" font-size="8" font-family="SegoeUI, Segoe UI"><tspan x="0" y="0">Bronx</tspan></text>
          </g>
          <g id="Group_2849" data-name="Group 2849" transform="translate(0 0)" clip-path="url(#clip-path)">
            <text id="Liberty_City" data-name="Liberty City" transform="translate(216.578 46.695) rotate(0.877)" fill="#ceaca7" font-size="8" font-family="SegoeUI, Segoe UI"><tspan x="0" y="0">Liberty City</tspan></text>
          </g>
          <g id="Group_2850" data-name="Group 2850" transform="translate(0 0)" clip-path="url(#clip-path)">
            <text id="Broadway" transform="translate(350.548 264.796)" fill="#ceaca7" font-size="8" font-family="SegoeUI, Segoe UI"><tspan x="0" y="0">Broadway</tspan></text>
          </g>
          <g id="Group_2856" data-name="Group 2856" transform="translate(0 0)" clip-path="url(#clip-path)">
            <g id="Group_2855" data-name="Group 2855" transform="translate(340.898 434.354)">
              <text id="National_Street-2" data-name="National Street" transform="translate(4.065 34.39) rotate(-26.855)" fill="#ceaca7" font-size="8" font-family="SegoeUI, Segoe UI"><tspan x="0" y="0">National Street</tspan></text>
            </g>
          </g>
        </g>
        <circle id="Ellipse_2328" data-name="Ellipse 2328" cx="38.296" cy="38.296" r="38.296" transform="translate(295.287 826.447)" fill="#f4bbb3"/>
      </g>
    </g>
  </g>
</svg>
