<svg xmlns="http://www.w3.org/2000/svg" width="28.653" height="34.667" viewBox="0 0 28.653 34.667">
  <path id="my-orders-icon" d="M1.326,8.154H7.371V6.921a6.93,6.93,0,1,1,13.861,0V8.154h6.093a1.326,1.326,0,0,1,.939.389,1.343,1.343,0,0,1,.389.937V29.9a4.776,4.776,0,0,1-4.762,4.762H4.762A4.776,4.776,0,0,1,0,29.9V9.48A1.329,1.329,0,0,1,1.326,8.154Zm4.42,9.857H8.4a.35.35,0,0,1,.344.347v2.655a.347.347,0,0,1-.347.347H5.746a.347.347,0,0,1-.347-.347V18.357a.35.35,0,0,1,.347-.347Zm6.77,2.731a1.073,1.073,0,0,1,0-2.113H22.954a1.072,1.072,0,0,1,0,2.113Zm-7.25,6.672a.564.564,0,0,1,.11-.827.654.654,0,0,1,.883-.028l.618.635L8.423,25.61a.564.564,0,0,1,.829.087.657.657,0,0,1,.056.883l-2.048,2.1a.564.564,0,0,1-.829-.087l-.048-.056a.609.609,0,0,1-.093-.076Zm7.177.79a1.074,1.074,0,0,1,.008-2.113H22.889a1.073,1.073,0,0,1,0,2.113ZM9.058,8.154H19.541V6.921a5.241,5.241,0,0,0-10.48,0V8.154ZM7.366,11.429V9.841H1.693V29.9a3.083,3.083,0,0,0,3.072,3.072H23.891A3.1,3.1,0,0,0,26.963,29.9V9.841H21.231v1.605a1.93,1.93,0,1,1-1.693-.028V9.841H9.061v1.594a1.93,1.93,0,1,1-1.693,0Z" transform="translate(0 0.01)" fill="#fff"/>
</svg>
