<svg xmlns="http://www.w3.org/2000/svg" width="108.515" height="71.849" viewBox="0 0 108.515 71.849">
  <path id="name-id-icon" d="M60.713,54.752c-.883,0-1.581-.945-1.581-2.1s.706-2.1,1.581-2.1H92.425c.883,0,1.572.945,1.572,2.1s-.706,2.1-1.572,2.1ZM22.66,0H85.854a3.312,3.312,0,0,1,3.232,2.649h7.762a11.7,11.7,0,0,1,11.666,11.657V60.227a11.648,11.648,0,0,1-3.426,8.2h0a11.639,11.639,0,0,1-8.222,3.418h-85.2A11.7,11.7,0,0,1,0,60.209V14.288a11.6,11.6,0,0,1,3.426-8.2h0a11.613,11.613,0,0,1,8.239-3.435h7.762A3.3,3.3,0,0,1,22.66,0ZM89.193,8.1v.433A3.3,3.3,0,0,1,85.9,11.825H22.66a3.3,3.3,0,0,1-3.294-3.294V8.1h-7.7A6.182,6.182,0,0,0,7.25,9.917h0a6.182,6.182,0,0,0-1.81,4.415V60.254a6.226,6.226,0,0,0,6.182,6.182H96.8a6.182,6.182,0,0,0,4.415-1.819h0a6.182,6.182,0,0,0,1.819-4.415V14.28A6.243,6.243,0,0,0,96.858,8.1ZM39.571,42.539c6.252,5.475,10.35-2.411,13.414,10.447a1.969,1.969,0,0,1-2.066,1.934H17.238a1.987,1.987,0,0,1-2.066-1.934c2.985-12.664,6.579-5.007,13.335-10.368a24.452,24.452,0,0,0,.883-2.517c.221-.689-1.148-2.049-1.607-2.782l-1.7-2.72a4.91,4.91,0,0,1-.971-2.481,1.96,1.96,0,0,1,.168-.883,1.766,1.766,0,0,1,.592-.68,1.828,1.828,0,0,1,.415-.212,42.469,42.469,0,0,1-.088-4.875,6.871,6.871,0,0,1,.3-1.077,7.188,7.188,0,0,1,4.733-4.6c1.069-.362.653-1.245,1.766-1.183,2.543.132,6.473,1.766,7.948,3.532,2.119,2.437,1.572,5.44,1.5,8.425h0a1.21,1.21,0,0,1,.883.883,3.833,3.833,0,0,1-.459,2.331h0v.062l-2,3.25a15.9,15.9,0,0,1-2.526,3.426c-.291.238,1,1.819,1.192,2.075ZM60.766,29.292c-.883,0-1.581-.945-1.581-2.1s.706-2.1,1.581-2.1h18.9c.883,0,1.581.945,1.581,2.1s-.706,2.1-1.581,2.1Zm0,12.69c-.883,0-1.581-.945-1.581-2.1s.706-2.1,1.581-2.1H90.791c.883,0,1.581.945,1.581,2.1s-.706,2.1-1.581,2.1Z" fill="#85dae9" fill-rule="evenodd"/>
</svg>
