<svg xmlns="http://www.w3.org/2000/svg" width="43.612" height="44.184" viewBox="0 0 43.612 44.184">
  <path id="package-cancelled-icon" d="M29.027,3.438,19.062,9.392l11.691,1.589,9.614-6L29.027,3.438Zm2.321,17.693A11.525,11.525,0,1,1,19.823,32.656,11.525,11.525,0,0,1,31.348,21.131Zm-4.442,9.527c-.37-.364-.666-.592-.2-1.04l1.49-1.453c.472-.478.75-.454,1.188,0l2.009,2.008,2-2c.363-.37.591-.664,1.039-.2l1.454,1.491c.478.472.454.75,0,1.189l-2.006,2.006,2.006,2.007c.452.44.476.717,0,1.188l-1.454,1.491c-.448.46-.676.164-1.039-.2l-2-2-2.009,2.009c-.439.45-.716.474-1.188,0L26.7,35.692c-.462-.446-.166-.674.2-1.039l2-2ZM17.689,10.89l-.008,12.238L13.238,20.1,8.794,22.613l.527-12.86L1.675,8.714V35.743l15.454,2a14.993,14.993,0,0,0,.764,1.781L.8,37.312a.838.838,0,0,1-.8-.837V7.758A.833.833,0,0,1,.494,7L15.759.071A.85.85,0,0,1,16.212,0L42.827,3.635a.837.837,0,0,1,.741.863v0l.044,19.757c-.494-.731-1.345-1.752-1.721-2.4V6l-10,6.471v5.165a15.1,15.1,0,0,0-1.675.031v-5.08l-12.526-1.7Zm-7.04-2.641,9.687-6-4.109-.56L3.821,7.321Z" transform="translate(0 0.003)" fill="#85dae9" fill-rule="evenodd"/>
</svg>
