<svg id="forklift-icon" xmlns="http://www.w3.org/2000/svg" width="19.376" height="12.329" viewBox="0 0 19.376 12.329">
  <path id="Path_7855" data-name="Path 7855" d="M10.686,9.124A1.578,1.578,0,1,1,9.108,10.7a1.578,1.578,0,0,1,1.578-1.578ZM13.575,3.3H15.72a.2.2,0,0,1,.2.2V5.743a.2.2,0,0,1-.2.2H13.575a.2.2,0,0,1-.2-.2V3.5a.2.2,0,0,1,.2-.2ZM16.541,0h2.244a.2.2,0,0,1,.2.2V2.444a.2.2,0,0,1-.2.2H16.541a.2.2,0,0,1-.2-.2V.2a.2.2,0,0,1,.2-.2ZM13.575,0H15.72a.2.2,0,0,1,.2.2V2.444a.2.2,0,0,1-.2.2H13.575a.2.2,0,0,1-.2-.2V.2a.2.2,0,0,1,.2-.2Zm2.966,3.3h2.244a.2.2,0,0,1,.2.2V5.743a.2.2,0,0,1-.2.2H16.541a.2.2,0,0,1-.2-.2V3.5a.2.2,0,0,1,.2-.2ZM11.189,1.227h1.306V2.764h.246A10.832,10.832,0,0,0,12.96,6.4h6.416v1.1H12.5v.7h-.025l.577.028v2.862h-.457a1.9,1.9,0,0,0,.036-.369,1.932,1.932,0,0,0-3.863,0,1.889,1.889,0,0,0,.036.369H4.322a1.717,1.717,0,0,0,.014-.222,1.823,1.823,0,1,0-3.646,0,1.717,1.717,0,0,0,.014.222H.315A1.927,1.927,0,0,1,0,10.145V5.735H2.692a.119.119,0,0,1,0-.024L2.982,1.99H2.8a.323.323,0,0,1,0-.647h2.2a4.21,4.21,0,0,1,2.816.621,5.657,5.657,0,0,1,1.34,2.5l1.167,3.162,0,.009.4.476.47.024v-6.9ZM9.09,6.164,8.543,4.683A5.342,5.342,0,0,0,7.4,2.461a3.756,3.756,0,0,0-2.4-.471H3.63L3.337,5.76A.425.425,0,0,1,3.33,5.8L3.179,7.761,6.654,9.6l1.632.022a2.951,2.951,0,0,1,.224-.459l-1.709,0L4.168,7.768l-.147-.095-.11-2.588a.144.144,0,0,1,.145-.145h.471c.464,0,.617.978.617,1.506h.792c1.068,0,.921,1.038.921,1.766v.213L8.75,8.48,7.274,5.97l.331-.222-.218-.326.341-.243.235.33.367-.246.76.9ZM8.833,8.747c.016-.016.032-.032.049-.047l-.033-.057-.016.1ZM6.654,5.189l1.181-.8.222.32L6.872,5.5l-.218-.311Zm4.032,4.636a.877.877,0,1,1-.877.877.877.877,0,0,1,.877-.877ZM2.51,9.4a1.465,1.465,0,1,1-1.465,1.465A1.465,1.465,0,0,1,2.51,9.4Zm0,.651a.814.814,0,1,1-.814.814.814.814,0,0,1,.814-.814Z" fill="#fff" fill-rule="evenodd"/>
</svg>
