<svg id="Iconly_Broken_Profile" data-name="Iconly/Broken/Profile" xmlns="http://www.w3.org/2000/svg" width="15.664" height="19.58" viewBox="0 0 15.664 19.58">
  <g id="Profile" transform="translate(0)">
    <path id="Profile-2" data-name="Profile" d="M6.831,19.566a.7.7,0,0,1-.685-.723.721.721,0,0,1,.726-.683q.473.013.96.013c4.257,0,6.417-.736,6.417-2.186S12.09,13.78,7.832,13.78s-6.417.737-6.417,2.188c0,.475.169,1.163,1.64,1.658a.7.7,0,1,1-.454,1.33C.451,18.233,0,16.932,0,15.968c0-3.22,4.47-3.593,7.832-3.593,1.937,0,7.832,0,7.832,3.613,0,3.22-4.47,3.592-7.832,3.592Q7.323,19.58,6.831,19.566ZM2.558,5.242a5.274,5.274,0,1,1,5.274,5.24A5.264,5.264,0,0,1,2.558,5.242Zm1.416,0A3.859,3.859,0,1,0,7.832,1.407,3.85,3.85,0,0,0,3.974,5.242Z" transform="translate(0)" fill="#fd9f00"/>
  </g>
</svg>
