<svg xmlns="http://www.w3.org/2000/svg" width="10" height="10.526" viewBox="0 0 10 10.526">
  <g id="Iconly_Broken_Swap" data-name="Iconly/Broken/Swap" transform="translate(10) rotate(90)">
    <g id="Swap" transform="translate(0 0)">
      <path id="Swap-2" data-name="Swap" d="M7.977,9.965a.463.463,0,0,1-.283-.428V1.97a.458.458,0,1,1,.916,0V8.416L9.744,7.262a.455.455,0,0,1,.648,0,.468.468,0,0,1,0,.655L8.476,9.863a.454.454,0,0,1-.5.1Zm-1.5-1.472-.891-.905a.467.467,0,0,1,0-.655.454.454,0,0,1,.648,0l.891.906a.466.466,0,0,1,0,.655.455.455,0,0,1-.648,0ZM2.241,8.029V.463A.462.462,0,0,1,2.524.035a.454.454,0,0,1,.5.1L5.263,2.411a.467.467,0,0,1,0,.655.454.454,0,0,1-.647,0L3.156,1.584V8.029a.458.458,0,1,1-.916,0ZM.135,3.066a.466.466,0,0,1,0-.655l.892-.906a.454.454,0,0,1,.648,0,.468.468,0,0,1,0,.656l-.892.905a.453.453,0,0,1-.647,0Z" transform="translate(0 0)" fill="#fd9f00"/>
    </g>
  </g>
</svg>
