<svg xmlns="http://www.w3.org/2000/svg" width="176.004" height="160.63" viewBox="0 0 176.004 160.63">
  <g id="_8961422" data-name="8961422" transform="translate(-476.05 -161)">
    <g id="Background_Complete" transform="translate(476.05 161)">
      <g id="Group_11597" data-name="Group 11597" transform="translate(136.481)">
        <rect id="Rectangle_2595" data-name="Rectangle 2595" width="28.762" height="28.762" fill="#ebebeb"/>
        <g id="Group_11596" data-name="Group 11596" transform="translate(8.584 4.613)">
          <path id="Path_23546" data-name="Path 23546" d="M854.946,172.85a.97.97,0,0,1,.977.977v.5a8.277,8.277,0,0,1,3.523,1.25,1.22,1.22,0,0,1,.681,1.09,1.251,1.251,0,0,1-1.273,1.25,1.317,1.317,0,0,1-.681-.206,8.221,8.221,0,0,0-2.344-1v4.372c3.457.864,4.937,2.25,4.937,4.683,0,2.5-1.954,4.162-4.843,4.434v1.363a.97.97,0,0,1-.977.977.99.99,0,0,1-1-.977v-1.409a9.806,9.806,0,0,1-4.66-1.775,1.253,1.253,0,0,1-.615-1.09,1.232,1.232,0,0,1,1.25-1.25,1.244,1.244,0,0,1,.751.249,8.023,8.023,0,0,0,3.364,1.522V183.33c-3.321-.864-4.866-2.114-4.866-4.683,0-2.433,1.931-4.115,4.777-4.345v-.479A.987.987,0,0,1,854.946,172.85Zm-.911,7.755V176.58c-1.456.136-2.184.911-2.184,1.912C851.851,179.445,852.283,180.037,854.035,180.605Zm1.795,3.161V187.9c1.456-.16,2.25-.888,2.25-1.978C858.083,184.926,857.581,184.311,855.829,183.766Z" transform="translate(-848.67 -172.85)" fill="#fff"/>
        </g>
      </g>
      <g id="Group_11603" data-name="Group 11603" transform="translate(9.375 37.187)">
        <g id="Group_11598" data-name="Group 11598" transform="translate(11.526)">
          <path id="Path_23547" data-name="Path 23547" d="M555.156,317.253a138.2,138.2,0,0,0-.2-14.591,185.774,185.774,0,0,0-4.571-29.728c-1.273-5.5-2.846-10.909-4.481-16.312-.051-.164-.311-.117-.265.055,5.057,19.045,9.207,38.7,8.923,58.494-.082,5.54-.72,10.983-1.246,16.487-.016.148.23.206.261.055A82.745,82.745,0,0,0,555.156,317.253Z" transform="translate(-539.446 -256.52)" fill="#ebebeb"/>
          <path id="Path_23548" data-name="Path 23548" d="M535.932,256.92s-7.662,19.446-5.945,24.017a8.78,8.78,0,0,0,5.252,5.548s-4.687,6.692-1.413,12.968,10.554,5.98,11.037,13.1C544.862,312.553,545.271,282.794,535.932,256.92Z" transform="translate(-529.736 -256.764)" fill="#ebebeb"/>
          <path id="Path_23549" data-name="Path 23549" d="M551.991,306.686a.153.153,0,0,0-.008-.1,178.078,178.078,0,0,0-7.432-39.122c-.012-.039-.074-.027-.062.012q2.278,8.532,4.022,17.157a8.477,8.477,0,0,0-3.656-2.04.021.021,0,0,0-.016.039,9.681,9.681,0,0,1,3.776,2.523c.222,1.125.444,2.254.65,3.383-1.713-1.915-4.088-2.861-6.463-3.765a.027.027,0,0,0-.019.051,15.572,15.572,0,0,1,6.614,4.438q.876,4.841,1.538,9.713a9.25,9.25,0,0,0-4.571-2.62c-.055-.012-.082.066-.027.082a9.646,9.646,0,0,1,4.633,2.967c.008.012.019.016.027.023.152,1.145.3,2.285.432,3.434a11.78,11.78,0,0,0-3.2-1.931c-.031-.012-.047.035-.016.051a11.033,11.033,0,0,1,3.208,2.122.082.082,0,0,0,.039.016c.128,1.09.253,2.18.366,3.27a15.566,15.566,0,0,0-6.5-4.641.041.041,0,0,0-.027.078,16.9,16.9,0,0,1,6.4,4.929.143.143,0,0,0,.16.051q.251,2.511.436,5.03a.02.02,0,0,0,.039,0C552.248,310.123,552.127,308.4,551.991,306.686Z" transform="translate(-537.694 -263.188)" fill="#fff"/>
          <path id="Path_23550" data-name="Path 23550" d="M543.373,299.156a9.561,9.561,0,0,0-4.6-1.437.029.029,0,1,0,0,.058,18.125,18.125,0,0,1,4.551,1.487A.062.062,0,0,0,543.373,299.156Z" transform="translate(-535.234 -281.68)" fill="#fff"/>
          <path id="Path_23551" data-name="Path 23551" d="M547.554,352.443a9.7,9.7,0,0,0-3.457-1.184c-.043-.008-.047.058,0,.066a13.028,13.028,0,0,1,3.418,1.2C547.561,352.548,547.6,352.466,547.554,352.443Z" transform="translate(-538.485 -314.376)" fill="#fff"/>
        </g>
        <g id="Group_11599" data-name="Group 11599" transform="translate(27.647 24.079)">
          <path id="Path_23552" data-name="Path 23552" d="M590.877,319.371a52.062,52.062,0,0,0-8.869,7.751,31.866,31.866,0,0,0-6.221,10.546,78.793,78.793,0,0,0-4.633,25.224,61.176,61.176,0,0,0,1.366,14.187.135.135,0,0,0,.265-.051,79.527,79.527,0,0,1,.14-24.8c1.316-8.043,3.383-16.8,8.5-23.335,2.784-3.558,6.256-6.361,9.69-9.254C591.294,319.488,591.064,319.239,590.877,319.371Z" transform="translate(-571.145 -318.959)" fill="#ebebeb"/>
          <path id="Path_23553" data-name="Path 23553" d="M574.07,356.511a47.732,47.732,0,0,1,6.463-8.261c3.831-3.831,7.062-6.556,7.56-9.09s-3.839-4.4-3.839-4.4,5.3.954,6.755-1.273,2.153-15.117,2.153-15.117-9.651,6.891-14.144,16.546S574.07,356.511,574.07,356.511Z" transform="translate(-572.931 -318.37)" fill="#ebebeb"/>
          <path id="Path_23554" data-name="Path 23554" d="M589.748,326.773c-4.061,3.987-8.144,8.238-10.539,13.474a50.779,50.779,0,0,0-2.13,5.556s0,.008,0,.008c-.125.382-.249.759-.366,1.145a.118.118,0,0,0-.019.062,108.988,108.988,0,0,0-2.741,11.913c0,.027.035.039.039.012.417-2.013.876-4.041,1.386-6.069a.156.156,0,0,0,.058-.012,8.407,8.407,0,0,1,2.531-.642c.058,0,.055-.105,0-.1a9.562,9.562,0,0,0-2.5.456c.467-1.826.977-3.648,1.546-5.443a27,27,0,0,1,5.723-.747c.019,0,.023-.031,0-.031a21.642,21.642,0,0,0-5.626.479c.1-.308.2-.615.307-.923a28.7,28.7,0,0,1,3.808-.646c.023,0,.019-.043,0-.043a18.748,18.748,0,0,0-3.73.452c.526-1.553,1.094-3.083,1.721-4.578a28.088,28.088,0,0,1,1.822-3.539,23.088,23.088,0,0,1,3.087-.549.025.025,0,0,0,0-.051,8.321,8.321,0,0,0-2.889.284c.506-.821,1.039-1.623,1.612-2.4h0a16.389,16.389,0,0,1,6.572-.51c.039.008.051-.058.016-.066a13.876,13.876,0,0,0-6.3.179c.23-.3.463-.6.7-.9a14.222,14.222,0,0,1,4.041-.635c.027,0,.031-.043,0-.043a10.508,10.508,0,0,0-3.769.335c1.791-2.223,3.765-4.31,5.719-6.373C589.915,326.734,589.845,326.68,589.748,326.773Z" transform="translate(-572.857 -323.472)" fill="#fff"/>
          <path id="Path_23555" data-name="Path 23555" d="M611.164,349.278a8.8,8.8,0,0,0-1.919-.066.069.069,0,0,0,.008.136c.635.019,1.269-.027,1.908,0C611.206,349.356,611.21,349.282,611.164,349.278Z" transform="translate(-594.378 -337.186)" fill="#fff"/>
          <path id="Path_23556" data-name="Path 23556" d="M591.735,381.549a8.761,8.761,0,0,0-2.974.6c-.023.008-.012.047.016.043.981-.234,1.974-.327,2.966-.491A.075.075,0,0,0,591.735,381.549Z" transform="translate(-581.895 -356.953)" fill="#fff"/>
          <path id="Path_23557" data-name="Path 23557" d="M589.044,370.443a6.231,6.231,0,0,0-1.261.113.037.037,0,0,0,0,.074,6.255,6.255,0,0,0,1.265-.058A.065.065,0,0,0,589.044,370.443Z" transform="translate(-581.287 -350.168)" fill="#fff"/>
        </g>
        <g id="Group_11600" data-name="Group 11600" transform="translate(0 37.95)">
          <path id="Path_23558" data-name="Path 23558" d="M501.079,354.555a43.8,43.8,0,0,1,8.97,4.224,26.805,26.805,0,0,1,7.471,7.1,66.335,66.335,0,0,1,9.581,19.345,51.314,51.314,0,0,1,2.172,11.8.113.113,0,0,1-.226.019A66.911,66.911,0,0,0,523.2,377c-2.924-6.206-6.622-12.812-12.271-16.92a54.253,54.253,0,0,0-9.982-5.252C500.768,354.75,500.9,354.493,501.079,354.555Z" transform="translate(-500.577 -354.333)" fill="#ebebeb"/>
          <path id="Path_23559" data-name="Path 23559" d="M524.4,380.462a40.133,40.133,0,0,0-7.14-5.193c-3.987-2.215-7.23-3.671-8.218-5.61s2.091-4.45,2.091-4.45-4.072,2-5.762.529S500.13,354,500.13,354s9.4,3.344,15.273,10.122S524.4,380.462,524.4,380.462Z" transform="translate(-500.13 -354)" fill="#ebebeb"/>
          <path id="Path_23560" data-name="Path 23560" d="M530.5,381.88c-4.7-8.826-10.975-16.81-19.575-22.082,0,0-.008,0,0,0a43.151,43.151,0,0,1,6.291,4.925,9.986,9.986,0,0,0-5.053,1.067c-.035.019-.008.066.027.055a13.875,13.875,0,0,1,5.2-.88.1.1,0,0,0,.058-.023c.3.288.607.584.9.88a16.21,16.21,0,0,0-2.7.358c-.023,0-.016.043.008.039a13.759,13.759,0,0,1,2.854-.234,59.234,59.234,0,0,1,4.434,5.034,4.544,4.544,0,0,0-1.888.136.036.036,0,0,0,.016.07,10.272,10.272,0,0,1,2.017-.027c.257.327.518.654.771.985a18.318,18.318,0,0,0-5.707.553c-.027.008-.019.051.008.043a22.942,22.942,0,0,1,5.859-.382c.241.319.467.646.7.966a12.342,12.342,0,0,0-3.395.389c-.043.012-.031.078.012.066a12.844,12.844,0,0,1,3.515-.273c1.012,1.394,1.982,2.819,2.912,4.259a3.17,3.17,0,0,0-1.491.09.02.02,0,1,0,.008.039,6.378,6.378,0,0,1,1.612.078q1.256,1.956,2.422,3.944C530.375,382.083,530.558,382,530.5,381.88Z" transform="translate(-506.717 -357.54)" fill="#fff"/>
          <path id="Path_23561" data-name="Path 23561" d="M538.109,397.687a7.314,7.314,0,0,0-2.733.335c-.023.008-.019.047.008.039a20.465,20.465,0,0,1,2.717-.276C538.163,397.78,538.171,397.691,538.109,397.687Z" transform="translate(-521.645 -380.666)" fill="#fff"/>
          <path id="Path_23562" data-name="Path 23562" d="M519.333,370.063a4.733,4.733,0,0,0-1.261.074c-.051.008-.035.078.016.074.413-.043.821-.027,1.238-.043A.053.053,0,0,0,519.333,370.063Z" transform="translate(-511.068 -363.799)" fill="#fff"/>
        </g>
        <g id="Group_11602" data-name="Group 11602" transform="translate(15.172 63.921)">
          <g id="Group_11601" data-name="Group 11601" transform="translate(0 1.97)">
            <path id="Path_23563" data-name="Path 23563" d="M560.321,453.618H539.1l3.025-22.164.775-5.684h13.622l.775,5.684Z" transform="translate(-539.1 -425.77)" fill="#dbdbdb"/>
            <path id="Path_23564" data-name="Path 23564" d="M562.042,431.454H546.87l.775-5.684h13.622Z" transform="translate(-543.845 -425.77)" fill="#c7c7c7"/>
          </g>
          <rect id="Rectangle_2596" data-name="Rectangle 2596" width="17.519" height="4.812" transform="translate(1.853)" fill="#dbdbdb"/>
        </g>
      </g>
      <g id="Group_11604" data-name="Group 11604" transform="translate(0 19.781)">
        <rect id="Rectangle_2597" data-name="Rectangle 2597" width="10.309" height="4.356" transform="translate(170.252 45.917) rotate(180)" fill="#ebebeb"/>
        <rect id="Rectangle_2598" data-name="Rectangle 2598" width="10.309" height="4.356" transform="translate(176.004 40.424) rotate(180)" fill="#ebebeb"/>
        <rect id="Rectangle_2599" data-name="Rectangle 2599" width="10.309" height="4.356" transform="translate(164.501 40.424) rotate(180)" fill="#ebebeb"/>
        <rect id="Rectangle_2600" data-name="Rectangle 2600" width="10.309" height="4.356" transform="translate(16.057 102.105) rotate(180)" fill="#ebebeb"/>
        <rect id="Rectangle_2601" data-name="Rectangle 2601" width="10.309" height="4.356" transform="translate(10.309 96.612) rotate(180)" fill="#ebebeb"/>
        <rect id="Rectangle_2602" data-name="Rectangle 2602" width="10.309" height="4.356" transform="translate(176.004 102.1) rotate(180)" fill="#ebebeb"/>
        <rect id="Rectangle_2603" data-name="Rectangle 2603" width="10.309" height="4.356" transform="translate(34.442)" fill="#ebebeb"/>
        <rect id="Rectangle_2604" data-name="Rectangle 2604" width="10.309" height="4.356" transform="translate(28.688 5.493)" fill="#ebebeb"/>
      </g>
    </g>
    <g id="Shadow" transform="translate(490.719 299.447)">
      <g id="Group_11605" data-name="Group 11605" transform="translate(0 0)">
        <ellipse id="Ellipse_2368" data-name="Ellipse 2368" cx="77.088" cy="11.092" rx="77.088" ry="11.092" fill="#ebebeb"/>
      </g>
    </g>
    <g id="Floor" transform="translate(486.943 291.746)">
      <path id="Path_23565" data-name="Path 23565" d="M504.03,497.018c49.4-.237,104.815-.241,154.215,0-49.4.241-104.815.241-154.215,0Z" transform="translate(-504.03 -496.839)" fill="#263238"/>
    </g>
    <g id="Device" transform="translate(525.061 163.168)">
      <g id="Group_11623" data-name="Group 11623">
        <g id="Group_11606" data-name="Group 11606">
          <path id="Path_23566" data-name="Path 23566" d="M679.919,173.255V298.621a6.632,6.632,0,0,1-6.568,6.684H608.5a6.631,6.631,0,0,1-6.564-6.685V173.255a6.626,6.626,0,0,1,6.564-6.684h64.848A6.629,6.629,0,0,1,679.919,173.255Z" transform="translate(-601.94 -166.57)" fill="#263238"/>
          <path id="Path_23567" data-name="Path 23567" d="M682.247,186.2V301.145a6.131,6.131,0,0,1-5.875,6.357H618.353a6.132,6.132,0,0,1-5.882-6.357V186.2c0-7.159,2.632-8.74,5.882-8.74h11.621c.674,0,1.226.763,1.226,1.717v.409c0,2.231,1.219,2.239,2.721,2.239H660.8c1.507,0,2.721-.008,2.721-2.239v-.409c0-.95.545-1.717,1.226-1.717h11.629C679.615,177.46,682.247,179.644,682.247,186.2Z" transform="translate(-608.371 -173.22)" fill="#fff"/>
          <path id="Path_23568" data-name="Path 23568" d="M699.292,180.1h-7.331a.452.452,0,0,1-.452-.452h0a.452.452,0,0,1,.452-.452h7.331a.452.452,0,0,1,.452.452h0A.449.449,0,0,1,699.292,180.1Z" transform="translate(-656.639 -174.283)" fill="#fff"/>
        </g>
        <g id="Group_11622" data-name="Group 11622" transform="translate(10.905 15.343)">
          <g id="Group_11610" data-name="Group 11610" transform="translate(11.627 10.837)">
            <path id="Path_23588" data-name="Path 23588" d="M631.56,285.287a.1.1,0,0,1,.1-.1h.806a.812.812,0,0,1,0,1.623l-.7.008v1.117a.1.1,0,0,1-.2,0Zm.9,1.335a.617.617,0,0,0,0-1.234h-.7v1.23h.7Z" transform="translate(-631.56 -285.19)" fill="#263238"/>
            <path id="Path_23589" data-name="Path 23589" d="M638.874,287.471v1.795a.1.1,0,0,1-.195,0v-.3a.926.926,0,0,1-.747.393,1,1,0,0,1,0-1.993.933.933,0,0,1,.747.389v-.292a.094.094,0,0,1,.1-.1A.105.105,0,0,1,638.874,287.471Zm-.195.9a.749.749,0,1,0-.747.8A.779.779,0,0,0,638.68,288.371Z" transform="translate(-634.876 -286.521)" fill="#263238"/>
            <path id="Path_23590" data-name="Path 23590" d="M643.9,287.473a.1.1,0,0,1,.195,0v1.082a.611.611,0,0,0,.611.615.617.617,0,0,0,.619-.615v-1.082a.086.086,0,0,1,.016-.051s0-.008,0-.012,0,0,.008,0a.07.07,0,0,1,.035-.023h.008s.008,0,.012,0h.023a.436.436,0,0,1,.051.019.093.093,0,0,1,.023.031.075.075,0,0,1,.012.039v1.74a.937.937,0,0,1-.946.934.955.955,0,0,1-.409-.093.1.1,0,0,1-.039-.128.1.1,0,0,1,.125-.051.711.711,0,0,0,.327.078.749.749,0,0,0,.751-.74v-.128a.824.824,0,0,1-.619.284.814.814,0,0,1-.806-.814v-1.078Z" transform="translate(-639.096 -286.527)" fill="#263238"/>
            <path id="Path_23591" data-name="Path 23591" d="M653.3,288.212a.617.617,0,1,0-1.234,0v1.1a.014.014,0,0,1,0,.008v.008a.114.114,0,0,1-.051.054.108.108,0,0,1-.051.012h-.019a.013.013,0,0,1-.008,0c-.008,0-.016-.008-.023-.012s-.008,0-.012-.008l-.012-.012s0-.008-.008-.008,0,0,0-.008a.012.012,0,0,0,0-.008.014.014,0,0,0,0-.012v-1.106a.615.615,0,1,0-1.23,0V289.3a.086.086,0,0,1-.047.078.045.045,0,0,1-.023.012s-.008,0-.016,0h-.023a.1.1,0,0,1-.082-.074V287.5a.092.092,0,0,1,.093-.093.091.091,0,0,1,.1.093v.191a.8.8,0,0,1,.615-.284.813.813,0,0,1,.713.424.824.824,0,0,1,.716-.424.809.809,0,0,1,.81.81v1.086a.093.093,0,0,1-.1.093.092.092,0,0,1-.093-.093v-1.094Z" transform="translate(-643.096 -286.546)" fill="#263238"/>
            <path id="Path_23592" data-name="Path 23592" d="M660.03,288.381a.983.983,0,0,1,.966-1,.972.972,0,0,1,.958.927v.016a.09.09,0,0,1-.1.09h-1.635a.781.781,0,0,0,.771.763.746.746,0,0,0,.642-.362.089.089,0,0,1,.128-.031.1.1,0,0,1,.031.14.95.95,0,0,1-.806.452A.98.98,0,0,1,660.03,288.381Zm.21-.16h1.507a.762.762,0,0,0-1.507,0Z" transform="translate(-648.946 -286.527)" fill="#263238"/>
            <path id="Path_23593" data-name="Path 23593" d="M668.175,288.2a.614.614,0,0,0-.615-.615.625.625,0,0,0-.619.615v1.1a.087.087,0,0,1-.019.043.086.086,0,0,1-.074.035h-.023a.1.1,0,0,1-.066-.055.014.014,0,0,1,0-.012.014.014,0,0,0,0-.008v-1.814a.094.094,0,0,1,.1-.1.093.093,0,0,1,.093.1v.191a.81.81,0,0,1,1.429.522v1.082a.1.1,0,0,1-.195,0Z" transform="translate(-653.05 -286.534)" fill="#263238"/>
            <path id="Path_23594" data-name="Path 23594" d="M673.533,286.164a.108.108,0,0,1-.1.1h-.257v1.452a.158.158,0,0,0,.148.148.116.116,0,0,1,.1.1.112.112,0,0,1-.1.1.341.341,0,0,1-.35-.346v-1.452h-.249c-.1,0-.1-.051-.1-.1s0-.1.1-.1h.249v-.74a.1.1,0,0,1,.1-.1.106.106,0,0,1,.105.1v.74h.257A.108.108,0,0,1,673.533,286.164Z" transform="translate(-656.641 -285.214)" fill="#263238"/>
            <path id="Path_23595" data-name="Path 23595" d="M683.313,288.212a.617.617,0,1,0-1.234,0v1.1a.014.014,0,0,1,0,.008v.008a.113.113,0,0,1-.051.054.108.108,0,0,1-.051.012h-.019a.014.014,0,0,1-.008,0c-.008,0-.016-.008-.023-.012s-.008,0-.012-.008l-.012-.012s0-.008-.008-.008,0,0,0-.008a.012.012,0,0,0,0-.008.014.014,0,0,0,0-.012v-1.106a.615.615,0,1,0-1.23,0V289.3a.086.086,0,0,1-.047.078.045.045,0,0,1-.023.012s-.008,0-.016,0h-.023a.1.1,0,0,1-.082-.074V287.5a.092.092,0,0,1,.093-.093.091.091,0,0,1,.1.093v.191a.8.8,0,0,1,.615-.284.813.813,0,0,1,.712.424.824.824,0,0,1,.716-.424.809.809,0,0,1,.81.81v1.086a.093.093,0,0,1-.1.093.092.092,0,0,1-.093-.093v-1.094Z" transform="translate(-661.422 -286.546)" fill="#263238"/>
            <path id="Path_23596" data-name="Path 23596" d="M690.04,288.381a.983.983,0,0,1,.965-1,.971.971,0,0,1,.958.927v.016a.09.09,0,0,1-.1.09h-1.635a.781.781,0,0,0,.771.763.746.746,0,0,0,.642-.362.089.089,0,0,1,.128-.031.1.1,0,0,1,.031.14.95.95,0,0,1-.806.452A.98.98,0,0,1,690.04,288.381Zm.206-.16h1.507a.769.769,0,0,0-.747-.646A.778.778,0,0,0,690.246,288.221Z" transform="translate(-667.273 -286.527)" fill="#263238"/>
            <path id="Path_23597" data-name="Path 23597" d="M696.713,286.164a.108.108,0,0,1-.1.1h-.257v1.452a.158.158,0,0,0,.148.148.116.116,0,0,1,.1.1.112.112,0,0,1-.1.1.341.341,0,0,1-.35-.346v-1.452h-.249c-.1,0-.1-.051-.1-.1s0-.1.1-.1h.249v-.74a.1.1,0,0,1,.1-.1.106.106,0,0,1,.105.1v.74h.257A.1.1,0,0,1,696.713,286.164Z" transform="translate(-670.797 -285.214)" fill="#263238"/>
            <path id="Path_23598" data-name="Path 23598" d="M701.784,286.841a.635.635,0,0,0-1.265,0v1.121c0,.008,0,.012,0,.016s0,.012-.008.016a.1.1,0,0,1-.062.051.014.014,0,0,1-.008,0h-.02a.084.084,0,0,1-.093-.062.085.085,0,0,1,0-.031v-2.647a.1.1,0,0,1,.2,0v1.047a.824.824,0,0,1,.631-.292.8.8,0,0,1,.833.783v1.109a.1.1,0,0,1-.1.1.1.1,0,0,1-.1-.1Z" transform="translate(-673.551 -285.202)" fill="#263238"/>
            <path id="Path_23599" data-name="Path 23599" d="M707.422,287.38a1,1,0,1,1-.942,1A.973.973,0,0,1,707.422,287.38Zm0,1.8a.806.806,0,1,0-.747-.8A.781.781,0,0,0,707.422,289.179Z" transform="translate(-677.313 -286.527)" fill="#263238"/>
            <path id="Path_23600" data-name="Path 23600" d="M714.635,287.65a.942.942,0,0,1-.763.385,1,1,0,0,1,0-1.993.956.956,0,0,1,.763.389v-1.145a.1.1,0,0,1,.2,0v2.651a.1.1,0,0,1-.2,0Zm0-.576v-.066a.8.8,0,1,0,0,.066Z" transform="translate(-681.239 -285.19)" fill="#263238"/>
          </g>
          <g id="Group_11614" data-name="Group 11614">
            <path id="Path_23628" data-name="Path 23628" d="M634.023,210.869l-1.343-1.257,1.343-1.261.276.3-1.028.965,1.028.962Z" transform="translate(-631.617 -207.427)" fill="#ffc727"/>
            <path id="Path_23629" data-name="Path 23629" d="M632.13,210.34a2.18,2.18,0,1,1,2.18-2.18A2.184,2.184,0,0,1,632.13,210.34Zm0-3.952a1.771,1.771,0,1,0,1.771,1.771A1.773,1.773,0,0,0,632.13,206.389Z" transform="translate(-629.95 -205.98)" fill="#ffc727"/>
          </g>
          <g id="Group_11615" data-name="Group 11615" transform="translate(22.591 85.675)">
            <path id="Path_23753" data-name="Path 23753" d="M4.388,0A4.388,4.388,0,1,1,0,4.388,4.388,4.388,0,0,1,4.388,0Z" fill="#fd9f00"/>
            <path id="Path_23630" data-name="Path 23630" d="M762.813,394.951l-1.643-2.566.685-.44,1.032,1.612,3.216-4.018.635.506Z" transform="translate(-759.675 -387.753)" fill="#fff"/>
          </g>
          <g id="Group_11616" data-name="Group 11616" transform="translate(20.229 77.376)">
            <path id="Path_23631" data-name="Path 23631" d="M701.3,406.011a1.281,1.281,0,1,1-1.281-1.281A1.282,1.282,0,0,1,701.3,406.011Z" transform="translate(-692.188 -404.73)" fill="#fd9f00"/>
            <path id="Path_23632" data-name="Path 23632" d="M683.8,406.536a.946.946,0,1,1-.946-.946A.947.947,0,0,1,683.8,406.536Z" transform="translate(-681.91 -405.255)" fill="#ebebeb"/>
            <path id="Path_23633" data-name="Path 23633" d="M719.3,406.536a.946.946,0,1,1-.946-.946A.947.947,0,0,1,719.3,406.536Z" transform="translate(-703.589 -405.255)" fill="#ebebeb"/>
          </g>
          <g id="Group_11621" data-name="Group 11621" transform="translate(5.24 98.769)">
            <rect id="Rectangle_2608" data-name="Rectangle 2608" width="45.635" height="8.74" fill="#fd9f00"/>
            <g id="Group_11620" data-name="Group 11620" transform="translate(3.944 2.62)">
              <path id="Path_23650" data-name="Path 23650" d="M653.54,466.507a.1.1,0,0,1,.1-.1h.806a.812.812,0,0,1,0,1.623l-.7.008v1.117a.1.1,0,0,1-.1.1.1.1,0,0,1-.1-.1Zm.9,1.335a.617.617,0,0,0,0-1.234h-.7v1.23h.7Z" transform="translate(-653.54 -466.41)" fill="#fff"/>
              <path id="Path_23651" data-name="Path 23651" d="M659.51,468.717a.1.1,0,0,1,.1-.1.093.093,0,0,1,.093.1v.44c.008-.016.016-.031.027-.051a.956.956,0,0,1,.8-.487.094.094,0,0,1,.1.1.1.1,0,0,1-.1.1.714.714,0,0,0-.576.327,1.964,1.964,0,0,0-.241.463.059.059,0,0,0-.008.031v.872a.093.093,0,0,1-.093.1.1.1,0,0,1-.1-.1Z" transform="translate(-657.186 -467.76)" fill="#fff"/>
              <path id="Path_23652" data-name="Path 23652" d="M664.542,468.61a1,1,0,1,1-.942,1A.973.973,0,0,1,664.542,468.61Zm0,1.795a.806.806,0,1,0-.747-.8A.781.781,0,0,0,664.542,470.4Z" transform="translate(-659.684 -467.754)" fill="#fff"/>
              <path id="Path_23653" data-name="Path 23653" d="M670,469.593a1,1,0,0,1,1.024-.993,1.034,1.034,0,0,1,.635.218.089.089,0,0,1,.012.132.1.1,0,0,1-.132.016.824.824,0,0,0-.514-.179.8.8,0,1,0,0,1.608.853.853,0,0,0,.514-.175.1.1,0,0,1,.132.016.1.1,0,0,1-.019.144,1.037,1.037,0,0,1-.627.21A1,1,0,0,1,670,469.593Z" transform="translate(-663.592 -467.747)" fill="#fff"/>
              <path id="Path_23654" data-name="Path 23654" d="M675.8,469.6a.983.983,0,0,1,.965-1,.971.971,0,0,1,.958.927v.019a.09.09,0,0,1-.1.09h-1.635a.781.781,0,0,0,.771.763.755.755,0,0,0,.642-.362.089.089,0,0,1,.128-.031.1.1,0,0,1,.031.136.95.95,0,0,1-.806.452A.98.98,0,0,1,675.8,469.6Zm.21-.156h1.507a.762.762,0,0,0-1.507,0Z" transform="translate(-667.134 -467.747)" fill="#fff"/>
              <path id="Path_23655" data-name="Path 23655" d="M682.17,469.6a.983.983,0,0,1,.966-1,.971.971,0,0,1,.958.927v.019a.09.09,0,0,1-.1.09h-1.635a.781.781,0,0,0,.771.763.755.755,0,0,0,.642-.362.089.089,0,0,1,.129-.031.1.1,0,0,1,.031.136.95.95,0,0,1-.806.452A.978.978,0,0,1,682.17,469.6Zm.206-.156h1.507a.769.769,0,0,0-.747-.646A.778.778,0,0,0,682.376,469.445Z" transform="translate(-671.024 -467.747)" fill="#fff"/>
              <path id="Path_23656" data-name="Path 23656" d="M690.275,468.87a.942.942,0,0,1-.763.385,1,1,0,0,1,0-1.993.957.957,0,0,1,.763.389v-1.145a.1.1,0,0,1,.1-.1.1.1,0,0,1,.1.1v2.651a.1.1,0,0,1-.1.1.1.1,0,0,1-.1-.1Zm0-.572v-.066a.8.8,0,1,0,0,.066Z" transform="translate(-674.92 -466.41)" fill="#fff"/>
              <path id="Path_23657" data-name="Path 23657" d="M699.283,467.394a.1.1,0,0,1-.1.1h-.257v1.452a.158.158,0,0,0,.148.148.116.116,0,0,1,.1.1.112.112,0,0,1-.1.1.341.341,0,0,1-.35-.346v-1.452h-.249c-.1,0-.1-.051-.1-.1s0-.1.1-.1h.249v-.74a.1.1,0,0,1,.1-.1.109.109,0,0,1,.105.1v.74h.257A.1.1,0,0,1,699.283,467.394Z" transform="translate(-680.923 -466.441)" fill="#fff"/>
              <path id="Path_23658" data-name="Path 23658" d="M703.642,468.61a1,1,0,1,1-.942,1A.973.973,0,0,1,703.642,468.61Zm0,1.795a.806.806,0,1,0-.747-.8A.781.781,0,0,0,703.642,470.4Z" transform="translate(-683.561 -467.754)" fill="#fff"/>
              <path id="Path_23659" data-name="Path 23659" d="M712.23,469.593a1,1,0,0,1,1.024-.993,1.034,1.034,0,0,1,.635.218.089.089,0,0,1,.012.132.1.1,0,0,1-.132.016.831.831,0,0,0-.514-.179.8.8,0,1,0,0,1.608.853.853,0,0,0,.514-.175.1.1,0,0,1,.132.016.1.1,0,0,1-.019.144,1.038,1.038,0,0,1-.627.21A1,1,0,0,1,712.23,469.593Z" transform="translate(-689.381 -467.747)" fill="#fff"/>
              <path id="Path_23660" data-name="Path 23660" d="M719.112,468.61a1,1,0,1,1-.942,1A.973.973,0,0,1,719.112,468.61Zm0,1.795a.806.806,0,1,0-.747-.8A.781.781,0,0,0,719.112,470.4Z" transform="translate(-693.009 -467.754)" fill="#fff"/>
              <path id="Path_23661" data-name="Path 23661" d="M726.355,469.42a.614.614,0,0,0-.615-.615.625.625,0,0,0-.619.615v1.1a.087.087,0,0,1-.019.043.091.091,0,0,1-.074.035H725a.1.1,0,0,1-.066-.055.014.014,0,0,1,0-.012.014.014,0,0,0,0-.008v-1.814a.1.1,0,1,1,.191,0v.191a.81.81,0,0,1,1.429.522V470.5a.1.1,0,0,1-.195,0Z" transform="translate(-697.137 -467.754)" fill="#fff"/>
              <path id="Path_23662" data-name="Path 23662" d="M732.033,466.531a.1.1,0,0,1-.1.1.31.31,0,0,0-.253.078.508.508,0,0,0-.082.331v.21h.28a.1.1,0,0,1,.1.1.1.1,0,0,1-.1.1h-.28v1.732a.1.1,0,0,1-.1.1.1.1,0,0,1-.1-.1v-1.732h-.265a.1.1,0,0,1,0-.2h.265v-.21a.706.706,0,0,1,.129-.463.531.531,0,0,1,.4-.144A.1.1,0,0,1,732.033,466.531Z" transform="translate(-700.868 -466.422)" fill="#fff"/>
              <path id="Path_23663" data-name="Path 23663" d="M735.13,467.037a.1.1,0,0,1,.1-.1.1.1,0,0,1,.1.1v.093a.1.1,0,1,1-.2,0Zm0,.65a.1.1,0,0,1,.1-.1.1.1,0,0,1,.1.1v1.795a.1.1,0,0,1-.1.1.1.1,0,0,1-.1-.1Z" transform="translate(-703.366 -466.734)" fill="#fff"/>
              <path id="Path_23664" data-name="Path 23664" d="M738.05,468.717a.1.1,0,1,1,.195,0v.44c.008-.016.016-.031.027-.051a.956.956,0,0,1,.8-.487.094.094,0,0,1,.1.1.1.1,0,0,1-.1.1.714.714,0,0,0-.576.327,1.966,1.966,0,0,0-.241.463.059.059,0,0,0-.008.031v.872a.1.1,0,1,1-.195,0Z" transform="translate(-705.149 -467.76)" fill="#fff"/>
              <path id="Path_23665" data-name="Path 23665" d="M745.483,469.432a.617.617,0,1,0-1.234,0v1.1a.013.013,0,0,1,0,.008v.008a.113.113,0,0,1-.051.055.108.108,0,0,1-.051.012h-.019a.014.014,0,0,1-.008,0c-.008,0-.016-.008-.023-.012s-.008,0-.012-.008l-.012-.012s0-.008-.008-.008,0,0,0-.008a.012.012,0,0,0,0-.008.014.014,0,0,0,0-.012v-1.106a.615.615,0,1,0-1.23,0v1.086a.086.086,0,0,1-.047.078.044.044,0,0,1-.023.012s-.008,0-.016,0h-.023a.105.105,0,0,1-.082-.074v-1.818a.092.092,0,0,1,.093-.093.091.091,0,0,1,.1.093v.191a.8.8,0,0,1,.615-.284.813.813,0,0,1,.712.424.824.824,0,0,1,.716-.424.809.809,0,0,1,.81.81v1.086a.093.093,0,0,1-.1.093.092.092,0,0,1-.093-.093v-1.094Z" transform="translate(-707.946 -467.766)" fill="#fff"/>
            </g>
          </g>
        </g>
      </g>
    </g>
    <g id="Bill" transform="translate(549.37 203.607)">
      <g id="Group_11682" data-name="Group 11682" transform="translate(0)">
        <g id="Group_11677" data-name="Group 11677" transform="translate(12.733)">
          <path id="Path_23743" data-name="Path 23743" d="M573.75,389.269h9.673a2.3,2.3,0,0,0,2.3-2.3v-18.1a2.341,2.341,0,0,1,2.466-2.326H576.056a2.3,2.3,0,0,0-2.3,2.3v20.425Z" transform="translate(-573.75 -366.54)" fill="#ffc727"/>
          <path id="Path_23744" data-name="Path 23744" d="M573.75,389.269h9.673a2.3,2.3,0,0,0,2.3-2.3v-18.1a2.341,2.341,0,0,1,2.466-2.326H576.056a2.3,2.3,0,0,0-2.3,2.3v20.425Z" transform="translate(-573.75 -366.54)" fill="#56a8b7"/>
          <g id="Group_11676" data-name="Group 11676" transform="translate(1.751 2.304)" opacity="0.1">
            <rect id="Rectangle_2609" data-name="Rectangle 2609" width="8.676" height="0.399"/>
            <rect id="Rectangle_2610" data-name="Rectangle 2610" width="8.676" height="0.399" transform="translate(0 1.122)"/>
            <rect id="Rectangle_2611" data-name="Rectangle 2611" width="8.676" height="0.399" transform="translate(0 2.242)"/>
            <rect id="Rectangle_2612" data-name="Rectangle 2612" width="8.676" height="0.399" transform="translate(0 3.363)"/>
            <rect id="Rectangle_2613" data-name="Rectangle 2613" width="8.676" height="0.399" transform="translate(0 4.483)"/>
            <rect id="Rectangle_2614" data-name="Rectangle 2614" width="8.676" height="0.399" transform="translate(0 5.603)"/>
            <rect id="Rectangle_2615" data-name="Rectangle 2615" width="8.676" height="0.399" transform="translate(0 6.725)"/>
            <rect id="Rectangle_2616" data-name="Rectangle 2616" width="8.676" height="0.399" transform="translate(0 7.845)"/>
            <rect id="Rectangle_2617" data-name="Rectangle 2617" width="8.676" height="0.399" transform="translate(0 8.965)"/>
            <rect id="Rectangle_2618" data-name="Rectangle 2618" width="8.676" height="0.399" transform="translate(0 10.085)"/>
            <rect id="Rectangle_2619" data-name="Rectangle 2619" width="8.676" height="0.399" transform="translate(0 11.205)"/>
            <rect id="Rectangle_2620" data-name="Rectangle 2620" width="8.676" height="0.399" transform="translate(0 12.326)"/>
            <rect id="Rectangle_2621" data-name="Rectangle 2621" width="8.676" height="0.399" transform="translate(0 13.448)"/>
            <rect id="Rectangle_2622" data-name="Rectangle 2622" width="8.676" height="0.399" transform="translate(0 14.568)"/>
            <rect id="Rectangle_2623" data-name="Rectangle 2623" width="8.676" height="0.399" transform="translate(0 15.688)"/>
            <rect id="Rectangle_2624" data-name="Rectangle 2624" width="8.676" height="0.399" transform="translate(0 16.808)"/>
          </g>
        </g>
        <path id="Path_23745" data-name="Path 23745" d="M531.13,427.072v21.861h7.321v.031a2.321,2.321,0,0,0,2.269,2.324h.079a1.7,1.7,0,0,0,.237-.013l.432-.09a2.277,2.277,0,0,0,.314-.125,1.341,1.341,0,0,0,.147-.077c.024-.013.048-.029.074-.046a1.661,1.661,0,0,0,.193-.132.291.291,0,0,0,.031-.024,1.036,1.036,0,0,0,.129-.11.561.561,0,0,0,.064-.061,2.265,2.265,0,0,0,.574-.949c0-.009.007-.015.009-.022.015-.055.031-.114.044-.171a1.531,1.531,0,0,0,.037-.224.791.791,0,0,0,.009-.1.177.177,0,0,0,0-.033c0-.044.009-.083.009-.125V427.1a2.341,2.341,0,0,1,2.466-2.328H533.429A2.3,2.3,0,0,0,531.13,427.072Z" transform="translate(-527.739 -412.006)" fill="#85dae9"/>
        <g id="Group_11678" data-name="Group 11678" transform="translate(4.991 13.196)" opacity="0.1">
          <rect id="Rectangle_2625" data-name="Rectangle 2625" width="8.676" height="0.399" transform="translate(0 1.026)"/>
          <rect id="Rectangle_2626" data-name="Rectangle 2626" width="8.676" height="0.399" transform="translate(0.818)"/>
          <rect id="Rectangle_2627" data-name="Rectangle 2627" width="8.676" height="0.399" transform="translate(0 2.146)"/>
          <rect id="Rectangle_2628" data-name="Rectangle 2628" width="8.676" height="0.399" transform="translate(0 3.266)"/>
          <rect id="Rectangle_2629" data-name="Rectangle 2629" width="8.676" height="0.399" transform="translate(0 4.386)"/>
          <rect id="Rectangle_2630" data-name="Rectangle 2630" width="8.676" height="0.399" transform="translate(0 5.506)"/>
          <rect id="Rectangle_2631" data-name="Rectangle 2631" width="8.676" height="0.399" transform="translate(0 6.629)"/>
          <rect id="Rectangle_2632" data-name="Rectangle 2632" width="8.676" height="0.399" transform="translate(0 7.749)"/>
          <rect id="Rectangle_2633" data-name="Rectangle 2633" width="8.676" height="0.399" transform="translate(0 8.869)"/>
          <rect id="Rectangle_2634" data-name="Rectangle 2634" width="8.676" height="0.399" transform="translate(0 9.989)"/>
          <rect id="Rectangle_2635" data-name="Rectangle 2635" width="8.676" height="0.399" transform="translate(0 11.109)"/>
          <rect id="Rectangle_2636" data-name="Rectangle 2636" width="8.676" height="0.399" transform="translate(0 12.231)"/>
          <rect id="Rectangle_2637" data-name="Rectangle 2637" width="8.676" height="0.399" transform="translate(0 13.351)"/>
          <rect id="Rectangle_2638" data-name="Rectangle 2638" width="8.676" height="0.399" transform="translate(0 14.471)"/>
          <rect id="Rectangle_2639" data-name="Rectangle 2639" width="8.676" height="0.399" transform="translate(0 15.592)"/>
          <rect id="Rectangle_2640" data-name="Rectangle 2640" width="8.676" height="0.399" transform="translate(0 16.712)"/>
          <rect id="Rectangle_2641" data-name="Rectangle 2641" width="8.676" height="0.399" transform="translate(0 17.834)"/>
          <rect id="Rectangle_2642" data-name="Rectangle 2642" width="8.676" height="0.399" transform="translate(0 18.954)"/>
          <rect id="Rectangle_2643" data-name="Rectangle 2643" width="8.676" height="0.399" transform="translate(0 20.074)"/>
          <rect id="Rectangle_2644" data-name="Rectangle 2644" width="4.338" height="0.921" transform="translate(4.338 21.69)"/>
        </g>
        <path id="Path_23746" data-name="Path 23746" d="M617.51,470.193a.528.528,0,0,0,.059,0,2.445,2.445,0,0,0,.259-.015,2.08,2.08,0,0,1-.237.013Z" transform="translate(-595.185 -447.462)" fill="#ffc727"/>
        <g id="Group_11679" data-name="Group 11679" transform="translate(24.71)" opacity="0.88">
          <path id="Path_23747" data-name="Path 23747" d="M630.716,366.54a2.326,2.326,0,0,0-2.326,2.326v4.388h4.654v-4.388A2.329,2.329,0,0,0,630.716,366.54Z" transform="translate(-628.39 -366.54)" fill="#56a8b7"/>
          <path id="Path_23748" data-name="Path 23748" d="M630.716,366.54a2.326,2.326,0,0,0-2.326,2.326v4.388h4.654v-4.388A2.329,2.329,0,0,0,630.716,366.54Z" transform="translate(-628.39 -366.54)" fill="#56a8b7" opacity="0.2"/>
        </g>
        <g id="Group_11680" data-name="Group 11680" transform="translate(15.361 12.762)">
          <path id="Path_23749" data-name="Path 23749" d="M585.74,427.088v7.643h4.654v0h2.269a2.322,2.322,0,0,1-2.269-2.323v-5.318a2.327,2.327,0,1,0-4.654,0Z" transform="translate(-585.74 -424.76)" fill="#ffc727"/>
          <path id="Path_23750" data-name="Path 23750" d="M585.74,427.088v7.643h4.654v0h2.269a2.322,2.322,0,0,1-2.269-2.323v-5.318a2.327,2.327,0,1,0-4.654,0Z" transform="translate(-585.74 -424.76)" fill="#56a8b7"/>
        </g>
        <g id="Group_11681" data-name="Group 11681" transform="translate(0 36.926)" opacity="0.88">
          <path id="Path_23751" data-name="Path 23751" d="M515.66,535v.031a2.321,2.321,0,0,0,2.269,2.323h10.714a2.322,2.322,0,0,1-2.269-2.323V535Z" transform="translate(-515.66 -535)" fill="#56a8b7"/>
          <path id="Path_23752" data-name="Path 23752" d="M515.66,535v.031a2.321,2.321,0,0,0,2.269,2.323h10.714a2.322,2.322,0,0,1-2.269-2.323V535Z" transform="translate(-515.66 -535)" fill="#56a8b7" opacity="0.2"/>
        </g>
      </g>
    </g>
  </g>
</svg>
