<svg xmlns="http://www.w3.org/2000/svg" xmlns:xlink="http://www.w3.org/1999/xlink" width="257.181" height="160.205" viewBox="0 0 257.181 160.205">
  <defs>
    <linearGradient id="linear-gradient" x1="0.5" y1="-0.27" x2="0.5" y2="2.254" gradientUnits="objectBoundingBox">
      <stop offset="0" stop-color="#ffca3f"/>
      <stop offset="0.097" stop-color="#ca7c22"/>
      <stop offset="0.189" stop-color="#fddb7a"/>
      <stop offset="0.42" stop-color="#ffad45"/>
      <stop offset="0.554" stop-color="#a95f0d"/>
      <stop offset="0.656" stop-color="#ffad45"/>
      <stop offset="0.79" stop-color="#ffff9b"/>
      <stop offset="0.868" stop-color="#ffed7c"/>
      <stop offset="1" stop-color="#ffca3f"/>
    </linearGradient>
    <linearGradient id="linear-gradient-2" x1="0.5" y1="-0.88" x2="0.5" y2="2.277" xlink:href="#linear-gradient"/>
  </defs>
  <g id="_6276_Converted_" data-name="6276 [Converted]" transform="translate(-103.13 -103.21)">
    <g id="Group_11595" data-name="Group 11595" transform="translate(103.13 103.21)">
      <g id="Group_11584" data-name="Group 11584" opacity="0.7">
        <path id="Path_23477" data-name="Path 23477" d="M360.3,253.574a9.844,9.844,0,0,1-9.841,9.841H112.971a9.844,9.844,0,0,1-9.841-9.841V113.051a9.844,9.844,0,0,1,9.841-9.841h237.5a9.844,9.844,0,0,1,9.841,9.841V253.574Z" transform="translate(-103.13 -103.21)" fill="#595959"/>
      </g>
      <g id="Group_11585" data-name="Group 11585">
        <path id="Path_23478" data-name="Path 23478" d="M360.3,253.574a9.844,9.844,0,0,1-9.841,9.841H112.971a9.844,9.844,0,0,1-9.841-9.841V113.051a9.844,9.844,0,0,1,9.841-9.841h237.5a9.844,9.844,0,0,1,9.841,9.841V253.574Z" transform="translate(-103.13 -103.21)" fill="#56a8b7" fill-rule="evenodd"/>
        <path id="Path_23479" data-name="Path 23479" d="M334.641,103.21H153.81L249,263.415h85.639a9.844,9.844,0,0,0,9.841-9.841V113.051A9.827,9.827,0,0,0,334.641,103.21Z" transform="translate(-87.314 -103.21)" fill="#85dae9"/>
      </g>
      <g id="Group_11586" data-name="Group 11586" transform="translate(24.575 42.078)">
        <path id="Path_23480" data-name="Path 23480" d="M156.086,157.493a4.88,4.88,0,0,1-4.881,4.881H126.761a4.88,4.88,0,0,1-4.881-4.881V140.161a4.88,4.88,0,0,1,4.881-4.881h24.431a4.88,4.88,0,0,1,4.881,4.881v17.333Z" transform="translate(-121.854 -135.28)" fill-rule="evenodd" fill="url(#linear-gradient)"/>
        <path id="Path_23481" data-name="Path 23481" d="M156.092,143.822v-.63H149.82V135.28h-.63v7.912h-5.078a5.594,5.594,0,0,0-4.828-3.9V135.28h-.63v3.976a5.614,5.614,0,0,0-5.248,3.949H128.8v-7.912h-.63V143.2H121.86v.63h6.311v8.87H121.86v.63h6.311V162.4h.63v-9.066h4.474a5.641,5.641,0,0,0,5.38,4.369v4.7h.63v-4.75a5.634,5.634,0,0,0,4.96-4.317h4.947V162.4h.63v-9.066h6.272v-.63h-3.739v-8.87h3.739Zm-22.883,8.857h-4.4v-8.87h4.435a5.488,5.488,0,0,0,1.22,4.645,5.606,5.606,0,0,0-1.325,3.6A4.644,4.644,0,0,0,133.209,152.678Zm5.563,4.382a4.985,4.985,0,0,1-3.661-8.384l.2-.21-.2-.21a5,5,0,1,1,7.321,0l-.2.21.2.21a4.985,4.985,0,0,1-3.661,8.384Zm12.95-4.382h-7.387a4.871,4.871,0,0,0,.066-.63,5.606,5.606,0,0,0-1.325-3.6,5.488,5.488,0,0,0,1.22-4.645h7.426Z" transform="translate(-121.86 -135.28)" fill="url(#linear-gradient-2)"/>
      </g>
      <g id="Group_11587" data-name="Group 11587" transform="translate(25.218 84.498)">
        <path id="Path_23482" data-name="Path 23482" d="M123.15,171.071l-.8-.84,2.4-2.611h1.994v11.94H125.42V169.024a1.107,1.107,0,0,1,.052-.446l-.052-.052Z" transform="translate(-122.35 -167.607)" fill="#fff"/>
        <path id="Path_23483" data-name="Path 23483" d="M127.65,179.57v-1.811a1.152,1.152,0,0,1,.039-.394,1.189,1.189,0,0,1,.276-.3l5.655-5.17a.9.9,0,0,0,.276-.354,1.59,1.59,0,0,0,.052-.5v-1.522a1.5,1.5,0,0,0-.026-.328c-.013-.052-.079-.118-.184-.2a.858.858,0,0,0-.236-.144,2.013,2.013,0,0,0-.394-.026h-3.031a2.012,2.012,0,0,0-.394.026.857.857,0,0,0-.236.144.592.592,0,0,0-.184.2,1.5,1.5,0,0,0-.026.328v.328h-1.43v-.682a1.05,1.05,0,0,1,.407-.853l.407-.341a1.322,1.322,0,0,1,.813-.341h4.3a1.266,1.266,0,0,1,.813.341l.407.341a1.05,1.05,0,0,1,.407.853v2.4a1.591,1.591,0,0,1-.052.5,1,1,0,0,1-.276.354l-5.642,5.1a1.34,1.34,0,0,0-.289.341,1.149,1.149,0,0,0-.052.446v.066h6.311v1.194H127.65Z" transform="translate(-120.696 -167.604)" fill="#fff"/>
        <path id="Path_23484" data-name="Path 23484" d="M142.405,173.527l.669.551a1.028,1.028,0,0,1,.3.3,1.9,1.9,0,0,1,.039.512v3.136a1.79,1.79,0,0,1-.052.472,1.49,1.49,0,0,1-.262.354l-.3.3a1.137,1.137,0,0,1-.8.394h-4.842a1.265,1.265,0,0,1-.813-.341l-.407-.341a1.05,1.05,0,0,1-.407-.853v-.682h1.43v.328a1.5,1.5,0,0,0,.026.328c.013.052.079.118.184.2a.857.857,0,0,0,.236.144,2.013,2.013,0,0,0,.394.026h3.372a2.011,2.011,0,0,0,.394-.026.857.857,0,0,0,.236-.144.592.592,0,0,0,.184-.2,1.5,1.5,0,0,0,.026-.328v-2.572a.834.834,0,0,0-.3-.643l-.262-.223a1.868,1.868,0,0,0-.354-.262,1.458,1.458,0,0,0-.433-.039h-2.729v-1.089h2.493a1.41,1.41,0,0,0,.42-.039,1.614,1.614,0,0,0,.354-.249l.262-.21a1.028,1.028,0,0,0,.3-.3,1.352,1.352,0,0,0,.039-.42V169.5a1.5,1.5,0,0,0-.026-.328c-.013-.052-.079-.118-.184-.2a.857.857,0,0,0-.236-.144,2.013,2.013,0,0,0-.394-.026h-2.808a2.19,2.19,0,0,0-.407.026.857.857,0,0,0-.236.144.592.592,0,0,0-.184.2,1.5,1.5,0,0,0-.026.328v.328h-1.43v-.682a1.05,1.05,0,0,1,.407-.853l.407-.341a1.322,1.322,0,0,1,.813-.341h4.094a1.265,1.265,0,0,1,.813.341l.407.341a1.05,1.05,0,0,1,.407.853v2.795a.563.563,0,0,1-.3.643l-.5.407a.842.842,0,0,1-.472.223v.079A1.013,1.013,0,0,1,142.405,173.527Z" transform="translate(-118.237 -167.61)" fill="#fff"/>
        <path id="Path_23485" data-name="Path 23485" d="M149.4,172.235h1.43v3.411h1.64v1.194h-1.64v2.729H149.4v-2.729H143.36v-1.4l5.839-7.807h1.6l-5.681,7.623a1.271,1.271,0,0,1-.289.328v.066H149.4Z" transform="translate(-115.793 -167.604)" fill="#fff"/>
        <path id="Path_23486" data-name="Path 23486" d="M164.757,171.721h3.858a1.266,1.266,0,0,1,.813.341l.407.341a1.05,1.05,0,0,1,.407.853v4.776a1.05,1.05,0,0,1-.407.853l-.407.341a1.322,1.322,0,0,1-.813.341H163.5a1.265,1.265,0,0,1-.813-.341l-.407-.341a1.05,1.05,0,0,1-.407-.853v-.682h1.43v.328a1.5,1.5,0,0,0,.026.328c.013.052.079.118.184.2a.859.859,0,0,0,.236.144,2.014,2.014,0,0,0,.394.026H168a2.014,2.014,0,0,0,.394-.026.857.857,0,0,0,.236-.144.592.592,0,0,0,.184-.2,1.5,1.5,0,0,0,.026-.328v-4.054a1.494,1.494,0,0,0-.026-.328c-.013-.052-.079-.118-.184-.2a.857.857,0,0,0-.236-.144,2.013,2.013,0,0,0-.394-.026H164.7a1.265,1.265,0,0,0-.813.341.919.919,0,0,0-.407.682h-1.43V167.64h8.017v1.194h-6.587v3.739h.066c.013-.118.131-.276.381-.459A1.371,1.371,0,0,1,164.757,171.721Z" transform="translate(-110.017 -167.601)" fill="#fff"/>
        <path id="Path_23487" data-name="Path 23487" d="M179.1,169.847h-1.43v-.328a1.5,1.5,0,0,0-.026-.328c-.013-.052-.079-.118-.184-.2a.857.857,0,0,0-.236-.144,2.013,2.013,0,0,0-.394-.026H172.74a2.235,2.235,0,0,0-.394.026.856.856,0,0,0-.236.144.592.592,0,0,0-.184.2,1.5,1.5,0,0,0-.026.328v3.4h.066l.079-.079c.394-.394.709-.6.932-.6h4.645a1.266,1.266,0,0,1,.813.341l.407.341a1.05,1.05,0,0,1,.407.853v4.264a1.05,1.05,0,0,1-.407.853l-.407.341a1.322,1.322,0,0,1-.813.341H172.1a1.265,1.265,0,0,1-.813-.341l-.407-.341a1.05,1.05,0,0,1-.407-.853v-8.87a1.088,1.088,0,0,1,.407-.853l.407-.341a1.322,1.322,0,0,1,.813-.341h5.353a1.266,1.266,0,0,1,.813.341l.407.341a1.05,1.05,0,0,1,.407.853v.682Zm-1.273,7.82v-3.543a1.5,1.5,0,0,0-.026-.328.52.52,0,0,0-.171-.2.857.857,0,0,0-.236-.144,2.013,2.013,0,0,0-.394-.026h-3.831a1.52,1.52,0,0,0-.433.039,2.264,2.264,0,0,0-.42.223c-.262.157-.394.3-.407.42v3.569a1.5,1.5,0,0,0,.026.328c.013.052.079.118.184.2a.857.857,0,0,0,.236.144,2.011,2.011,0,0,0,.394.026h4.264a2.011,2.011,0,0,0,.394-.026.7.7,0,0,0,.236-.144.421.421,0,0,0,.171-.2A2.058,2.058,0,0,0,177.831,177.667Z" transform="translate(-107.333 -167.604)" fill="#fff"/>
        <path id="Path_23488" data-name="Path 23488" d="M180.093,179.57l5.616-10.4a.876.876,0,0,1,.289-.341H178.61V167.63h8.752v1.3l-5.694,10.641Z" transform="translate(-104.792 -167.604)" fill="#fff"/>
        <path id="Path_23489" data-name="Path 23489" d="M187.469,174.3l.8-.669a.842.842,0,0,1,.472-.223v-.079a.842.842,0,0,1-.472-.223l-.564-.446a.7.7,0,0,1-.276-.577v-2.913a1.05,1.05,0,0,1,.407-.853l.407-.341a1.322,1.322,0,0,1,.813-.341h5.222a1.266,1.266,0,0,1,.813.341l.407.341a1.05,1.05,0,0,1,.407.853v2.913a.7.7,0,0,1-.276.577l-.564.446a.842.842,0,0,1-.472.223v.079a.842.842,0,0,1,.472.223l.8.669a.828.828,0,0,1,.236.669v3.07a1.05,1.05,0,0,1-.407.853c-.092.066-.223.184-.407.341a1.322,1.322,0,0,1-.813.341h-5.629a1.265,1.265,0,0,1-.813-.341c-.184-.157-.315-.276-.407-.341a1.05,1.05,0,0,1-.407-.853v-3.07A.8.8,0,0,1,187.469,174.3Zm5.931-.184h-3.438a1.65,1.65,0,0,0-.341.026.9.9,0,0,0-.289.2l-.381.3a1.206,1.206,0,0,0-.262.249.978.978,0,0,0-.039.354v2.427a1.5,1.5,0,0,0,.026.328c.013.052.079.118.184.2a.858.858,0,0,0,.236.144,2.013,2.013,0,0,0,.394.026h4.369a2.011,2.011,0,0,0,.394-.026.858.858,0,0,0,.236-.144.593.593,0,0,0,.184-.2,1.5,1.5,0,0,0,.026-.328V175.24a.978.978,0,0,0-.039-.354.785.785,0,0,0-.262-.249l-.38-.3a.662.662,0,0,0-.617-.223Zm.249-5.288h-3.962a2.011,2.011,0,0,0-.394.026.856.856,0,0,0-.236.144.592.592,0,0,0-.184.2,1.5,1.5,0,0,0-.026.328v2.217a1.163,1.163,0,0,0,.039.38.932.932,0,0,0,.236.249l.446.354a.745.745,0,0,0,.262.157,2.308,2.308,0,0,0,.407.026h2.86a2.012,2.012,0,0,0,.394-.026.648.648,0,0,0,.262-.157l.446-.354c.144-.118.223-.2.236-.249a1.109,1.109,0,0,0,.039-.38v-2.217a1.5,1.5,0,0,0-.026-.328c-.013-.052-.079-.118-.184-.2a.857.857,0,0,0-.236-.144A1.147,1.147,0,0,0,193.649,168.824Z" transform="translate(-102.105 -167.604)" fill="#fff"/>
        <path id="Path_23490" data-name="Path 23490" d="M206.134,177.349h1.43v.328a1.5,1.5,0,0,0,.026.328c.013.052.079.118.184.2a.857.857,0,0,0,.236.144,2.013,2.013,0,0,0,.394.026H212.5a2.011,2.011,0,0,0,.394-.026.857.857,0,0,0,.236-.144.592.592,0,0,0,.184-.2,1.5,1.5,0,0,0,.026-.328v-3.4h-.066l-.079.092c-.394.394-.709.6-.932.6h-4.645a1.265,1.265,0,0,1-.813-.341l-.407-.341a1.05,1.05,0,0,1-.407-.853v-4.264a1.05,1.05,0,0,1,.407-.853l.407-.341a1.322,1.322,0,0,1,.813-.341h5.524a1.266,1.266,0,0,1,.813.341l.407.341a1.05,1.05,0,0,1,.407.853v8.87a1.05,1.05,0,0,1-.407.853l-.407.341a1.293,1.293,0,0,1-.813.341h-5.353a1.266,1.266,0,0,1-.813-.341l-.407-.341a1.05,1.05,0,0,1-.407-.853v-.7Zm1.26-7.833v3.543a1.5,1.5,0,0,0,.026.328c.013.052.079.118.184.2a.858.858,0,0,0,.236.144,2.014,2.014,0,0,0,.394.026h3.831a1.458,1.458,0,0,0,.433-.039,2.262,2.262,0,0,0,.42-.223c.262-.157.394-.3.407-.42V169.5a1.5,1.5,0,0,0-.026-.328c-.013-.052-.079-.118-.184-.2a.858.858,0,0,0-.236-.144,2.014,2.014,0,0,0-.394-.026h-4.264a2.013,2.013,0,0,0-.394.026.858.858,0,0,0-.236.144.593.593,0,0,0-.184.2C207.407,169.228,207.394,169.346,207.394,169.516Z" transform="translate(-96.248 -167.601)" fill="#fff"/>
        <path id="Path_23491" data-name="Path 23491" d="M216.667,167.63h6.757a1.265,1.265,0,0,1,.813.341l.407.341a1.05,1.05,0,0,1,.407.853v8.87a1.088,1.088,0,0,1-.407.853l-.407.341a1.322,1.322,0,0,1-.813.341h-6.757a1.265,1.265,0,0,1-.813-.341l-.407-.341a1.05,1.05,0,0,1-.407-.853v-8.87a1.088,1.088,0,0,1,.407-.853l.407-.341A1.2,1.2,0,0,1,216.667,167.63Zm6.954,10.037v-8.148a1.5,1.5,0,0,0-.026-.328c-.013-.052-.079-.118-.184-.2a.857.857,0,0,0-.236-.144,2.01,2.01,0,0,0-.394-.026h-5.5a2.235,2.235,0,0,0-.394.026.857.857,0,0,0-.236.144.593.593,0,0,0-.184.2,1.5,1.5,0,0,0-.026.328v8.148a1.5,1.5,0,0,0,.026.328c.013.052.079.118.184.2a.858.858,0,0,0,.236.144,2.013,2.013,0,0,0,.394.026h5.5a2.013,2.013,0,0,0,.394-.026.7.7,0,0,0,.236-.144.592.592,0,0,0,.184-.2A1.4,1.4,0,0,0,223.621,177.667Z" transform="translate(-93.423 -167.604)" fill="#fff"/>
        <path id="Path_23492" data-name="Path 23492" d="M225.37,171.071l-.8-.84,2.4-2.611h1.994v11.94H227.64V169.024a1.107,1.107,0,0,1,.053-.446l-.053-.052Z" transform="translate(-90.449 -167.607)" fill="#fff"/>
        <path id="Path_23493" data-name="Path 23493" d="M229.87,179.57v-1.811a1.151,1.151,0,0,1,.039-.394,1.188,1.188,0,0,1,.276-.3l5.668-5.17a.9.9,0,0,0,.276-.354,1.59,1.59,0,0,0,.052-.5v-1.522a1.5,1.5,0,0,0-.026-.328c-.013-.052-.079-.118-.184-.2a.857.857,0,0,0-.236-.144,2.013,2.013,0,0,0-.394-.026h-3.031a2.012,2.012,0,0,0-.394.026.858.858,0,0,0-.236.144.592.592,0,0,0-.184.2,1.5,1.5,0,0,0-.026.328v.328h-1.43v-.682a1.05,1.05,0,0,1,.407-.853l.407-.341a1.293,1.293,0,0,1,.813-.341h4.3a1.265,1.265,0,0,1,.813.341l.407.341a1.05,1.05,0,0,1,.407.853v2.4a1.591,1.591,0,0,1-.052.5,1,1,0,0,1-.276.354l-5.642,5.1a1.105,1.105,0,0,0-.289.341,1.149,1.149,0,0,0-.052.446v.066H237.6v1.194H229.87Z" transform="translate(-88.795 -167.604)" fill="#fff"/>
        <path id="Path_23494" data-name="Path 23494" d="M254.375,173.527l.669.551a1.028,1.028,0,0,1,.3.3,1.9,1.9,0,0,1,.039.512v3.136a1.79,1.79,0,0,1-.052.472,1.49,1.49,0,0,1-.262.354l-.3.3a1.137,1.137,0,0,1-.8.394h-4.842a1.266,1.266,0,0,1-.813-.341l-.407-.341a1.05,1.05,0,0,1-.407-.853v-.682h1.43v.328a1.5,1.5,0,0,0,.026.328c.013.052.079.118.184.2a.856.856,0,0,0,.236.144,2.013,2.013,0,0,0,.394.026h3.372a2.12,2.12,0,0,0,.394-.026.856.856,0,0,0,.236-.144.592.592,0,0,0,.184-.2,1.5,1.5,0,0,0,.026-.328v-2.572a.834.834,0,0,0-.3-.643l-.262-.223a1.867,1.867,0,0,0-.354-.262,1.411,1.411,0,0,0-.42-.039h-2.729v-1.089h2.493a1.41,1.41,0,0,0,.42-.039,1.615,1.615,0,0,0,.354-.249l.262-.21a1.028,1.028,0,0,0,.3-.3,1.352,1.352,0,0,0,.039-.42V169.5a1.5,1.5,0,0,0-.026-.328c-.013-.052-.079-.118-.184-.2a.857.857,0,0,0-.236-.144,2.014,2.014,0,0,0-.394-.026h-2.808a2.081,2.081,0,0,0-.407.026.857.857,0,0,0-.236.144.592.592,0,0,0-.184.2,1.5,1.5,0,0,0-.026.328v.328h-1.43v-.682a1.05,1.05,0,0,1,.407-.853l.407-.341a1.322,1.322,0,0,1,.813-.341h4.094a1.266,1.266,0,0,1,.814.341l.407.341a1.05,1.05,0,0,1,.407.853v2.795a1.162,1.162,0,0,1-.039.38.941.941,0,0,1-.262.262l-.5.407a.842.842,0,0,1-.472.223v.079A1.049,1.049,0,0,1,254.375,173.527Z" transform="translate(-83.293 -167.61)" fill="#fff"/>
        <path id="Path_23495" data-name="Path 23495" d="M261.356,172.235h1.43v3.411h1.64v1.194h-1.64v2.729h-1.43v-2.729H255.32v-1.4l5.839-7.807h1.6l-5.681,7.623a1.271,1.271,0,0,1-.289.328v.066h4.566v-3.411Z" transform="translate(-80.853 -167.604)" fill="#fff"/>
        <path id="Path_23496" data-name="Path 23496" d="M266.977,171.721h3.858a1.293,1.293,0,0,1,.813.341l.407.341a1.05,1.05,0,0,1,.407.853v4.776a1.05,1.05,0,0,1-.407.853l-.407.341a1.322,1.322,0,0,1-.813.341h-5.117a1.265,1.265,0,0,1-.813-.341l-.407-.341a1.05,1.05,0,0,1-.407-.853v-.682h1.43v.328a1.5,1.5,0,0,0,.026.328c.013.052.079.118.184.2a.859.859,0,0,0,.236.144,2.014,2.014,0,0,0,.394.026h3.858a2.013,2.013,0,0,0,.394-.026.7.7,0,0,0,.236-.144.421.421,0,0,0,.171-.2,1.494,1.494,0,0,0,.026-.328v-4.054a1.5,1.5,0,0,0-.026-.328.521.521,0,0,0-.171-.2.857.857,0,0,0-.236-.144,2.014,2.014,0,0,0-.394-.026h-3.293a1.266,1.266,0,0,0-.813.341.919.919,0,0,0-.407.682h-1.43V167.64h8.017v1.194H265.7v3.739h.066c.013-.118.131-.276.381-.459A1.34,1.34,0,0,1,266.977,171.721Z" transform="translate(-78.116 -167.601)" fill="#fff"/>
        <path id="Path_23497" data-name="Path 23497" d="M281.32,169.847h-1.43v-.328a1.5,1.5,0,0,0-.026-.328c-.013-.052-.079-.118-.184-.2a.857.857,0,0,0-.236-.144,2.014,2.014,0,0,0-.394-.026h-4.094a2.01,2.01,0,0,0-.394.026.856.856,0,0,0-.236.144.593.593,0,0,0-.184.2,1.5,1.5,0,0,0-.026.328v3.4h.066l.092-.079c.394-.394.709-.6.932-.6h4.645a1.265,1.265,0,0,1,.813.341l.407.341a1.05,1.05,0,0,1,.407.853v4.264a1.05,1.05,0,0,1-.407.853l-.407.341a1.293,1.293,0,0,1-.813.341h-5.524a1.265,1.265,0,0,1-.813-.341l-.407-.341a1.05,1.05,0,0,1-.407-.853v-8.87a1.05,1.05,0,0,1,.407-.853l.407-.341a1.322,1.322,0,0,1,.813-.341h5.353a1.266,1.266,0,0,1,.813.341l.407.341a1.05,1.05,0,0,1,.407.853v.682Zm-1.273,7.82v-3.543a1.5,1.5,0,0,0-.026-.328c-.013-.052-.079-.118-.184-.2a.857.857,0,0,0-.236-.144,2.014,2.014,0,0,0-.394-.026h-3.844a1.52,1.52,0,0,0-.433.039,2.264,2.264,0,0,0-.42.223c-.262.157-.394.3-.407.42v3.569a1.5,1.5,0,0,0,.026.328c.013.052.079.118.184.2a.857.857,0,0,0,.236.144,2.011,2.011,0,0,0,.394.026h4.264a2.01,2.01,0,0,0,.394-.026.857.857,0,0,0,.236-.144.593.593,0,0,0,.184-.2A1.044,1.044,0,0,0,280.048,177.667Z" transform="translate(-75.429 -167.604)" fill="#fff"/>
      </g>
      <g id="Group_11589" data-name="Group 11589" transform="translate(177.511 17.018)">
        <path id="Path_23509" data-name="Path 23509" d="M238.433,116.46h1.653a2.653,2.653,0,0,1,1.994.669,2.866,2.866,0,0,1,.643,2.073,2.386,2.386,0,0,1-1.522,2.532c1.1.223,1.653,1.1,1.653,2.624a2.765,2.765,0,0,1-.6,1.929,2.2,2.2,0,0,1-1.719.682H238.42V116.46Zm1.4,1.076v3.648a1.567,1.567,0,0,0,1.168-.42,1.993,1.993,0,0,0,.367-1.378,2.436,2.436,0,0,0-.315-1.456A1.508,1.508,0,0,0,239.837,117.536Zm0,4.7v3.661a1.7,1.7,0,0,0,1.194-.367,1.96,1.96,0,0,0,.354-1.365,2.264,2.264,0,0,0-.367-1.5A1.426,1.426,0,0,0,239.837,122.233Z" transform="translate(-238.42 -116.093)" fill="rgba(255,255,255,0.96)"/>
        <path id="Path_23510" data-name="Path 23510" d="M247.42,126.191h-1.351v-.879h-.039a1.526,1.526,0,0,1-1.338.971,1.565,1.565,0,0,1-1.233-.656,5.231,5.231,0,0,1-.538-2.939,7.568,7.568,0,0,1,.407-2.926,1.4,1.4,0,0,1,1.378-.892,1.229,1.229,0,0,1,.748.21,2.641,2.641,0,0,1,.577.682h.039v-.787h1.351Zm-2.2-1.076c.341,0,.577-.21.682-.617a8.662,8.662,0,0,0,.171-2.1,7.355,7.355,0,0,0-.157-1.837.655.655,0,0,0-.656-.538.711.711,0,0,0-.7.5,5.5,5.5,0,0,0-.2,1.784,10.246,10.246,0,0,0,.157,2.165C244.639,124.906,244.862,125.115,245.216,125.115Z" transform="translate(-237.016 -115.34)" fill="rgba(255,255,255,0.96)"/>
        <path id="Path_23511" data-name="Path 23511" d="M249.065,118.972v.7h.039a1.6,1.6,0,0,1,1.4-.787c1.037,0,1.561.564,1.561,1.706V126.2h-1.338v-5.235c0-.709-.276-1.063-.84-1.063a.735.735,0,0,0-.617.289,1.159,1.159,0,0,0-.223.774V126.2H247.7v-7.216h1.365Z" transform="translate(-235.524 -115.337)" fill="rgba(255,255,255,0.96)"/>
        <path id="Path_23512" data-name="Path 23512" d="M257.235,127.031h-1.417l-2.007-3.844h-.039v3.844H252.42V116.18h1.351v6.731h.039l1.771-3.083H257l-1.811,3.254Z" transform="translate(-234.051 -116.18)" fill="rgba(255,255,255,0.96)"/>
        <path id="Path_23513" data-name="Path 23513" d="M264.541,126.947h-1.115l-2.677-7.2h-.039v7.2h-1.26v-10.5h1.128l2.677,7.2.039.013v-7.2h1.246Z" transform="translate(-231.857 -116.096)" fill="rgba(255,255,255,0.96)"/>
        <path id="Path_23514" data-name="Path 23514" d="M269.2,126.191h-1.351v-.879h-.039a1.526,1.526,0,0,1-1.338.971,1.564,1.564,0,0,1-1.233-.656,5.231,5.231,0,0,1-.538-2.939,7.567,7.567,0,0,1,.407-2.926,1.41,1.41,0,0,1,1.378-.892,1.229,1.229,0,0,1,.748.21,2.641,2.641,0,0,1,.577.682h.039v-.787H269.2Zm-2.2-1.076c.341,0,.577-.21.682-.617a8.659,8.659,0,0,0,.171-2.1,7.353,7.353,0,0,0-.157-1.837.645.645,0,0,0-.656-.538.685.685,0,0,0-.682.5,5.5,5.5,0,0,0-.2,1.784,10.248,10.248,0,0,0,.157,2.165C266.419,124.906,266.642,125.115,267,125.115Z" transform="translate(-230.219 -115.34)" fill="rgba(255,255,255,0.96)"/>
        <path id="Path_23515" data-name="Path 23515" d="M276.946,126.195h-1.351v-5.248c0-.7-.262-1.05-.814-1.05-.577,0-.879.42-.879,1.246v5.038h-1.338v-5.34a1,1,0,0,0-.223-.669.721.721,0,0,0-.577-.276c-.591,0-.892.381-.892,1.142v5.143H269.52v-7.2h1.365v.656a1.929,1.929,0,0,1,1.5-.774,1.469,1.469,0,0,1,1.4.892,1.971,1.971,0,0,1,1.627-.879c1.01,0,1.509.577,1.509,1.732v5.589Z" transform="translate(-228.714 -115.344)" fill="rgba(255,255,255,0.96)"/>
        <path id="Path_23516" data-name="Path 23516" d="M281.014,122.823h-3.031a7.543,7.543,0,0,0,.157,1.771.736.736,0,0,0,.761.6.655.655,0,0,0,.63-.341,2.759,2.759,0,0,0,.171-1.089h1.22c-.039,1.679-.748,2.532-2.139,2.532q-2.244,0-2.244-3.543,0-3.858,2.322-3.858a1.993,1.993,0,0,1,1.509.669,4.217,4.217,0,0,1,.63,2.755v.5Zm-1.365-1.05a4.812,4.812,0,0,0-.171-1.535.626.626,0,0,0-.63-.459.684.684,0,0,0-.709.485,4.786,4.786,0,0,0-.171,1.509h1.679Z" transform="translate(-226.524 -115.331)" fill="rgba(255,255,255,0.96)"/>
      </g>
      <g id="Group_11590" data-name="Group 11590" transform="translate(24.733 16.296)">
        <path id="Path_23517" data-name="Path 23517" d="M126.887,127.523a3.3,3.3,0,0,1-1.417.341,3.266,3.266,0,0,1-2.454-1.1c-.7-.735-1.037-2.257-1.037-4.579,0-2.519.341-4.212,1.037-5.091a3.089,3.089,0,0,1,2.506-1.312,6.653,6.653,0,0,1,1.365.184v1.43a2.681,2.681,0,0,0-1.01-.21,1.9,1.9,0,0,0-1.574.932,7.1,7.1,0,0,0-.656,3.687,18.392,18.392,0,0,0,.144,2.572,2.633,2.633,0,0,0,.656,1.47,1.7,1.7,0,0,0,1.3.551,3.016,3.016,0,0,0,1.142-.289v1.417Z" transform="translate(-121.98 -115.583)" fill="rgba(255,255,255,0.96)"/>
        <path id="Path_23518" data-name="Path 23518" d="M130.584,119.969a2.449,2.449,0,0,0-1.483.394,2.184,2.184,0,0,0-.446,1.64v4.828H127.12v-8.043h1.535v1.194h.039a2.017,2.017,0,0,1,1.784-1.312l.1.013Z" transform="translate(-120.376 -114.681)" fill="rgba(255,255,255,0.96)"/>
        <path id="Path_23519" data-name="Path 23519" d="M135.626,123.069h-3.385a8.2,8.2,0,0,0,.184,1.981.811.811,0,0,0,.853.669.691.691,0,0,0,.7-.394,3.343,3.343,0,0,0,.2-1.22h1.378q-.059,2.834-2.4,2.834c-1.666,0-2.506-1.325-2.506-3.962,0-2.873.866-4.317,2.6-4.317a2.251,2.251,0,0,1,1.693.748c.472.5.709,1.522.709,3.083v.577Zm-1.509-1.168a5.355,5.355,0,0,0-.2-1.719.72.72,0,0,0-.7-.525.766.766,0,0,0-.787.551,5.467,5.467,0,0,0-.184,1.693Z" transform="translate(-119.277 -114.684)" fill="rgba(255,255,255,0.96)"/>
        <path id="Path_23520" data-name="Path 23520" d="M139.389,115.63h1.5v12.15H139.4V126.7h-.039a1.718,1.718,0,0,1-1.548,1.194,1.676,1.676,0,0,1-1.076-.394,1.99,1.99,0,0,1-.682-1.1,9.875,9.875,0,0,1-.2-2.362,14.421,14.421,0,0,1,.171-2.7,2.434,2.434,0,0,1,.63-1.273,1.65,1.65,0,0,1,2.69.617h.039Zm.013,7.991a8.617,8.617,0,0,0-.184-2.112.742.742,0,0,0-.761-.617.811.811,0,0,0-.787.656,7.654,7.654,0,0,0-.21,2.165,8.779,8.779,0,0,0,.2,2.231c.131.446.38.669.761.669s.617-.236.774-.7A8.7,8.7,0,0,0,139.4,123.621Z" transform="translate(-117.648 -115.63)" fill="rgba(255,255,255,0.96)"/>
        <path id="Path_23521" data-name="Path 23521" d="M141.17,117.077a.756.756,0,0,1,.249-.577.764.764,0,0,1,.59-.249.8.8,0,0,1,.59.249.828.828,0,0,1,.249.577.8.8,0,0,1-.249.59.812.812,0,0,1-.59.249.764.764,0,0,1-.59-.249A.8.8,0,0,1,141.17,117.077Zm.066,2.454h1.5v8.043h-1.5Z" transform="translate(-115.991 -115.437)" fill="rgba(255,255,255,0.96)"/>
        <path id="Path_23522" data-name="Path 23522" d="M146.891,120.465h-.971v6.862h-1.509v-6.862h-.971v-1.194h.971V117.08h1.509v2.191h.971Z" transform="translate(-115.283 -115.177)" fill="rgba(255,255,255,0.96)"/>
        <path id="Path_23523" data-name="Path 23523" d="M154.787,127.523a3.3,3.3,0,0,1-1.417.341,3.266,3.266,0,0,1-2.454-1.1c-.7-.735-1.037-2.257-1.037-4.579,0-2.519.341-4.212,1.037-5.091a3.089,3.089,0,0,1,2.506-1.312,6.653,6.653,0,0,1,1.365.184v1.43a2.681,2.681,0,0,0-1.01-.21,1.9,1.9,0,0,0-1.574.932,7.1,7.1,0,0,0-.656,3.687,18.39,18.39,0,0,0,.144,2.572,2.633,2.633,0,0,0,.656,1.47,1.7,1.7,0,0,0,1.3.551,2.906,2.906,0,0,0,1.128-.289v1.417Z" transform="translate(-113.273 -115.583)" fill="rgba(255,255,255,0.96)"/>
        <path id="Path_23524" data-name="Path 23524" d="M159.978,126.831h-1.509v-.971h-.052a1.7,1.7,0,0,1-1.5,1.089,1.746,1.746,0,0,1-1.378-.735,5.866,5.866,0,0,1-.6-3.28,8.854,8.854,0,0,1,.446-3.267,1.568,1.568,0,0,1,1.548-1,1.343,1.343,0,0,1,.827.236,2.782,2.782,0,0,1,.643.761h.052v-.879h1.509v8.043Zm-2.467-1.207c.381,0,.643-.236.761-.7a9.673,9.673,0,0,0,.2-2.349,8.161,8.161,0,0,0-.171-2.047.712.712,0,0,0-.722-.59.782.782,0,0,0-.774.551,6.271,6.271,0,0,0-.21,1.994,11.375,11.375,0,0,0,.171,2.414C156.856,125.375,157.118,125.624,157.512,125.624Z" transform="translate(-111.694 -114.681)" fill="rgba(255,255,255,0.96)"/>
        <path id="Path_23525" data-name="Path 23525" d="M163.734,119.969a2.449,2.449,0,0,0-1.483.394,2.184,2.184,0,0,0-.446,1.64v4.828H160.27v-8.043h1.535v1.194h.039a2.017,2.017,0,0,1,1.784-1.312l.1.013Z" transform="translate(-110.03 -114.681)" fill="rgba(255,255,255,0.96)"/>
        <path id="Path_23526" data-name="Path 23526" d="M167.289,115.63h1.5v12.15H167.3V126.7h-.039a1.718,1.718,0,0,1-1.548,1.194,1.676,1.676,0,0,1-1.076-.394,2.064,2.064,0,0,1-.682-1.1,9.876,9.876,0,0,1-.2-2.362,16.028,16.028,0,0,1,.157-2.7,2.534,2.534,0,0,1,.63-1.273,1.65,1.65,0,0,1,2.69.617h.039V115.63Zm.013,7.991a8.616,8.616,0,0,0-.184-2.112.751.751,0,0,0-.761-.617.811.811,0,0,0-.787.656,7.655,7.655,0,0,0-.21,2.165,8.78,8.78,0,0,0,.2,2.231c.131.446.381.669.761.669s.63-.236.774-.7A8.7,8.7,0,0,0,167.3,123.621Z" transform="translate(-108.941 -115.63)" fill="rgba(255,255,255,0.96)"/>
      </g>
      <g id="Group_11591" data-name="Group 11591" transform="translate(25.717 102.539)">
        <path id="Path_23527" data-name="Path 23527" d="M127.375,184.873a4.9,4.9,0,0,1-.577,2.65,2.159,2.159,0,0,1-3.477-.026,4.748,4.748,0,0,1-.59-2.611,4.862,4.862,0,0,1,.577-2.664,1.931,1.931,0,0,1,1.745-.853,1.955,1.955,0,0,1,1.732.892A4.688,4.688,0,0,1,127.375,184.873Zm-3.529,0a4.859,4.859,0,0,0,.289,1.994,1.011,1.011,0,0,0,1.85,0,4.87,4.87,0,0,0,.289-1.981,4.985,4.985,0,0,0-.289-1.994.974.974,0,0,0-.932-.617.957.957,0,0,0-.918.6A4.859,4.859,0,0,0,123.845,184.873Z" transform="translate(-122.73 -181.357)" fill="#d6d6d6"/>
        <path id="Path_23528" data-name="Path 23528" d="M130.056,188.266h-1.1v-4.409q0-.787.039-1.26a2.474,2.474,0,0,1-.262.249c-.1.092-.459.38-1.05.853l-.551-.7,2.007-1.574h.918Z" transform="translate(-121.357 -181.338)" fill="#d6d6d6"/>
        <path id="Path_23529" data-name="Path 23529" d="M135.7,188.285H131.07v-.827l1.758-1.771c.525-.538.866-.905,1.037-1.128a2.68,2.68,0,0,0,.367-.63,1.68,1.68,0,0,0,.118-.63.979.979,0,0,0-.276-.735,1.047,1.047,0,0,0-.774-.262,2.175,2.175,0,0,0-.761.144,3.575,3.575,0,0,0-.853.525l-.59-.722a3.658,3.658,0,0,1,1.1-.682,3.26,3.26,0,0,1,1.141-.2,2.261,2.261,0,0,1,1.522.5,1.68,1.68,0,0,1,.577,1.338,2.188,2.188,0,0,1-.171.879,3.127,3.127,0,0,1-.512.853,10.727,10.727,0,0,1-1.142,1.194l-1.181,1.155v.052h3.241v.945Z" transform="translate(-120.127 -181.357)" fill="#d6d6d6"/>
        <path id="Path_23530" data-name="Path 23530" d="M139.605,183.026a1.561,1.561,0,0,1-.38,1.076,1.831,1.831,0,0,1-1.063.577v.039a2.023,2.023,0,0,1,1.233.512,1.455,1.455,0,0,1,.407,1.089,1.818,1.818,0,0,1-.7,1.522,3.207,3.207,0,0,1-1.981.538,4.416,4.416,0,0,1-1.916-.367v-.984a4.24,4.24,0,0,0,.918.328,3.941,3.941,0,0,0,.932.118,2.029,2.029,0,0,0,1.181-.289,1.058,1.058,0,0,0,.394-.905.859.859,0,0,0-.433-.8,2.782,2.782,0,0,0-1.365-.262h-.59v-.892h.6c1.089,0,1.64-.381,1.64-1.128a.829.829,0,0,0-.289-.682,1.282,1.282,0,0,0-.84-.236,2.783,2.783,0,0,0-.748.1,3.471,3.471,0,0,0-.853.433l-.538-.761a3.6,3.6,0,0,1,2.178-.7,2.54,2.54,0,0,1,1.614.446A1.393,1.393,0,0,1,139.605,183.026Z" transform="translate(-118.835 -181.36)" fill="#d6d6d6"/>
      </g>
      <g id="Group_11594" data-name="Group 11594" transform="translate(167.015 110.188)">
        <g id="Group_11592" data-name="Group 11592" transform="translate(22.87 0.958)">
          <path id="Path_23531" data-name="Path 23531" d="M249,187.94h4.737a.913.913,0,0,1,.577.236l.289.236a.728.728,0,0,1,.289.6v6.219a.763.763,0,0,1-.289.6l-.289.236a.913.913,0,0,1-.577.236H249a.913.913,0,0,1-.577-.236l-.289-.236a.728.728,0,0,1-.289-.6v-6.219a.763.763,0,0,1,.289-.6l.289-.236A.941.941,0,0,1,249,187.94Zm4.881,7.046v-5.721a1.008,1.008,0,0,0-.013-.236c-.013-.039-.052-.079-.131-.131a.663.663,0,0,0-.171-.1,1.3,1.3,0,0,0-.276-.013h-3.844a1.294,1.294,0,0,0-.276.013,1,1,0,0,0-.171.1.591.591,0,0,0-.131.131,1.007,1.007,0,0,0-.013.236v5.721a1.007,1.007,0,0,0,.013.236c.013.039.052.079.131.144a.663.663,0,0,0,.171.1,1.294,1.294,0,0,0,.276.013H253.3a1.3,1.3,0,0,0,.276-.013.532.532,0,0,0,.171-.1c.079-.066.118-.1.131-.144A1.008,1.008,0,0,0,253.886,194.986Z" transform="translate(-247.85 -187.914)" fill="#fff"/>
          <path id="Path_23532" data-name="Path 23532" d="M255.114,190.354l-.564-.59,1.693-1.824h1.4v8.371h-.932v-7.387a.819.819,0,0,1,.039-.315l-.039-.039Z" transform="translate(-245.759 -187.914)" fill="#fff"/>
          <path id="Path_23533" data-name="Path 23533" d="M263.5,187.94h.958l-6.324,9.447h-.905Z" transform="translate(-244.923 -187.914)" fill="#fff"/>
          <path id="Path_23534" data-name="Path 23534" d="M263.307,192.617l.564-.472a.564.564,0,0,1,.341-.157v-.066a.6.6,0,0,1-.341-.157l-.394-.315a.48.48,0,0,1-.184-.407V189a.763.763,0,0,1,.289-.6l.289-.236a.886.886,0,0,1,.577-.236h3.661a.941.941,0,0,1,.577.236l.289.236a.765.765,0,0,1,.289.6v2.047a.491.491,0,0,1-.2.407l-.394.315a.564.564,0,0,1-.341.157v.066a.6.6,0,0,1,.341.157l.564.472a.562.562,0,0,1,.171.472v2.152a.763.763,0,0,1-.289.6c-.066.053-.157.131-.289.236a.913.913,0,0,1-.577.236H264.3a.913.913,0,0,1-.577-.236,2.3,2.3,0,0,0-.289-.236.728.728,0,0,1-.289-.6V193.09A.6.6,0,0,1,263.307,192.617Zm4.172-.131h-2.414a1.007,1.007,0,0,0-.236.013.691.691,0,0,0-.2.131l-.262.21a.768.768,0,0,0-.184.184.861.861,0,0,0-.026.249v1.693a1.006,1.006,0,0,0,.013.236c.013.039.052.079.131.144a.662.662,0,0,0,.171.1,1.3,1.3,0,0,0,.276.013h3.057a1.3,1.3,0,0,0,.276-.013.531.531,0,0,0,.171-.1c.079-.066.118-.1.131-.144a1.006,1.006,0,0,0,.013-.236v-1.693a.862.862,0,0,0-.026-.249.57.57,0,0,0-.184-.184l-.262-.21c-.092-.079-.157-.131-.21-.131S267.6,192.486,267.48,192.486Zm.171-3.7h-2.782a1.294,1.294,0,0,0-.276.013,1,1,0,0,0-.171.1.591.591,0,0,0-.131.131,1.006,1.006,0,0,0-.013.236v1.561a.982.982,0,0,0,.026.262.487.487,0,0,0,.171.184l.315.249a.669.669,0,0,0,.184.118,1.367,1.367,0,0,0,.276.013h2.008a1.294,1.294,0,0,0,.276-.013.671.671,0,0,0,.184-.118l.315-.249a.644.644,0,0,0,.171-.184.981.981,0,0,0,.026-.262v-1.561c0-.118-.013-.2-.013-.236s-.052-.079-.131-.131a.662.662,0,0,0-.171-.1A1.079,1.079,0,0,0,267.65,188.786Z" transform="translate(-243.075 -187.92)" fill="#fff"/>
          <path id="Path_23535" data-name="Path 23535" d="M270.7,187.94h4.737a.941.941,0,0,1,.577.236l.289.236a.765.765,0,0,1,.289.6v6.219a.763.763,0,0,1-.289.6l-.289.236a.913.913,0,0,1-.577.236H270.7a.941.941,0,0,1-.577-.236l-.289-.236a.765.765,0,0,1-.289-.6v-6.219a.763.763,0,0,1,.289-.6l.289-.236A.913.913,0,0,1,270.7,187.94Zm4.881,7.046v-5.721c0-.118-.013-.2-.013-.236s-.052-.079-.131-.131a.662.662,0,0,0-.171-.1,1.294,1.294,0,0,0-.276-.013h-3.857a1.294,1.294,0,0,0-.276.013.993.993,0,0,0-.171.1.591.591,0,0,0-.131.131,1.006,1.006,0,0,0-.013.236v5.721c0,.118.013.2.013.236s.053.079.131.144a.531.531,0,0,0,.171.1,1.294,1.294,0,0,0,.276.013H275a1.294,1.294,0,0,0,.276-.013.531.531,0,0,0,.171-.1.416.416,0,0,0,.131-.144C275.572,195.183,275.586,195.1,275.586,194.986Z" transform="translate(-241.078 -187.914)" fill="#fff"/>
        </g>
        <g id="Group_11593" data-name="Group 11593">
          <path id="Path_23536" data-name="Path 23536" d="M231.837,190.378h.026c0-.013.013-.066.026-.131l.945-3.057h.446l-1.155,3.49h-.551l-1.155-3.49h.446l.945,3.057A.315.315,0,0,1,231.837,190.378Z" transform="translate(-230.42 -187.19)" fill="#fff"/>
          <path id="Path_23537" data-name="Path 23537" d="M232.85,190.68l1.194-3.49h.59l1.22,3.49h-.42l-.262-.722h-1.666l-.249.722Zm1.509-3.188h-.026a.342.342,0,0,1-.039.144l-.669,2.007h1.456l-.7-2.007A.308.308,0,0,1,234.359,187.492Z" transform="translate(-229.662 -187.19)" fill="#fff"/>
          <path id="Path_23538" data-name="Path 23538" d="M237.872,190.336v.354H235.72V187.2h.42v3.149h1.732Z" transform="translate(-228.766 -187.187)" fill="#fff"/>
          <path id="Path_23539" data-name="Path 23539" d="M237.72,187.19h.42v3.49h-.42Z" transform="translate(-228.142 -187.19)" fill="#fff"/>
          <path id="Path_23540" data-name="Path 23540" d="M238.8,190.68v-3.49h1.85a.328.328,0,0,1,.236.1l.485.394a.269.269,0,0,1,.118.2v2.1a.269.269,0,0,1-.118.2l-.485.394a.353.353,0,0,1-.236.1Zm2.27-.84v-1.8a.269.269,0,0,0-.118-.2l-.236-.2a.353.353,0,0,0-.236-.1h-1.246v2.795h1.246a.328.328,0,0,0,.236-.1l.236-.2A.319.319,0,0,0,241.07,189.84Z" transform="translate(-227.805 -187.19)" fill="#fff"/>
          <path id="Path_23541" data-name="Path 23541" d="M231.01,191.76h2.637v.354h-1.1v3.149h-.42v-3.149h-1.1v-.354Z" transform="translate(-230.236 -185.764)" fill="#fff"/>
          <path id="Path_23542" data-name="Path 23542" d="M235.611,191.76h.42v3.49h-.42v-1.627H233.8v1.627h-.42v-3.49h.42v1.548h1.811Z" transform="translate(-229.496 -185.764)" fill="#fff"/>
          <path id="Path_23543" data-name="Path 23543" d="M236.163,191.76h1.85a.381.381,0,0,1,.236.1l.118.1a.3.3,0,0,1,.118.249v1.168a.323.323,0,0,1-.131.262l-.118.1a.36.36,0,0,1-.236.092h-.276l.512.8c.039.052.066.092.079.1a.5.5,0,0,0,.1.066l.052.026c.053.039.092.066.1.079a.37.37,0,0,1,.013.144v.2h-.131a.259.259,0,0,1-.118-.013.584.584,0,0,1-.1-.066l-.092-.066a.659.659,0,0,1-.184-.2l-.669-1.063h-.722v1.4h-.42v-3.5Zm.42.341v1.4h1.246a.292.292,0,0,0,.118-.013.12.12,0,0,0,.066-.039c.026-.026.052-.039.052-.052a.739.739,0,0,0,.013-.092v-.984c0-.052,0-.079-.013-.092s-.026-.039-.052-.052a.12.12,0,0,0-.066-.039.726.726,0,0,0-.118-.013h-1.246Z" transform="translate(-228.632 -185.764)" fill="#fff"/>
          <path id="Path_23544" data-name="Path 23544" d="M240.957,191.76h.42V194.8a.3.3,0,0,1-.118.249l-.118.1a.381.381,0,0,1-.236.1h-1.693a.381.381,0,0,1-.236-.1l-.118-.1a.3.3,0,0,1-.118-.249V191.76h.42V194.7c0,.052,0,.079.013.092s.026.039.052.052a.12.12,0,0,0,.066.039.725.725,0,0,0,.118.013h1.325c.066,0,.1,0,.118-.013a.12.12,0,0,0,.066-.039c.026-.026.052-.039.052-.052a.74.74,0,0,0,.013-.092V191.76Z" transform="translate(-227.824 -185.764)" fill="#fff"/>
        </g>
        <path id="Path_23545" data-name="Path 23545" d="M242.65,189.21v4.251l3.215-2.126Z" transform="translate(-226.603 -186.56)" fill="#fff" fill-rule="evenodd"/>
      </g>
    </g>
  </g>
</svg>
