<svg id="Iconly_Broken_Work" data-name="Iconly/Broken/Work" xmlns="http://www.w3.org/2000/svg" width="10" height="9.795" viewBox="0 0 10 9.795">
  <g id="Work">
    <path id="Work-2" data-name="Work" d="M4.392,9.423a.374.374,0,0,1,.375-.373h3.1a1.114,1.114,0,0,0,.967-.408,1.537,1.537,0,0,0,.316-.84c.016-.274.093-1.142.093-1.142a.372.372,0,0,1,.742.029c0,.011-.071.888-.086,1.158a2.258,2.258,0,0,1-.487,1.271,1.874,1.874,0,0,1-1.543.678h-3.1A.374.374,0,0,1,4.392,9.423Zm-2.261.371A1.872,1.872,0,0,1,.588,9.116,2.251,2.251,0,0,1,.1,7.845C.084,7.575.014,6.7.014,6.687a.372.372,0,0,1,.742-.028S.833,7.527.85,7.8a1.527,1.527,0,0,0,.316.84,1.113,1.113,0,0,0,.967.409H2.7a.372.372,0,1,1,0,.745ZM4.625,7.285V6.643a.375.375,0,0,1,.751,0v.642a.375.375,0,0,1-.751,0ZM5.876,6.23A.9.9,0,0,0,5,5.558a.913.913,0,0,0-.89.673.374.374,0,0,1-.358.275.385.385,0,0,1-.055,0A8.62,8.62,0,0,1,.168,5.2.371.371,0,0,1,0,4.892V3.171a1.9,1.9,0,0,1,1.909-1.89h.977A1.479,1.479,0,0,1,4.354,0H5.646A1.479,1.479,0,0,1,7.113,1.281H8.1A1.9,1.9,0,0,1,10,3.171V4.892a.373.373,0,0,1-.168.311,8.625,8.625,0,0,1-3.541,1.3.384.384,0,0,1-.052,0A.374.374,0,0,1,5.876,6.23Zm.607-.506A7.9,7.9,0,0,0,9.249,4.688V3.171A1.151,1.151,0,0,0,8.1,2.025H5a.372.372,0,1,1,0-.744H6.351A.73.73,0,0,0,5.646.745H4.354a.728.728,0,0,0-.73.724v.184a.373.373,0,0,1-.109.264.377.377,0,0,1-.266.109H1.91A1.154,1.154,0,0,0,.751,3.171V4.688A7.878,7.878,0,0,0,3.507,5.719,1.67,1.67,0,0,1,5,4.814,1.646,1.646,0,0,1,6.483,5.724Z" fill="#fd9f00"/>
  </g>
</svg>
